<svg width="24" height="24" viewBox="0 0 24 24" fill="none" xmlns="http://www.w3.org/2000/svg">
<path fill-rule="evenodd" clip-rule="evenodd" d="M5.87519 6.60707L5.61249 6.6973C-0.517285 8.85864 -0.429712 12.8521 5.87557 14.9502L8.03836 15.6706L8.76085 17.8358C10.8884 24.2297 14.9763 24.2297 17.104 17.8354L19.9344 9.34407C21.3888 4.94628 18.759 2.31249 14.3652 3.77707L5.87519 6.60707ZM18.5736 8.67362L18.5108 8.87142L15.6809 17.3614C15.546 17.7667 15.408 18.1394 15.2674 18.4793L15.0974 18.8716C13.7568 21.8214 12.2027 21.8828 10.8532 19.0562L10.6821 18.6797C10.5405 18.3528 10.4014 17.9933 10.2653 17.601L9.43051 15.1009L12.9334 11.5882L13.0059 11.504C13.2234 11.21 13.1986 10.7934 12.932 10.5275C12.6387 10.235 12.1638 10.2357 11.8713 10.529L8.29129 14.119L8.25428 14.162L6.34953 13.5271C5.94419 13.3922 5.57153 13.2543 5.23156 13.1137L4.83929 12.9439C1.57561 11.462 1.84765 9.72305 5.65586 8.27708L6.11096 8.11157L14.8395 5.2001C17.9935 4.14878 19.5137 5.58352 18.5736 8.67362Z" fill="white"/>
</svg>
