<svg width="32" height="33" viewBox="0 0 32 33" fill="none" xmlns="http://www.w3.org/2000/svg">
<path fill-rule="evenodd" clip-rule="evenodd" d="M16 5.60889C14.7182 5.60838 13.4405 5.75573 12.1924 6.048V6.04656C8.8956 6.81996 6.3214 9.39416 5.548 12.691C4.96046 15.1954 4.96046 17.8017 5.548 20.3061C6.3214 23.603 8.8956 26.1772 12.1924 26.9506C14.6968 27.538 17.3032 27.538 19.8076 26.9506C23.1044 26.1772 25.6786 23.603 26.452 20.3061C26.7452 19.0538 26.8911 17.7754 26.8911 16.4986C26.8911 15.9162 27.3632 15.4441 27.9456 15.4441C28.5279 15.4441 29 15.9162 29 16.4986C29 17.9372 28.8353 19.3773 28.5046 20.7871C27.5485 24.8639 24.3654 28.0471 20.2886 29.0031C17.4676 29.6632 14.5324 29.6632 11.7114 29.0031C7.6352 28.0466 4.45266 24.8635 3.49689 20.7871C2.83518 17.9664 2.83518 15.0308 3.49689 12.21C4.45362 8.13471 7.63598 4.95291 11.7114 3.99689C13.1171 3.66693 14.5561 3.5002 16 3.5C16.5824 3.5 17.0544 3.97209 17.0544 4.55444C17.0544 5.1368 16.5824 5.60889 16 5.60889ZM21.2693 4.55444C21.2693 3.97209 21.7414 3.5 22.3238 3.5H27.9456C28.5279 3.5 29 3.97209 29 4.55444V10.1748C28.979 10.7416 28.5134 11.1902 27.9463 11.1902C27.3791 11.1902 26.9135 10.7416 26.8926 10.1748V7.09811L20.2582 13.7324C19.8435 14.1253 19.1914 14.1165 18.7874 13.7126C18.3835 13.3086 18.3747 12.6565 18.7676 12.2418L25.4004 5.60889H22.3238C21.7414 5.60889 21.2693 5.1368 21.2693 4.55444Z" fill="white"/>
</svg>
