<svg width="16" height="22" viewBox="0 0 16 22" fill="none" xmlns="http://www.w3.org/2000/svg">
<path fill-rule="evenodd" clip-rule="evenodd" d="M15.598 5.56169C15.5986 5.01958 15.3879 4.50978 15.0048 4.12629C14.6217 3.7428 14.1121 3.53156 13.57 3.53156C13.3121 3.53156 13.0653 3.58074 12.838 3.66934L12.84 2.5649C12.8413 2.02232 12.631 1.51196 12.2478 1.12782C11.8645 0.743729 11.3547 0.532141 10.8121 0.532141H10.7822C10.3756 0.532141 9.99659 0.653141 9.67867 0.860416C9.61258 0.767024 9.53869 0.678204 9.45621 0.595596C9.07298 0.211502 8.56314 0 8.0206 0H7.98381C7.05696 0 6.27393 0.625231 6.03288 1.47585C5.78441 1.36702 5.51027 1.3062 5.22207 1.3062H5.19856C4.08036 1.3062 3.17064 2.21592 3.17064 3.33412V7.42703C2.93934 7.33579 2.68772 7.28506 2.42436 7.28506C1.2993 7.28506 0.383972 8.20035 0.383972 9.32541V14.3795C0.383972 18.5715 3.7944 21.9819 7.98635 21.9819C10.0189 21.9819 11.9293 21.1898 13.3656 19.7516C14.8019 18.3134 15.5914 16.402 15.5887 14.3694L15.5858 12.2099L15.598 5.56169ZM14.2946 14.3711C14.2968 16.0577 13.6417 17.6437 12.4499 18.8371C11.2581 20.0305 9.67289 20.6877 7.98631 20.6877C4.50794 20.6877 1.67809 17.8578 1.67809 14.3795V9.32541C1.67809 8.91393 2.01288 8.57918 2.42436 8.57918C2.83585 8.57918 3.17064 8.91393 3.17064 9.32541V12.7251C3.17064 13.0825 3.46035 13.3722 3.8177 13.3722C4.96674 13.3722 5.90157 14.307 5.90157 15.4561V16.515C5.90157 16.8724 6.19128 17.1621 6.54863 17.1621C6.90598 17.1621 7.19569 16.8724 7.19569 16.515V15.4561C7.19569 13.8147 6.01895 12.4429 4.46476 12.1403V3.33412C4.46476 2.92949 4.79394 2.60031 5.19856 2.60031H5.22207C5.62666 2.60031 5.9558 2.92945 5.95588 3.33399V9.30281C5.95588 9.66016 6.24559 9.94987 6.60294 9.94987C6.96029 9.94987 7.25 9.66016 7.25 9.30281C7.25 8.34439 7.25 2.83364 7.25 2.02788C7.25 1.62326 7.57918 1.29407 7.98381 1.29407H8.0206C8.21692 1.29407 8.40142 1.3706 8.54006 1.50959C8.67871 1.64853 8.75484 1.8332 8.75441 2.02969C8.7501 4.19424 8.74371 7.15729 8.74005 9.30755C8.73936 9.6649 9.02846 9.95517 9.38581 9.95586H9.38711C9.74389 9.95586 10.0334 9.66702 10.0342 9.31005C10.037 7.85491 10.0446 3.9512 10.0484 2.5583C10.0493 2.15462 10.3785 1.82617 10.7822 1.82617H10.8121C11.0084 1.82617 11.1929 1.9027 11.3316 2.04173C11.4702 2.18072 11.5464 2.36543 11.5459 2.56205C11.5418 4.66611 11.535 7.99342 11.5317 10.0793C11.531 10.4367 11.8202 10.7269 12.1776 10.7276H12.1788C12.5356 10.7275 12.8252 10.4387 12.8259 10.0817C12.8267 9.76075 12.8331 5.6942 12.8363 5.55556C12.8383 5.153 13.1675 4.82551 13.5701 4.82551C13.7662 4.82551 13.9506 4.9019 14.0892 5.04072C14.2279 5.17949 14.3041 5.36395 14.3039 5.55962L14.2918 12.2095L14.2946 14.3711Z" fill="white"/>
</svg>
