<svg width="152" height="304" viewBox="0 0 152 304" fill="none" xmlns="http://www.w3.org/2000/svg">
<g clip-path="url(#clip0_1608_3461)">
<rect width="152" height="304" rx="6" fill="#212130"/>
<path d="M66.8102 129.611L54.8847 168.602L51.3865 177.673C51.3865 177.673 56.4748 184.198 68.5593 186.744C76.8277 188.495 82.3929 188.654 86.0501 188.336C89.0712 188.018 92.7284 187.381 90.8203 181.811C88.1172 173.535 89.0712 168.283 89.0712 168.283L93.3644 144.889L66.8102 129.611Z" fill="#EA9D7D"/>
<path d="M65.0616 150.618C68.9399 156.092 74.063 160.565 80.0082 163.668C85.5735 166.374 89.5487 167.01 89.5487 167.01L93.2058 147.594L67.1287 129.611L65.6976 132.316L64.5846 136.772C64.1076 136.772 61.4045 145.048 65.0616 150.618Z" fill="url(#paint0_linear_1608_3461)"/>
<path d="M52.3415 177.833H52.1824C51.8644 177.674 51.7054 177.355 51.7054 177.037L59.1787 154.12C60.6098 149.345 64.9029 133.272 64.9029 133.272C65.0619 132.953 65.38 132.794 65.698 132.794C66.016 132.953 66.175 133.272 66.175 133.59L60.4508 154.438C59.1787 158.735 52.9775 177.196 52.9775 177.196C52.9775 177.674 52.6595 177.833 52.3415 177.833Z" fill="#CF7653"/>
<path d="M71.2628 138.842L71.5808 139.637L72.2168 138.842H71.2628Z" fill="#A84D3B"/>
<path d="M71.2633 137.727L70.9453 139.159L72.5353 139L71.2633 137.727ZM79.8497 143.934V145.684L81.5987 144.888L79.8497 143.934ZM75.5565 141.228L75.2384 142.819L77.1465 142.342L75.5565 141.228ZM73.1714 139.477L72.8533 141.069L74.7614 140.591L73.1714 139.477Z" fill="#A84D3B"/>
<path d="M70.3086 136.294L69.5136 137.886H71.4217L70.3086 136.294ZM82.0751 147.594L81.4391 146.639L80.8031 147.912L82.0751 147.594ZM80.008 145.843L79.054 144.729L78.577 146.002L80.008 145.843ZM86.5273 149.345L85.4143 148.071L84.9373 149.504L86.5273 149.345ZM91.1385 150.936L90.1845 149.822L89.7075 151.095L91.1385 150.936ZM82.8702 145.366L81.7571 144.888V146.162L82.8702 145.366ZM85.0963 150.299L84.3013 149.345L83.6652 150.618L85.0963 150.299ZM78.895 143.774L77.782 143.297V144.57L78.895 143.774Z" fill="#A84D3B"/>
<path d="M87.1641 147.117L85.7331 146.48V148.549L87.1641 147.117ZM90.3442 147.753L89.0722 147.435L89.3902 149.027L90.3442 147.753ZM92.2523 150.3L91.1393 150.141L91.6163 151.414L92.2523 150.3ZM87.9591 149.822L87.3231 148.867L86.5281 149.981L87.9591 149.822ZM91.7753 153.483L91.9343 152.369L90.6623 152.846L91.7753 153.483ZM91.2983 155.711L91.6163 154.597L90.3442 154.915L91.2983 155.711ZM88.5952 155.711L87.9591 156.188L88.9132 156.666L88.5952 155.711ZM89.2312 149.504L88.5952 149.981L89.3902 150.459L89.2312 149.504ZM92.7293 148.39L91.9343 148.231L92.0933 149.186L92.7293 148.39ZM89.8672 157.461L89.2312 158.098L90.0262 158.416L89.8672 157.461ZM73.9666 140.91L73.3305 141.388L74.2846 141.865L73.9666 140.91ZM68.7194 133.589L68.0833 134.226L68.8783 134.544L68.7194 133.589ZM84.779 148.708L84.302 148.231L83.984 149.027L84.779 148.708ZM80.1678 147.435L80.4858 146.639L79.6908 146.799L80.1678 147.435ZM82.5529 148.867L82.7119 148.231H81.9169L82.5529 148.867ZM85.8921 151.891L86.2101 152.687L86.8461 152.05L85.8921 151.891ZM90.5033 148.867L89.8672 149.186L90.6623 149.663L90.5033 148.867Z" fill="#A84D3B"/>
<path d="M90.8203 147.913L89.8663 148.549L90.9793 149.186L90.8203 147.913ZM88.7532 148.709L88.1172 149.027L88.9122 149.504L88.7532 148.709ZM89.3893 160.008L88.7532 160.326L89.5483 160.804L89.3893 160.008ZM87.7992 158.098L87.9582 158.735L88.5942 158.257L87.7992 158.098ZM87.6402 154.279L87.7992 154.915L88.4352 154.438L87.6402 154.279ZM90.6613 155.87L90.1843 155.393L89.8663 156.189L90.6613 155.87ZM68.5594 148.39L68.8774 148.709L69.1954 148.072L68.5594 148.39ZM71.4215 146.321L71.1035 146.64L71.7395 146.799L71.4215 146.321ZM74.7606 152.051L74.2836 151.892V152.369L74.7606 152.051ZM73.1706 149.345L72.8525 149.823H73.4886L73.1706 149.345ZM83.983 154.438V155.234L84.9371 154.915L83.983 154.438ZM82.552 147.117V147.913L83.506 147.595L82.552 147.117ZM82.711 145.526V146.481L83.506 146.003L82.711 145.526ZM70.3084 140.751V141.547L71.2625 141.229L70.3084 140.751ZM89.3893 152.369L88.7532 152.528L89.2303 153.165L89.3893 152.369ZM87.0042 158.894L86.6862 158.257L86.2091 158.894H87.0042ZM87.6402 150.618L87.9582 151.414L88.5942 150.618H87.6402ZM90.0253 151.573L90.5023 152.369L91.1383 151.573H90.0253ZM91.7744 148.709L91.2973 149.186L92.0924 149.504L91.7744 148.709ZM90.8203 153.642L90.1843 153.324V154.12L90.8203 153.642ZM72.8525 139.637L71.8985 140.274L73.0116 140.91L72.8525 139.637ZM69.6724 140.751L69.1954 140.433L69.0364 141.07L69.6724 140.751ZM66.4923 139.16L66.0153 138.842L65.8563 139.478L66.4923 139.16ZM65.5382 144.093L65.6972 143.616H65.0612L65.5382 144.093Z" fill="#A84D3B"/>
<path d="M71.7398 140.592L72.0578 141.228L72.5348 140.592H71.7398ZM69.8317 139L70.1497 140.114L71.1038 139.159L69.8317 139ZM69.3547 134.703L68.8776 135.658L70.1497 135.817L69.3547 134.703ZM74.2839 142.501L73.8069 142.82L74.4429 143.138L74.2839 142.501ZM75.3969 141.865L74.9199 142.183L75.556 142.501L75.3969 141.865ZM76.669 142.501L76.192 142.82L76.828 143.138L76.669 142.501ZM74.4429 146.639L73.9659 146.321L73.8069 146.958L74.4429 146.639ZM64.9025 141.228L65.2205 141.865L65.6975 141.228H64.9025ZM68.4006 137.568L68.0826 138.045L68.5596 138.204L68.4006 137.568ZM68.2416 143.615L67.7646 143.297V143.934L68.2416 143.615ZM68.8776 136.931L69.1957 137.568L69.6727 136.931H68.8776ZM70.3087 137.886L70.6267 138.523L71.1038 137.886H70.3087ZM66.6516 136.136L66.3335 136.613L66.8106 136.931L66.6516 136.136ZM67.2876 134.544L66.8106 134.226L66.6516 135.022L67.2876 134.544ZM75.7149 143.297V144.093L76.351 143.775L75.7149 143.297ZM78.5771 144.729L78.1001 144.889L78.4181 145.366L78.5771 144.729ZM77.305 143.456L76.828 143.615L77.146 144.093L77.305 143.456ZM87.9585 148.231L87.4815 148.39L87.7995 148.867L87.9585 148.231ZM85.7324 147.117L85.0964 147.276L85.5734 147.753L85.7324 147.117ZM78.2591 148.39L77.9411 147.753L77.464 148.39H78.2591ZM87.1634 156.188L86.8454 155.711L86.3684 156.188H87.1634ZM77.305 146.639L76.987 146.162L76.669 146.639H77.305ZM81.4392 145.843V146.48L82.2342 146.162L81.4392 145.843ZM84.1423 146.321V147.117L84.7783 146.798L84.1423 146.321ZM86.8454 147.753L86.3684 147.912L86.6864 148.549L86.8454 147.753ZM84.7783 151.095L84.4603 150.618L84.1423 151.095H84.7783ZM77.782 150.936V151.573L78.5771 151.254L77.782 150.936ZM80.9622 149.186L80.3262 149.345L80.8032 149.822L80.9622 149.186ZM86.3684 150.459L86.0504 149.981L85.7324 150.459H86.3684Z" fill="#A84D3B"/>
<path d="M105.449 91.4159C105.449 91.4159 110.06 98.8958 110.855 102.397C111.492 104.947 111.813 107.566 111.81 110.195C111.81 116.879 111.333 126.269 110.537 131.521C108.947 140.592 104.654 146.003 99.566 147.595C94.4778 149.186 85.2554 145.844 79.0541 142.661C73.8069 139.956 70.7858 137.091 69.9908 133.749C69.1957 130.248 67.6057 125.792 67.6057 125.792L67.9237 115.447L80.1672 89.347L105.449 91.4159Z" fill="#EA9D7D"/>
<path d="M73.9658 120.221C73.9658 120.221 83.1882 109.877 89.0715 107.649C100.361 103.034 111.332 103.511 111.332 103.511L109.583 97.9408L77.464 93.6439L70.4677 113.696L73.9658 120.221Z" fill="url(#paint1_linear_1608_3461)"/>
<path d="M64.2663 133.112C68.9206 133.112 72.6937 129.051 72.6937 124.041C72.6937 119.031 68.9206 114.97 64.2663 114.97C59.612 114.97 55.8389 119.031 55.8389 124.041C55.8389 129.051 59.612 133.112 64.2663 133.112Z" fill="#EA9D7D"/>
<path d="M64.2661 133.749C59.1779 133.749 55.0437 129.293 55.0437 124.041C55.0437 118.63 59.1779 114.333 64.2661 114.333C69.3543 114.333 73.4885 118.789 73.4885 124.041C73.4885 129.293 69.3543 133.749 64.2661 133.749ZM64.2661 115.606C59.9729 115.606 56.4748 119.426 56.4748 124.041C56.4748 128.656 59.9729 132.476 64.2661 132.476C68.5593 132.476 72.0574 128.656 72.0574 124.041C72.0574 119.267 68.5593 115.606 64.2661 115.606Z" fill="#B76349"/>
<path d="M64.5838 128.02C66.6914 128.02 68.4 126.238 68.4 124.041C68.4 121.844 66.6914 120.062 64.5838 120.062C62.4762 120.062 60.7676 121.844 60.7676 124.041C60.7676 126.238 62.4762 128.02 64.5838 128.02Z" fill="url(#paint2_linear_1608_3461)"/>
<path d="M73.4886 118.312L70.7855 120.699L69.6724 129.611L70.1494 132.158C70.1494 132.158 73.9656 130.089 74.2836 125.951C74.6016 121.813 73.4886 118.312 73.4886 118.312Z" fill="#EA9D7D"/>
<path d="M94.318 148.231C92.5689 148.231 91.1378 147.913 87.9577 147.117C82.0852 145.39 76.6591 142.403 72.057 138.364C68.5588 134.863 68.8769 131.521 68.8769 131.362C68.8769 131.043 68.8769 130.566 69.1949 130.566C69.5129 130.566 69.6719 130.884 69.8309 131.203C69.9899 131.839 69.9899 134.545 72.852 137.409C77.2776 141.283 82.4834 144.16 88.1167 145.844C93.0459 146.958 94 147.276 97.6571 146.958C101.155 146.64 103.222 145.207 103.222 145.207C103.699 144.889 104.176 144.73 103.858 145.207C103.54 145.526 100.996 147.595 97.8162 148.072C96.3851 148.231 95.431 148.231 94.318 148.231Z" fill="#B76349"/>
<path d="M94.9544 124.2L96.0675 123.245L94.6364 122.768L94.9544 124.2ZM80.9618 123.564L80.6438 122.768L79.8488 123.564H80.9618ZM99.4066 125.155L100.997 126.11L101.156 124.2L99.4066 125.155ZM95.2724 117.039L97.3395 118.312L97.6575 115.765L95.2724 117.039Z" fill="#F4B9A6"/>
<path d="M95.2725 115.766L97.3395 114.492L95.2725 112.901V115.766ZM100.043 129.93L102.11 128.657L100.043 127.224V129.93ZM102.11 127.383L102.905 125.155H100.202L102.11 127.383ZM94.4774 122.768L93.2054 123.086L94.0004 124.2L94.4774 122.768ZM95.4315 121.017L94.0004 121.336L94.9544 122.45L95.4315 121.017ZM95.1134 127.861L95.5905 129.134L96.7035 128.02L95.1134 127.861ZM95.7495 130.248L96.8625 130.885L97.1805 129.611L95.7495 130.248ZM102.269 134.068L100.997 134.545L101.951 135.659L102.269 134.068ZM97.0215 106.853L96.5445 107.967L97.9756 107.808L97.0215 106.853ZM98.2936 114.811L97.1805 114.652L97.6576 115.766L98.2936 114.811ZM99.4066 110.832L98.2936 110.673L98.6116 111.787L99.4066 110.832ZM90.1842 113.06L90.0252 114.492L91.4563 113.856L90.1842 113.06ZM93.2054 110.832L92.0923 111.628L93.3644 112.424L93.2054 110.832ZM87.9581 112.742H87.1631L87.6401 113.538L87.9581 112.742ZM100.043 134.227L98.9296 134.545L99.7247 135.341L100.043 134.227ZM98.7706 133.431L97.6576 133.749L98.4526 134.704L98.7706 133.431ZM89.2302 126.428L88.1171 126.588L88.7532 127.702L89.2302 126.428ZM91.9333 128.497L90.8203 128.816L91.4563 129.771L91.9333 128.497ZM88.2762 122.927L88.1171 123.882L89.3892 123.564L88.2762 122.927ZM94.0004 121.654L93.5234 120.699L92.7283 121.654H94.0004ZM105.608 130.885L106.244 130.248L105.131 130.089L105.608 130.885ZM101.156 127.702L101.792 127.861V127.065L101.156 127.702ZM108.311 120.381V121.017L108.947 120.699L108.311 120.381ZM104.972 123.882L105.767 124.041L105.449 123.246L104.972 123.882Z" fill="#F4B9A6"/>
<path d="M108.628 121.495L108.787 120.859L107.992 121.018L108.628 121.495ZM85.4133 115.448L84.9363 116.244H85.8903L85.4133 115.448ZM95.7488 110.355L97.1798 110.037L96.0668 108.923L95.7488 110.355ZM97.1798 126.747L100.042 125.952L97.6568 123.564L97.1798 126.747ZM94.9537 115.925L93.8407 115.766L93.9997 116.88L94.9537 115.925ZM86.6854 123.564V122.609L85.4133 123.087L86.6854 123.564ZM93.0457 112.742L93.2046 114.175L94.4767 113.22L93.0457 112.742ZM91.2966 115.13L91.4556 116.403L92.7276 115.766L91.2966 115.13ZM92.7276 114.175L92.8866 115.607L94.1587 114.811L92.7276 114.175ZM104.653 112.742L105.766 113.22V111.947L104.653 112.742ZM95.1127 119.586L94.4767 118.79L93.6817 119.904L95.1127 119.586ZM100.519 132.795L99.4059 133.113L100.201 134.068L100.519 132.795ZM95.5898 125.952L95.2717 126.747H96.3848L95.5898 125.952ZM96.7028 131.522L96.2258 130.726L95.7488 131.681L96.7028 131.522ZM98.2929 132.317L98.9289 131.681L97.9749 131.363L98.2929 132.317ZM98.7699 130.248L99.5649 129.612L98.4519 129.134L98.7699 130.248Z" fill="#F4B9A6"/>
<path d="M98.6118 129.134L99.5658 128.338L98.2938 127.861L98.6118 129.134ZM97.9758 124.2L98.7708 123.564L97.6578 123.086L97.9758 124.2ZM95.7497 124.678L96.5447 125.155L96.8627 124.36L95.7497 124.678ZM105.29 132.158L104.336 132.317L104.972 133.113L105.29 132.158ZM100.202 123.245L99.8839 124.041L100.997 123.882L100.202 123.245ZM102.746 132.953L102.11 132.158L101.633 133.113L102.746 132.953ZM97.1807 136.136L97.3398 137.25L98.2938 136.455L97.1807 136.136ZM94.3186 131.044L93.5236 131.362L94.3186 131.999V131.044ZM84.4602 120.381L83.8242 119.585L83.3472 120.699L84.4602 120.381ZM95.1137 133.272L95.7497 133.59L95.9087 132.635L95.1137 133.272ZM92.2516 131.68L92.8876 131.999L93.0466 130.885L92.2516 131.68ZM87.1633 132.794L86.8453 133.749L87.9584 133.59L87.1633 132.794ZM90.6615 136.296H89.7074L90.0254 137.25L90.6615 136.296ZM87.3223 137.569L86.5273 137.41L86.6863 138.364L87.3223 137.569ZM96.3857 122.609L98.2938 122.131L96.7037 120.54L96.3857 122.609ZM94.9547 118.153L95.4317 118.949L96.0677 118.153H94.9547ZM95.1137 119.903L96.0677 121.336L97.3398 119.585L95.1137 119.903ZM100.52 116.72L99.2478 117.834L101.156 118.471L100.52 116.72ZM88.7534 119.903V118.949L87.7994 119.426L88.7534 119.903ZM98.7708 119.108L98.1348 119.744L99.0888 120.063L98.7708 119.108ZM95.1137 113.538L96.2267 113.378L95.4317 112.423L95.1137 113.538ZM102.269 116.084L103.382 115.766L102.428 114.811L102.269 116.084ZM94.4776 116.084L95.7497 115.766L94.7956 114.97L94.4776 116.084ZM102.428 110.832L103.541 110.514L102.746 109.559L102.428 110.832ZM98.6118 108.286L97.8168 108.922L98.9298 109.241L98.6118 108.286ZM89.8665 111.628V110.673L88.9124 111.15L89.8665 111.628ZM91.1385 125.633L90.9795 126.906L92.4105 126.428L91.1385 125.633ZM89.3894 125.155L88.2764 125.314L88.9124 126.269L89.3894 125.155ZM91.7745 129.93L91.6155 131.203L92.8876 130.725L91.7745 129.93ZM93.3646 125.314V126.588L94.7956 125.792L93.3646 125.314ZM92.2516 127.702L92.4105 128.975L93.6826 128.179L92.2516 127.702ZM90.8205 124.2V123.245L89.8665 123.723L90.8205 124.2Z" fill="#F4B9A6"/>
<path d="M104.972 116.561L106.085 116.243L105.131 115.288L104.972 116.561ZM100.837 112.901L101.315 113.538L101.951 112.742L100.837 112.901ZM109.106 125.633L110.06 125.155L109.265 124.519L109.106 125.633ZM91.9331 111.469V110.514L90.9791 110.991L91.9331 111.469ZM98.6114 113.378V114.493L99.8834 114.174L98.6114 113.378ZM97.3393 111.31L97.1803 112.424L98.4524 111.946L97.3393 111.31ZM98.1344 121.972L100.042 123.246L100.678 120.858L98.1344 121.972ZM102.746 121.972L104.813 121.336L103.382 119.426L102.746 121.972ZM97.6574 123.086L98.2934 123.246L98.1344 122.45L97.6574 123.086ZM96.7033 118.63L96.3853 119.426H97.4983L96.7033 118.63ZM98.6114 116.243L97.4983 116.402L98.1344 117.357L98.6114 116.243ZM102.11 116.721L100.997 116.88L101.633 117.835L102.11 116.721Z" fill="#F4B9A6"/>
<path d="M97.8159 118.312L100.201 117.039L97.6569 115.447L97.8159 118.312ZM101.314 109.241L101.95 107.967H100.36L101.314 109.241ZM99.565 127.383L100.042 126.269H98.611L99.565 127.383ZM97.4979 121.336L99.565 120.222L97.3389 118.789L97.4979 121.336ZM98.77 111.946L99.565 112.583L99.883 111.628L98.77 111.946ZM101.314 113.697L100.201 115.447L102.586 115.607L101.314 113.697ZM102.904 111.469L102.427 112.105L103.54 112.264L102.904 111.469ZM104.017 118.312L104.653 118.949L104.971 117.994L104.017 118.312ZM100.996 110.514L100.519 111.15L101.632 111.31L100.996 110.514ZM86.8445 119.903L85.7314 120.222L86.6855 121.177L86.8445 119.903ZM88.4345 115.129L87.9575 116.084H89.2296L88.4345 115.129ZM90.8196 115.129L90.6607 114.174L89.8656 114.97L90.8196 115.129ZM89.5476 120.222L89.3886 119.267L88.4345 120.063L89.5476 120.222Z" fill="#F4B9A6"/>
<path d="M94 100.806L93.841 101.601H94.477L94 100.806ZM94.318 102.875L93.841 102.238L93.682 103.034L94.318 102.875ZM100.519 101.761L100.042 101.283L99.7242 101.92L100.519 101.761ZM105.925 100.328L106.403 100.806L106.721 100.01L105.925 100.328ZM108.788 99.5326L109.265 100.01L109.424 99.2143L108.788 99.5326ZM107.834 100.487L108.47 100.328L107.993 99.6917L107.834 100.487ZM95.908 101.761L95.431 101.283L95.113 101.92L95.908 101.761ZM103.381 101.283L102.745 100.806L102.586 101.601L103.381 101.283ZM93.0459 102.079L92.5689 101.442L92.2509 102.238L93.0459 102.079ZM78.2583 95.2356V96.9862L79.8484 96.0313L78.2583 95.2356ZM88.1167 99.5326L87.7987 100.328L88.7527 100.169L88.1167 99.5326ZM81.5974 97.1453V97.9411L82.3925 97.6228L81.5974 97.1453ZM81.2794 100.169L81.1204 100.965L82.0745 100.647L81.2794 100.169ZM82.0745 101.92L82.2335 102.875L83.0285 102.238L82.0745 101.92ZM89.7068 100.647L89.0708 100.169L88.7527 100.806L89.7068 100.647ZM90.1838 100.01L90.3428 101.124L91.4559 100.328L90.1838 100.01Z" fill="#A84D3B"/>
<path d="M98.6108 100.965L99.0879 101.602L99.7239 100.806L98.6108 100.965ZM92.7276 100.647L93.2046 101.442L93.8406 100.647H92.7276ZM83.8232 99.0553L84.1412 100.328L85.2542 99.3736L83.8232 99.0553ZM100.996 100.806L101.473 101.602L102.109 100.647L100.996 100.806ZM96.0667 100.806L96.3847 101.92L97.4978 101.124L96.0667 100.806ZM86.2083 100.01L86.5263 100.647L87.1623 100.169L86.2083 100.01ZM83.3462 102.875L83.1871 103.671L83.9822 103.352L83.3462 102.875ZM82.5511 103.511L82.3921 104.148L83.1871 103.989L82.5511 103.511ZM88.1164 100.488L88.4344 100.806L88.5934 100.488H88.1164ZM91.6145 100.965L91.9325 101.283L92.2506 100.806L91.6145 100.965ZM97.6568 101.442L97.8158 101.761L98.1338 101.442H97.6568ZM81.7561 103.989L81.2791 104.148L81.5971 104.466L81.7561 103.989ZM82.2331 97.4638L82.3921 98.5778L83.6642 97.9412L82.2331 97.4638ZM82.0741 103.193L81.4381 103.352L81.9151 103.83L82.0741 103.193Z" fill="#A84D3B"/>
<path d="M81.5976 103.352L81.4386 102.556L80.6435 103.193L81.5976 103.352ZM82.3926 98.5774L83.0286 98.8957V98.0999L82.3926 98.5774ZM87.0038 99.8505L87.6398 100.01L87.4808 99.214L87.0038 99.8505ZM80.8025 97.9408V98.4182L81.4386 98.2591L80.8025 97.9408ZM82.2336 99.8505L82.8696 100.01L82.7106 99.214L82.2336 99.8505ZM82.0746 105.58V106.057L82.5516 105.898L82.0746 105.58ZM80.6435 99.5323L80.0075 99.6914L80.4845 100.169L80.6435 99.5323ZM80.8025 103.988V105.102L81.9156 104.466L80.8025 103.988Z" fill="#A84D3B"/>
<path d="M81.1209 105.739L81.7569 105.262L80.9619 104.943L81.1209 105.739ZM81.1209 99.5324L81.5979 99.0549L80.9619 98.8958L81.1209 99.5324ZM80.1668 101.283L80.8028 100.806L79.8488 100.328L80.1668 101.283ZM83.824 100.806L84.301 101.124L84.46 100.487L83.824 100.806ZM81.1209 107.49L81.7569 107.171L81.1209 106.694V107.49ZM79.3718 110.991L80.0078 110.673L79.3718 110.195V110.991ZM80.3258 96.1903L80.4848 97.4634L81.5979 97.1452L80.3258 96.1903ZM78.8948 98.8958L79.3718 99.3732L79.6898 98.5775L78.8948 98.8958ZM85.255 98.5775L85.573 100.01L86.8451 99.2141L85.255 98.5775ZM79.3718 97.9409L79.8488 98.4183L80.1668 97.7817L79.3718 97.9409ZM89.2302 101.601L90.0252 101.92L89.8662 101.124L89.2302 101.601ZM104.336 101.124L104.972 101.442V100.646L104.336 101.124ZM80.6439 102.715L81.7569 102.238L80.6439 101.283V102.715ZM79.6898 96.1903L79.0538 97.3043L80.3258 97.4634L79.6898 96.1903Z" fill="#A84D3B"/>
<path d="M82.8693 101.125L82.2333 100.965L82.3923 101.602L82.8693 101.125ZM79.0532 97.305L78.4171 97.6233L79.0532 98.1007V97.305ZM84.7774 98.5782L84.6184 99.2148L85.2544 99.0556L84.7774 98.5782ZM80.6432 99.2148L79.5302 98.7373V100.011L80.6432 99.2148Z" fill="#A84D3B"/>
<path d="M81.4389 97.4638H80.8028L81.1209 98.1004L81.4389 97.4638ZM79.0538 97.9412L78.8948 98.4187L79.5308 98.2595L79.0538 97.9412ZM84.301 98.5778L83.506 97.9412L83.3469 99.0553L84.301 98.5778Z" fill="#A84D3B"/>
<path d="M68.2406 124.836V124.2L67.6046 124.359L68.2406 124.836ZM65.5375 120.221L64.7424 120.38L65.2195 121.017L65.5375 120.221Z" fill="#964C38"/>
<path d="M65.3783 120.38L64.5833 121.335L65.8554 121.653L65.3783 120.38ZM63.9473 120.221L62.9932 120.539L63.7883 121.335L63.9473 120.221ZM68.0815 122.449L67.6045 122.927L68.2405 123.086L68.0815 122.449ZM66.6504 121.813L66.1734 122.29L66.8094 122.449L66.6504 121.813Z" fill="#964C38"/>
<path d="M67.6048 122.927L67.2868 123.404L67.9228 123.563L67.6048 122.927ZM64.1066 121.495L63.6296 121.972L64.2657 122.131L64.1066 121.495Z" fill="#964C38"/>
<path d="M63.3117 121.176L62.6757 121.813L63.7887 122.29L63.3117 121.176ZM65.8558 124.041L66.3328 124.2L66.4918 123.723L65.8558 124.041ZM67.7638 121.972L67.6048 122.29H68.0818L67.7638 121.972ZM68.0818 123.564L67.9229 123.882H68.3999L68.0818 123.564Z" fill="#964C38"/>
<path d="M62.3577 120.858L61.7217 121.494L62.6757 121.812L62.3577 120.858ZM63.6298 123.404H63.3118L63.4708 123.722L63.6298 123.404ZM64.5838 124.677L64.4249 124.359L64.1068 124.518L64.5838 124.677ZM65.6969 120.858L66.1739 120.38L65.5379 120.221L65.6969 120.858ZM63.9478 120.858L63.4708 121.176L64.1068 121.335L63.9478 120.858ZM63.1528 121.176L62.6757 121.017V121.653L63.1528 121.176Z" fill="#964C38"/>
<path d="M63.1527 121.176V120.699L62.6757 120.858L63.1527 121.176ZM66.9688 121.972L67.2868 122.45L67.6049 121.813L66.9688 121.972ZM66.3328 120.54L66.1738 121.654L67.2868 121.336L66.3328 120.54Z" fill="#964C38"/>
<path d="M65.856 121.176L66.333 121.654L66.492 121.017L65.856 121.176ZM62.0399 122.768L61.7219 123.245H62.1989L62.0399 122.768ZM64.902 120.221L64.425 120.062V120.54L64.902 120.221ZM63.9479 123.086L64.2659 123.404L64.5839 122.927L63.9479 123.086ZM65.22 124.996L64.902 125.473L65.538 125.632L65.22 124.996ZM61.8809 121.654L61.5629 122.131H62.1989L61.8809 121.654Z" fill="#964C38"/>
<path d="M63.3119 124.995L62.8349 124.836L62.9939 125.473L63.3119 124.995ZM61.5629 122.449H62.0399L61.7219 121.972L61.5629 122.449Z" fill="#964C38"/>
<path d="M61.0855 124.359L61.4035 124.2L61.2445 123.722L61.0855 124.359ZM61.4035 122.608H61.7215L61.5625 122.131L61.4035 122.608ZM62.5165 122.131V122.608L62.9936 122.29L62.5165 122.131ZM60.9265 123.563H61.5625L61.2445 122.927L60.9265 123.563ZM61.8805 123.722V124.2L62.3575 123.882L61.8805 123.722ZM65.0607 121.813L64.5836 121.972L65.0607 122.449V121.813ZM67.2867 124.2L67.4458 124.677L67.9228 124.359L67.2867 124.2ZM64.1066 120.699L64.2656 121.176L64.7426 120.858L64.1066 120.699ZM65.6967 122.449L65.3787 121.972L65.2197 122.608L65.6967 122.449Z" fill="#964C38"/>
<path d="M86.2093 111.946C86.0503 111.946 85.7322 111.946 85.5732 111.786C85.0962 111.468 84.9372 110.672 85.2552 110.195C85.4142 110.036 87.9584 106.216 93.6826 106.694C94.3186 106.694 94.7956 107.33 94.7956 107.967C94.7956 108.604 94.1596 109.081 93.5236 109.081C89.2304 108.763 87.3223 111.468 87.3223 111.627C86.8453 111.787 86.5273 111.946 86.2093 111.946ZM109.742 108.604C109.583 108.604 109.265 108.604 109.106 108.444C107.834 107.49 105.926 108.126 105.767 108.126C105.131 108.285 104.495 107.967 104.336 107.33C104.177 106.694 104.495 106.057 105.131 105.898C105.29 105.898 108.152 104.943 110.378 106.535C110.855 106.853 111.014 107.649 110.696 108.126C110.378 108.444 110.06 108.604 109.742 108.604Z" fill="#AF361A"/>
<path d="M91.9336 120.381C93.163 120.381 94.1597 119.383 94.1597 118.153C94.1597 116.922 93.163 115.925 91.9336 115.925C90.7042 115.925 89.7075 116.922 89.7075 118.153C89.7075 119.383 90.7042 120.381 91.9336 120.381Z" fill="#4F2B23"/>
<path d="M108.47 119.267C109.7 119.267 110.696 118.269 110.696 117.039C110.696 115.808 109.7 114.811 108.47 114.811C107.241 114.811 106.244 115.808 106.244 117.039C106.244 118.269 107.241 119.267 108.47 119.267Z" fill="#4F2B23"/>
<path d="M101.156 131.68C100.679 131.68 100.202 131.362 100.043 130.725C99.8842 130.088 100.361 129.452 100.997 129.452C100.997 129.452 102.746 129.133 102.905 127.701C103.064 126.269 101.633 122.29 100.838 120.221C100.52 119.585 100.838 118.948 101.474 118.789C102.11 118.471 102.746 118.789 102.905 119.426C103.223 120.062 105.29 125.473 105.131 128.019C104.972 130.407 102.746 131.68 101.474 131.839C101.315 131.68 101.156 131.68 101.156 131.68Z" fill="#B4603F"/>
<path d="M95.7502 138.364C93.6651 138.344 91.6421 137.652 89.9809 136.391C88.3197 135.13 87.1088 133.366 86.5278 131.362C86.3688 130.725 86.6868 130.089 87.3229 129.929C87.9589 129.77 88.5949 130.089 88.7539 130.725C89.1992 132.238 90.1208 133.567 91.3815 134.513C92.6421 135.459 94.1744 135.973 95.7502 135.977C96.3862 135.977 96.8632 136.614 96.8632 137.091C96.8632 137.887 96.3862 138.364 95.7502 138.364Z" fill="#CF7653"/>
<path d="M93.3642 131.202C88.912 131.202 85.4139 126.428 85.4139 120.699C85.4139 114.969 89.071 110.195 93.3642 110.195C97.6574 110.195 101.315 114.969 101.315 120.699C101.315 126.428 97.6574 131.202 93.3642 131.202ZM93.3642 111.786C89.8661 111.786 87.0039 115.765 87.0039 120.699C87.0039 125.632 89.8661 129.611 93.3642 129.611C96.8624 129.611 99.7245 125.632 99.7245 120.699C99.7245 115.765 96.8624 111.786 93.3642 111.786Z" fill="white"/>
<path d="M100.837 118.47L99.4064 117.674C99.4064 117.674 100.36 116.083 101.951 116.083C103.541 116.083 104.654 116.879 104.654 117.038L103.7 118.311C103.7 118.311 102.905 117.674 101.951 117.674C101.314 117.515 100.837 118.47 100.837 118.47ZM73.9017 118.056L74.172 116.465L86.0975 118.534L85.8272 120.125L73.9017 118.056Z" fill="white"/>
<path d="M69.5137 80.7531C69.5137 80.7531 61.5633 77.5701 55.203 88.7104C48.2067 101.124 57.2701 117.516 57.2701 117.516C57.2701 117.516 59.9732 113.537 65.2205 114.333C69.5137 114.97 70.7857 117.357 72.0578 118.789C73.3298 120.062 78.418 118.948 80.1671 113.06C81.4392 108.445 81.4392 103.988 79.8491 100.806C78.259 97.6226 76.828 93.9622 79.0541 95.5537C81.2802 97.1452 85.0963 99.2141 90.9796 100.169C96.8628 101.124 108.152 102.079 113.877 97.1452C119.601 92.3708 119.919 88.233 119.76 84.8909C119.601 81.5488 117.852 79.639 117.852 79.639C117.852 79.639 114.672 81.3897 113.082 81.5488C111.491 81.7079 110.219 81.8671 110.378 79.7982C110.696 75.0238 107.993 73.4323 107.993 73.4323C107.993 73.4323 106.88 74.8646 105.608 75.6604C102.905 77.2518 101.315 77.411 98.6119 76.4561C95.1138 75.3421 91.4566 72.1591 84.3013 72C79.2131 72.1591 73.4888 74.8646 69.5137 80.7531Z" fill="#C94112"/>
<path d="M102.906 77.0925L104.496 78.3657L104.973 76.2968L103.86 76.7742L102.906 77.0925ZM87.6408 72.6364L88.2769 74.5462L89.867 73.1139L87.6408 72.6364ZM107.994 73.7505L107.04 75.0236L108.63 75.1828L107.994 73.7505ZM101.792 79.3206L100.043 80.5938L101.792 81.8669V79.3206ZM96.2272 76.9334L95.7502 77.7291L96.8632 77.8883L96.2272 76.9334ZM82.7117 73.273L82.0756 74.387L83.5067 74.7053L82.7117 73.273ZM84.1427 74.5462L83.6657 75.8194L84.9377 75.9785L84.1427 74.5462ZM81.1216 75.1828L82.5526 76.7742L83.8247 74.7053L81.1216 75.1828Z" fill="#FEAA00"/>
<path d="M86.5275 75.3421L84.7784 75.5013L85.5734 77.2519L86.5275 75.3421ZM79.5312 73.9098L81.1213 75.183L81.5983 73.1141L79.5312 73.9098ZM104.177 81.5489L103.541 82.0263L104.177 82.5038V81.5489ZM98.453 78.2068L97.817 78.6842L98.612 79.1617L98.453 78.2068ZM99.884 79.9574L100.52 79.1617L99.407 78.8434L99.884 79.9574ZM107.834 80.9123L107.198 81.3897L107.993 81.708L107.834 80.9123ZM105.767 79.0025L104.972 78.2068L104.495 79.48L105.767 79.0025ZM109.106 76.297L108.311 75.5013L107.834 76.9336L109.106 76.297Z" fill="#FEAA00"/>
<path d="M100.043 80.7526L99.0888 79.9569L98.6118 81.3892L100.043 80.7526ZM103.7 80.2752L102.905 79.4794L102.428 80.9118L103.7 80.2752ZM100.043 78.6837L99.2478 77.888L98.7708 79.1611L100.043 78.6837ZM98.6118 78.0471L99.2478 76.9331L97.8168 76.774L98.6118 78.0471ZM94.4776 75.5008L93.5236 74.5459L93.0465 75.9782L94.4776 75.5008ZM96.5447 76.6148L95.5906 75.8191L95.2726 77.0922L96.5447 76.6148ZM86.6863 73.4319L85.5732 72.477L85.0962 74.0685L86.6863 73.4319ZM83.8241 74.3868L84.9372 73.2727L83.3471 72.6361L83.8241 74.3868ZM90.9795 73.9093L90.1844 73.1136L89.7074 74.5459L90.9795 73.9093ZM86.2092 73.7502L87.3223 75.0233L88.2763 73.2727L86.2092 73.7502Z" fill="#FEAA00"/>
<path d="M85.0959 74.228L86.05 75.6603L87.004 73.7505L85.0959 74.228ZM86.368 75.1829L86.686 76.7743L88.2761 75.6603L86.368 75.1829ZM106.403 77.0926L106.244 75.6603L104.972 76.456L106.403 77.0926ZM99.2476 77.2518L99.8836 78.8432L101.156 77.57L99.2476 77.2518ZM96.3854 75.9786L96.8625 77.7292L98.1345 76.6152L96.3854 75.9786ZM94.3183 74.8646L94.6364 76.6152L96.0674 75.6603L94.3183 74.8646ZM80.8027 72.4774L81.9158 73.7505L82.8698 72.3182L80.8027 72.4774ZM87.481 72.6365L86.368 72.3182L86.527 73.4322L87.481 72.6365Z" fill="#FEAA00"/>
<path d="M83.984 72.6365L82.8709 72.3182L83.0299 73.5914L83.984 72.6365ZM81.1219 72.9548H80.0088L80.6448 74.0688L81.1219 72.9548ZM102.747 85.3682L102.27 85.8457L102.906 86.164L102.747 85.3682ZM106.086 83.4585L105.609 83.1402L105.45 83.7768L106.086 83.4585ZM104.973 80.753L105.291 81.5487L105.768 80.9121L104.973 80.753ZM97.3405 77.5701L97.6586 78.3658L98.1356 77.5701H97.3405ZM103.542 83.1402L103.065 83.6176L103.701 83.7768L103.542 83.1402ZM86.5281 83.2993L86.0511 83.7768L86.6871 83.9359L86.5281 83.2993ZM103.383 77.5701L102.27 78.5249L103.701 79.3207L103.383 77.5701ZM101.952 84.5725L101.316 84.2542V84.8908L101.952 84.5725ZM102.429 82.981L102.906 83.1402L102.747 82.5036L102.429 82.981ZM98.1356 82.8219L99.0896 82.981L98.7716 81.867L98.1356 82.8219Z" fill="#FEAA00"/>
<path d="M102.27 78.5246L102.747 77.2514L101.157 77.4105L102.27 78.5246ZM97.5 83.6173V84.2539L98.136 84.0947L97.5 83.6173ZM100.998 79.4795L101.634 78.5246L100.362 78.2063L100.998 79.4795ZM92.0937 75.3416L92.7298 74.3868L91.2987 73.9093L92.0937 75.3416ZM85.0975 73.591L85.7335 72.6361L84.3024 72.477L85.0975 73.591ZM104.178 85.527V86.1636L104.814 86.0045L104.178 85.527ZM100.521 85.527L99.7261 85.6862L100.203 86.1636L100.521 85.527ZM89.0726 86.6411L88.2776 86.8002L88.7546 87.4368L89.0726 86.6411ZM98.613 86.9593H97.977L98.295 87.5959L98.613 86.9593ZM106.563 79.3203L107.04 80.116L107.517 79.1612L106.563 79.3203ZM95.7509 86.0045L96.2279 85.2087H95.2739L95.7509 86.0045ZM90.9807 73.7502L89.5496 73.9093L90.3447 75.3416L90.9807 73.7502ZM98.613 80.2752L99.249 79.002H97.659L98.613 80.2752ZM89.0726 80.9118L87.8006 81.7075L89.0726 82.5032V80.9118ZM93.6838 82.9807L92.5708 83.6173L93.6838 84.2539V82.9807ZM89.3906 83.9356L89.7086 84.413L90.0267 83.7764L89.3906 83.9356Z" fill="#FEAA00"/>
<path d="M86.6865 79.9573L86.3684 80.4347H87.0045L86.6865 79.9573ZM91.9337 84.5726L91.4567 84.4134V84.8908L91.9337 84.5726ZM90.1846 82.0262L89.7076 82.8219L90.8206 82.9811L90.1846 82.0262ZM94.1598 87.9146L93.6828 87.7555L93.8418 88.3921L94.1598 87.9146ZM85.5734 76.9335L85.2554 78.525L87.0045 77.8884L85.5734 76.9335ZM84.1423 83.2994L84.4603 84.5726L85.5734 83.6177L84.1423 83.2994ZM93.0467 74.8646L91.1386 75.8195L92.7287 77.2518L93.3648 76.2969L93.0467 74.8646ZM91.4567 76.9335L90.1846 77.5701L91.2977 78.6841L91.7747 77.7292L91.4567 76.9335Z" fill="#FEAA00"/>
<path d="M91.6162 79.0029L90.5031 78.3663L89.5491 78.5254L89.8671 80.7535L91.6162 79.0029ZM83.3479 83.2998L81.9168 84.0956L83.5069 84.8913L83.3479 83.2998ZM92.0932 76.1382L89.5491 75.8199L90.5031 77.8888L92.0932 76.1382ZM89.8671 74.7059L88.9131 74.3876L87.8 74.7059L88.7541 76.2974L89.8671 74.7059ZM97.9764 78.3663L95.9094 77.8888L96.2274 80.1169L97.9764 78.3663Z" fill="#FEAA00"/>
<path d="M98.7713 79.7984L96.7043 79.3209L97.0223 81.5489L98.7713 79.7984Z" fill="#FEAA00"/>
<path d="M97.6575 81.8674L96.8625 80.5942L95.9084 82.0265L97.6575 81.8674ZM88.5941 78.6845L87.4811 77.093L86.527 77.8887L86.209 78.8436L88.5941 78.6845ZM86.8451 79.9576L85.414 79.1619L85.096 81.0717L86.8451 79.9576ZM85.255 77.7296L84.1419 76.1381L82.8699 78.0479L85.255 77.7296ZM94.9544 82.504L95.5904 81.0717L93.6823 80.9125L94.9544 82.504ZM91.6152 82.6631L93.0463 82.0265L91.9333 80.7534L91.6152 82.6631ZM105.131 78.0479L106.244 77.7296L105.29 76.7747L105.131 78.0479ZM82.5519 83.1406L83.9829 82.6631L82.8699 81.39L82.5519 83.1406Z" fill="#FEAA00"/>
<path d="M76.3516 82.8216L77.4647 82.3441L76.6696 81.3892L76.3516 82.8216ZM106.404 75.5008L107.199 76.2965L107.676 75.0234L106.404 75.5008ZM91.1392 81.7075L90.8212 80.2752L89.3902 81.2301L91.1392 81.7075ZM90.9803 77.0923L88.9132 76.4557L89.2312 78.6837L90.9803 77.0923ZM95.7505 77.4106L93.6834 76.9331L94.0014 79.1612L95.7505 77.4106ZM95.2734 79.7978L93.3654 79.3203L93.5243 81.5484L95.2734 79.7978ZM92.8883 79.4795L91.7753 80.1161L92.7293 81.0709L92.8883 79.4795ZM88.2771 83.9356L87.8001 83.4581L87.6411 84.0947L88.2771 83.9356Z" fill="#FEAA00"/>
<path d="M87.3224 82.0262L86.5273 81.0713L86.0503 82.5036L87.3224 82.0262ZM90.9795 80.2755L91.2975 81.0713L91.9336 80.2755H90.9795ZM93.8417 76.2969L93.6826 77.0926L94.4777 76.7743L93.8417 76.2969ZM96.0677 80.4347L95.5907 79.1615L94.4777 80.2755L96.0677 80.4347ZM90.0255 79.3207L88.7534 78.8432V80.4347L90.0255 79.3207Z" fill="#FEAA00"/>
<path d="M88.7535 79.48L87.4815 78.8434V80.4348L88.7535 79.48ZM85.8914 78.0476L84.7783 77.5702V79.0025L85.8914 78.0476ZM95.2728 78.8434L95.1138 78.3659L94.4777 78.8434H95.2728ZM97.0219 84.891V85.6867L97.8169 85.3684L97.0219 84.891ZM94.4777 86.005H93.8417L94.1597 86.6416L94.4777 86.005ZM95.2728 83.6178V84.2544L96.0678 83.9361L95.2728 83.6178ZM93.3647 80.594L93.5237 79.7983L92.5697 79.9574L93.3647 80.594ZM93.6827 77.5702L92.2517 77.8885L92.0926 78.5251L93.6827 79.6391V77.5702ZM93.0467 77.0927L92.5697 77.5702H93.2057L93.0467 77.0927ZM94.3187 80.594L94.0007 81.0714H94.7958L94.3187 80.594ZM91.6156 83.1403L91.2976 83.7769H91.9336L91.6156 83.1403ZM96.0678 77.7293L95.7498 77.411L95.4318 78.0476L96.0678 77.7293ZM101.315 82.6629L101.474 81.8672L100.679 82.0263L101.315 82.6629ZM99.8839 84.4135L100.043 83.7769H99.2479L99.8839 84.4135ZM84.7783 86.6416L84.9374 85.8458L84.1423 86.005L84.7783 86.6416ZM99.4069 80.9123L99.5659 81.8672L100.52 81.2306L99.4069 80.9123Z" fill="#FEAA00"/>
<path d="M86.8463 76.7743L87.8003 77.8884L88.4363 76.2969L86.8463 76.7743ZM94.3196 78.5249L94.4786 79.3207L95.2736 78.8432L94.3196 78.5249ZM100.044 82.8219L99.7258 82.3445L99.4078 82.9811L100.044 82.8219ZM83.5071 87.5963L83.0301 87.1189L82.7121 87.7555L83.5071 87.5963ZM94.3196 82.5036L93.6836 82.6628L94.3196 83.1402V82.5036ZM93.3656 81.867L93.2066 81.2304L92.7295 81.7079L93.3656 81.867ZM58.543 84.2542L60.7692 85.05L60.6101 82.3445L58.543 84.2542ZM81.9171 84.5725L81.122 84.7317L81.599 85.3683L81.9171 84.5725ZM76.6698 79.639L74.9208 79.9573L76.1928 81.5487L76.6698 79.639ZM72.0586 84.0951L71.5816 83.4585L71.1046 84.0951H72.0586ZM78.1009 85.2091L77.6239 84.2542L76.8288 85.05L78.1009 85.2091ZM64.9033 83.4585V85.05L66.6524 84.4134L64.9033 83.4585ZM79.373 76.9335V78.5249L80.963 77.8884L79.373 76.9335ZM82.2351 76.7743L82.0761 77.7292L83.1891 77.2518L82.2351 76.7743ZM81.9171 78.6841V79.639L82.8711 79.3207L81.9171 78.6841ZM54.8859 89.6652L53.9319 92.0524L56.1579 91.8933L54.8859 89.6652ZM53.7728 92.2116L53.2958 94.2805L55.2039 93.3256L53.7728 92.2116ZM58.225 95.2353V96.1902L59.1791 95.8719L58.225 95.2353ZM55.9989 95.0762V95.8719L56.953 95.5536L55.9989 95.0762ZM70.4686 79.639L69.8325 80.9121H71.4226L70.4686 79.639ZM67.7655 84.5725L67.4474 83.9359L66.8114 84.5725H67.7655ZM67.2884 86.0048L66.6524 84.7317L65.6984 85.8457L67.2884 86.0048ZM78.2599 80.5938L77.6239 82.0262H79.373L78.2599 80.5938ZM74.6028 84.4134V85.2091L75.3978 84.8908L74.6028 84.4134Z" fill="#FEAA00"/>
<path d="M62.3591 91.2568V91.8934L63.1541 91.7342L62.3591 91.2568ZM61.7231 95.3946L60.928 95.2354L61.087 96.0312L61.7231 95.3946ZM57.5889 92.2116L57.4299 93.9623L59.0199 93.3257L57.5889 92.2116ZM55.2038 92.2116V93.9623L56.7939 93.3257L55.2038 92.2116ZM56.9529 97.3043L56.7939 98.1001L57.7479 97.7818L56.9529 97.3043ZM83.03 78.0476L82.871 80.1165L85.2561 79.3207L83.03 78.0476ZM79.5318 80.2756L81.2809 80.9122L81.1219 78.6842L79.5318 80.2756ZM76.9877 77.2518L78.5778 77.8884L78.4188 75.9787L76.9877 77.2518ZM82.0759 77.411L80.8039 77.5701L81.5989 78.8433L82.0759 77.411ZM60.133 94.5988H60.769L60.61 93.9623L60.133 94.5988ZM60.769 90.9385V91.4159L61.2461 91.0976L60.769 90.9385ZM67.6063 92.2116L67.1293 92.5299L67.6063 92.8482V92.2116ZM60.451 98.1001L59.974 98.4184L60.451 98.7367V98.1001ZM57.9069 99.8507L57.5889 100.169L58.0659 100.487L57.9069 99.8507ZM64.2672 91.7342L64.4262 92.2116L64.9032 91.7342H64.2672ZM61.405 92.6891L61.7231 93.4848L62.3591 92.6891H61.405ZM68.4014 91.4159L68.0833 91.5751L68.5604 91.8934L68.4014 91.4159ZM81.2809 81.708L80.6449 81.0714L80.3269 82.0262L81.2809 81.708ZM107.517 78.2067L108.312 78.8433L108.471 77.8884L107.517 78.2067ZM112.446 82.0262L113.4 83.4586L114.354 81.8671L113.241 82.0262H112.446ZM117.852 79.9573L116.58 80.9122L118.011 81.5488L117.852 79.9573ZM112.128 86.6415L111.333 86.8007L111.969 87.4372L112.128 86.6415ZM115.944 86.8007L115.149 87.1189L115.785 87.7555L115.944 86.8007ZM114.513 84.5726L113.877 83.4586L113.082 84.7317L114.513 84.5726ZM118.329 82.822L117.693 81.8671L116.898 82.9811L118.329 82.822ZM112.128 85.2092L111.492 84.2543L110.697 85.3683L112.128 85.2092ZM110.538 82.5037L109.902 81.3897L109.266 82.6628L110.538 82.5037ZM115.785 82.5037V81.0714L114.354 81.708L115.785 82.5037ZM113.4 88.8696L113.082 88.3921L112.764 89.0287L113.4 88.8696ZM113.241 86.0049V86.8007L114.036 86.3232L113.241 86.0049ZM111.174 87.9147L110.538 88.233L111.174 88.7104V87.9147ZM112.128 82.0262L110.538 82.1854L111.333 83.6177L112.128 82.0262Z" fill="#FEAA00"/>
<path d="M110.061 87.4373L110.538 87.7556V87.119L110.061 87.4373ZM109.902 83.9361L110.379 84.2544V83.4586L109.902 83.9361ZM114.99 85.0501L115.308 86.005L115.944 85.0501H114.99ZM114.036 83.4586L115.149 83.2995L114.513 82.1855L114.036 83.4586ZM115.785 81.2306L116.421 82.1855L117.216 81.2306H115.785ZM116.262 84.2544L116.898 85.0501L117.375 84.0952L116.262 84.2544ZM68.56 80.594L68.7191 82.0263L70.3091 81.2306L68.56 80.594ZM58.8606 88.5513L59.3376 89.3471L59.8147 88.5513H58.8606ZM57.2706 87.4373L57.9066 88.7105L58.8606 87.2782L57.2706 87.4373ZM57.7476 85.2093L58.8606 86.3233L59.3376 84.5727L57.7476 85.2093ZM75.2383 77.4111L74.9203 78.0477L75.7153 78.2068L75.2383 77.4111ZM74.2843 77.0928L73.9663 77.8885H74.7613L74.2843 77.0928ZM82.7117 80.4349L81.1216 80.1166L81.5986 81.8672L82.7117 80.4349ZM81.5986 82.5038L80.3266 82.1855L80.6446 83.7769L81.5986 82.5038ZM97.6583 82.6629L96.2272 82.3446L96.7042 83.9361L97.6583 82.6629ZM75.2383 77.0928L76.0334 75.9787L74.2843 75.6605L75.2383 77.0928Z" fill="#FEAA00"/>
<path d="M75.3972 78.8429L74.4431 77.7289L73.8071 79.3203L75.3972 78.8429ZM74.4431 77.4106L73.9661 75.9782L72.694 77.0923L74.4431 77.4106ZM73.1711 79.002L73.9661 77.7289L72.376 77.4106L73.1711 79.002ZM78.4183 76.9331L79.2133 77.0923L79.0543 76.1374L78.4183 76.9331ZM76.9872 77.0923L75.7152 76.6148L75.8742 78.0472L76.9872 77.0923ZM75.5562 75.0234L75.7152 75.9782L76.6692 75.5008L75.5562 75.0234ZM81.2804 75.1825L79.3723 75.9782L80.9624 77.5697L81.2804 75.1825ZM56.9523 96.0308V96.6674L57.7474 96.5082L56.9523 96.0308ZM58.8604 88.3917H58.2244L58.5424 89.0283L58.8604 88.3917ZM55.0443 98.0997L54.4082 98.2588L54.8853 98.7363L55.0443 98.0997ZM55.9983 97.3039L55.8393 96.6674L55.3623 97.3039H55.9983ZM55.9983 90.7789L57.4294 91.7338L57.7474 89.824L55.9983 90.7789ZM61.7225 87.9143L62.3586 88.0734V87.2777L61.7225 87.9143ZM57.4294 85.5271L56.6343 86.8002L58.3834 87.1185L57.4294 85.5271ZM59.4965 91.5746L59.3374 92.6887L60.6095 92.2112L59.4965 91.5746ZM60.9275 85.6862L59.6555 85.5271L59.9735 86.9594L60.9275 85.6862ZM62.9946 89.0283L61.5636 89.1874L62.3586 90.4606L62.9946 89.0283ZM61.0865 87.1185L59.6555 87.2777L60.6095 88.5509L61.0865 87.1185ZM64.4257 83.6173L63.1536 83.7765L63.9487 85.0496L64.4257 83.6173ZM55.0443 89.1874L57.2704 89.5057L56.4753 86.9594L55.0443 89.1874ZM53.2952 94.5984L52.8182 96.5082L55.2033 96.0308L53.2952 94.5984ZM59.9735 93.1661L59.0194 93.4844L59.8145 94.4393L59.9735 93.1661ZM55.9983 94.2802L57.1114 94.5984L56.9523 93.3253L55.9983 94.2802ZM57.9064 97.3039V97.9405L58.5424 97.6222L57.9064 97.3039ZM55.9983 98.7363L55.5213 98.8954L55.8393 99.3729L55.9983 98.7363ZM69.8319 83.9356L69.0369 84.5722L69.9909 85.0496L69.8319 83.9356ZM68.5598 82.185L67.7648 82.6624L68.7189 83.299L68.5598 82.185ZM65.3797 81.7075L64.1077 82.6624L65.6977 83.4582L65.3797 81.7075Z" fill="#FEAA00"/>
<path d="M70.7866 81.39L70.1505 81.8674L70.7866 82.3448V81.39ZM67.4474 84.2546L66.8114 84.732L67.6065 85.2095L67.4474 84.2546ZM69.1965 83.9363L69.6735 84.4137L69.9916 83.7772L69.1965 83.9363ZM58.225 89.8247L58.7021 90.9388L59.6561 89.9839L58.225 89.8247ZM63.1543 87.1192L63.4723 87.5967L63.7903 86.9601L63.1543 87.1192ZM74.6027 81.39L74.9208 81.8674L75.2388 81.2308L74.6027 81.39ZM72.3767 81.7082L72.6947 82.0265L73.0127 81.5491L72.3767 81.7082ZM71.7406 80.4351L72.3767 81.0717L72.8537 80.1168L71.7406 80.4351ZM63.4723 85.3686L63.7903 85.8461L64.1083 85.2095L63.4723 85.3686ZM68.4015 83.4589L67.7654 83.9363L68.5605 84.4137L68.4015 83.4589ZM67.1294 83.4589L67.6065 82.504H66.3344L67.1294 83.4589ZM66.0164 81.8674L66.4934 80.4351H64.7443L66.0164 81.8674ZM69.8325 83.1406L69.3555 82.8223L69.1965 83.4589L69.8325 83.1406ZM68.0835 85.0503L67.6065 85.3686L68.2425 85.6869L68.0835 85.0503ZM65.6984 84.5729L65.2213 84.0954L65.0623 84.8912L65.6984 84.5729ZM55.5219 100.328L55.9989 99.851L55.3629 99.5327L55.5219 100.328ZM53.4548 103.193L53.7728 102.875L53.2958 102.556L53.4548 103.193ZM53.9319 100.965L54.4089 100.488L53.7728 100.328L53.9319 100.965ZM53.4548 104.307L53.9319 104.785L54.0909 103.989L53.4548 104.307ZM54.2499 102.556L55.0449 102.238L54.2499 101.761V102.556Z" fill="#FEAA00"/>
<path d="M55.9983 101.919L56.6343 101.601L55.9983 101.124V101.919ZM52.9772 97.304L53.7722 98.0997L54.2492 96.9857L52.9772 97.304ZM53.6132 98.2589L52.8182 99.5321L54.7263 99.6912L53.6132 98.2589ZM52.8182 100.169V101.601L53.9312 100.964L52.8182 100.169ZM53.4542 103.352L53.1362 103.829L53.7722 103.988L53.4542 103.352ZM61.7226 85.8455L62.6766 86.6412L63.1536 85.2089L61.7226 85.8455Z" fill="#FEAA00"/>
<path d="M61.8813 81.7077L61.2453 83.14L62.8354 83.2992L61.8813 81.7077ZM62.9944 84.7315L62.6764 85.2089L63.4714 85.3681L62.9944 84.7315ZM61.8813 83.9358L61.4043 84.8906L62.6764 85.0498L61.8813 83.9358ZM67.4466 86.4821L66.3335 86.1638L66.6515 87.437L67.4466 86.4821ZM62.1993 86.4821L61.2453 86.323L61.4043 87.437L62.1993 86.4821ZM79.6901 79.4797L78.418 79.1614L78.7361 80.5937L79.6901 79.4797ZM77.464 79.0022L78.259 79.3205V78.3656L77.464 79.0022ZM77.941 73.5912L79.3721 74.8644L79.8491 72.9546L77.941 73.5912ZM76.0329 78.2065L75.8739 79.6388L77.305 79.1614L76.0329 78.2065ZM76.0329 74.7053L77.305 75.8193L77.941 74.0687L76.0329 74.7053ZM70.9447 79.3205L72.5348 79.6388L72.0577 77.8882L70.9447 79.3205ZM77.782 80.1162L76.987 79.9571L77.146 80.7528L77.782 80.1162Z" fill="#FEAA00"/>
<path d="M76.1916 83.9355L75.7146 83.7763L75.8736 84.5721L76.1916 83.9355ZM65.0611 86.4818L64.5841 86.3227L64.7431 87.1184L65.0611 86.4818ZM66.8102 80.4342L67.4463 81.7074L68.4003 80.4342H66.8102ZM77.6227 74.7049L78.7358 75.6598L79.2128 74.2275L77.6227 74.7049ZM62.358 81.3891L63.7891 82.6623L64.4251 80.5934L62.358 81.3891ZM68.0823 88.3916L68.5593 89.0282L68.8773 88.0733L68.0823 88.3916ZM78.7358 83.2989L79.3718 83.7763L79.6898 83.1397L78.7358 83.2989ZM72.8525 80.5934L73.3295 81.5483L74.1245 80.7525L72.8525 80.5934ZM74.4426 79.3202L73.8065 80.1159L74.9196 80.2751L74.4426 79.3202ZM72.6935 78.8428L73.1705 79.7976L73.9656 78.8428H72.6935ZM71.2624 79.7976L71.7394 80.7525L72.5345 79.9568L71.2624 79.7976ZM71.7394 82.5031L71.1034 82.344L71.2624 82.9806L71.7394 82.5031ZM74.2836 83.2989L73.6475 83.1397L73.8065 83.9355L74.2836 83.2989ZM68.8773 89.0282L69.3543 89.5056L69.6723 88.7099L68.8773 89.0282ZM68.7183 86.8001L68.5593 87.2775L69.1953 87.4367L68.7183 86.8001ZM65.6972 85.8452L65.3792 85.2086L64.7431 85.8452H65.6972Z" fill="#FEAA00"/>
<path d="M66.4932 89.506V90.3017L67.2882 89.9834L66.4932 89.506ZM65.0622 86.0047L64.4261 86.6413L65.2212 87.1188L65.0622 86.0047Z" fill="#FEAA00"/>
<path d="M64.5847 86.0045L64.9027 86.4819L65.2207 85.8453L64.5847 86.0045ZM61.0866 88.71L60.1325 89.3466L61.4046 89.824L61.0866 88.71ZM63.4717 89.3466L64.1077 89.824L64.2667 89.0283L63.4717 89.3466ZM66.8108 87.5959L67.4468 88.0734L67.6058 87.2776L66.8108 87.5959ZM64.1077 91.0972L64.5847 91.5746L64.9027 90.7789L64.1077 91.0972ZM64.9027 87.4368L64.5847 87.9142H65.3797L64.9027 87.4368ZM85.2556 80.9118L83.8245 80.4343L84.1425 82.1849L85.2556 80.9118ZM74.6021 81.8667L73.9661 81.7075L74.1251 82.5032L74.6021 81.8667ZM66.3338 89.5057L65.6977 89.3466L65.8568 90.1423L66.3338 89.5057Z" fill="#FEAA00"/>
<path d="M85.8902 98.1005L86.5262 97.3048L85.4132 97.1456L85.8902 98.1005ZM97.6567 100.965L98.4517 99.8511L97.0207 99.5328L97.6567 100.965ZM100.678 100.965L99.2468 99.0554L97.8157 100.965H100.678ZM95.2716 100.806L97.1797 100.965L96.7026 99.0554L95.2716 100.806ZM83.8231 96.509L84.4591 96.1907L83.8231 95.7133V96.509ZM82.392 94.7584L81.915 95.395L82.869 95.7133L82.392 94.7584ZM78.5759 94.5992L79.3709 95.2358L79.6889 94.281L78.5759 94.5992ZM82.233 96.1907L83.0281 97.1456L83.6641 95.7133L82.233 96.1907Z" fill="#AF2500"/>
<path d="M83.665 96.6684L82.711 97.6233L84.142 98.2599L83.665 96.6684ZM95.5905 100.806L95.1135 99.2148L93.5234 100.647L95.5905 100.806ZM86.0501 98.8965L85.7321 97.1459L84.301 98.2599L86.0501 98.8965ZM89.3893 99.6922L88.7532 98.1008L87.4812 99.3739L89.3893 99.6922ZM78.8948 93.1672L79.3718 92.8489L78.8948 92.3715V93.1672ZM84.9371 97.305L84.619 96.5093L83.983 97.1459L84.9371 97.305ZM96.0676 92.6898L96.7036 92.3715L96.0676 92.0532V92.6898ZM81.9159 92.5306L82.3929 93.0081L82.5519 92.3715L81.9159 92.5306ZM83.824 93.6447L83.029 93.4855L83.188 94.4404L83.824 93.6447ZM85.7321 93.6447V93.0081L85.0961 93.1672L85.7321 93.6447ZM80.3259 91.4166H80.9619L80.6439 90.78L80.3259 91.4166ZM92.7284 92.2123L93.3644 92.0532L93.0464 91.4166L92.7284 92.2123ZM86.0501 91.2575H86.6861L86.3681 90.4617L86.0501 91.2575ZM87.3222 92.0532L86.8451 92.6898L87.6402 92.8489L87.3222 92.0532ZM90.9793 100.17L92.4104 100.488L92.0924 98.8965L90.9793 100.17ZM83.824 94.4404L83.029 95.7136L84.619 95.8727L83.824 94.4404ZM92.4104 94.1221L92.2514 93.6447L91.7744 94.1221H92.4104ZM95.4315 96.6684L96.2266 95.8727L95.1135 95.5544L95.4315 96.6684ZM91.4564 92.8489L91.7744 93.1672L91.9334 92.6898L91.4564 92.8489ZM90.1843 91.4166L90.5023 91.5757V90.9392L90.1843 91.4166ZM96.5446 99.2148L96.8626 97.6233L95.1135 98.1008L96.5446 99.2148ZM89.3893 99.8514L90.9793 100.011L90.6613 98.2599L89.7073 98.5782L89.3893 99.8514Z" fill="#AF2500"/>
<path d="M90.6616 98.5777L91.9336 98.1003L90.9796 96.9862L90.3435 97.782L90.6616 98.5777ZM92.2516 100.01L93.2057 100.487L94.1597 100.328L93.5237 98.5777L92.2516 100.01ZM93.5237 97.1454L94.6368 98.896L95.5908 98.2594L96.0678 97.1454H93.5237ZM96.3858 95.7131L97.4989 96.3497L97.8169 94.9173L96.3858 95.7131ZM96.8628 98.4186L97.8169 100.169L99.2479 98.4186H96.8628ZM87.1634 97.6228L86.0504 98.896L87.7994 99.3734L87.1634 97.6228ZM89.2305 95.8722L87.6404 96.3497L88.7535 97.782L89.2305 95.8722ZM99.884 93.8033L98.9299 94.1216L99.566 94.9173L99.884 93.8033Z" fill="#AF2500"/>
<path d="M106.244 94.281L105.131 94.5992L105.767 95.5541L106.244 94.281ZM91.1384 98.5779L93.0465 99.2145V96.9864L91.1384 98.5779ZM80.644 96.509L82.2341 97.3047L82.075 95.8724L80.644 96.509ZM89.5484 96.0316L90.8204 95.5541L89.8664 94.4401L89.5484 96.0316ZM93.3646 94.5992L93.8416 95.0767L94.1596 94.4401L93.3646 94.5992ZM91.4565 95.2358L91.2975 94.5992L90.6614 95.2358H91.4565ZM88.2763 99.0553V98.2596L87.4813 98.4188L88.2763 99.0553ZM85.2552 95.5541L85.5732 96.8273L86.6863 95.8724L85.2552 95.5541Z" fill="#AF2500"/>
<path d="M91.1385 96.3501L92.2515 97.1458L92.4105 95.5543L91.1385 96.3501ZM92.8876 96.3501L94.0006 96.9867L94.1596 95.3952L92.8876 96.3501ZM96.2267 97.9415L97.3397 98.7373L97.4987 97.1458L96.2267 97.9415ZM87.0043 96.1909L87.1633 96.8275L87.6403 96.3501L87.0043 96.1909ZM89.2304 94.7586L88.9124 95.5543L89.7074 95.3952L89.2304 94.7586ZM89.2304 98.1007L90.6615 97.9415L90.9795 97.305L89.3894 96.0318L89.2304 98.1007Z" fill="#AF2500"/>
<path d="M89.0706 98.2593L89.5476 97.941L89.0706 97.7819V98.2593ZM88.1165 94.5989L88.4345 94.1215H87.7985L88.1165 94.5989ZM89.8656 93.0075L90.1836 92.53L89.7066 92.3709L89.8656 93.0075ZM86.0494 97.3044L86.3674 97.7819L86.8445 97.1453L86.0494 97.3044ZM81.1202 94.4398L80.9612 95.2355L81.7563 95.0764L81.1202 94.4398ZM85.2544 95.2355V94.2806L84.3004 94.7581L85.2544 95.2355ZM95.2718 99.2142L94.3178 97.941L93.5228 99.5325L95.2718 99.2142ZM87.7985 96.6678V95.8721L87.0035 96.3495L87.7985 96.6678ZM80.4842 93.1666L80.8022 93.8032L81.1202 93.0075L80.4842 93.1666ZM98.611 92.3709L98.929 93.0075L99.247 92.3709H98.611ZM88.2756 92.8483L88.9116 92.6892L88.4345 92.0526L88.2756 92.8483ZM89.2296 93.4849L89.3886 94.1215L89.8656 93.6441L89.2296 93.4849ZM80.4842 112.105L78.2581 112.583L79.6892 114.651L80.4842 112.105ZM96.7029 94.4398H97.4979L97.0209 93.6441L96.7029 94.4398ZM105.766 97.6227L107.356 97.4636L106.402 96.0313L105.766 97.6227ZM110.378 91.5751L110.696 92.3709L111.173 91.7343L110.378 91.5751ZM104.971 92.2117L105.13 92.8483L105.607 92.3709L104.971 92.2117ZM75.396 116.084L74.6009 114.492L73.3289 115.925L75.396 116.084ZM102.586 99.8508L102.904 98.2593L101.155 98.7368L102.586 99.8508ZM99.724 99.6916L99.883 98.8959L98.929 99.055L99.724 99.6916ZM100.201 97.7819L100.519 96.827L99.406 97.1453L100.201 97.7819ZM81.2792 105.58L80.8022 103.034L78.8941 104.307L81.2792 105.58ZM80.6432 102.875L80.0072 100.806L78.8941 102.556L80.6432 102.875ZM75.396 102.238L74.919 101.442L74.2829 102.238H75.396ZM77.4631 101.442L76.986 100.647L76.35 101.442H77.4631ZM71.7388 117.039L71.5798 115.606L70.1487 116.402L71.7388 117.039ZM72.3749 116.243L73.0109 116.72L73.1699 115.765L72.3749 116.243ZM72.2158 114.97L73.1699 115.606L73.4879 114.174L72.2158 114.97ZM104.176 96.1904L104.653 95.2355H103.381L104.176 96.1904ZM108.151 93.0075L108.31 92.2117L107.515 92.3709L108.151 93.0075ZM73.8059 107.967L73.4879 107.172L72.8519 107.808L73.8059 107.967ZM72.3749 103.989L73.0109 103.67L72.5338 103.034L72.3749 103.989Z" fill="#AF2500"/>
<path d="M77.4634 104.785L76.6684 103.193L75.5554 104.466L77.4634 104.785ZM79.5305 103.511L78.7355 101.92L77.6224 103.352L79.5305 103.511ZM75.5554 99.851L75.2373 99.2144L74.6013 99.851H75.5554ZM99.0883 98.2595L99.5654 96.1906L97.1803 96.8272L99.0883 98.2595ZM102.905 96.5089L101.155 95.7132V97.9413L102.905 96.5089ZM104.972 99.6919L103.541 99.0553V100.806L104.972 99.6919ZM113.081 97.9413L111.65 97.1455L111.332 98.8961L113.081 97.9413ZM100.042 99.2144H101.314L100.678 97.7821L100.042 99.2144ZM73.9653 103.83L73.4883 104.148L73.9653 104.625V103.83ZM75.3963 107.331L75.0783 107.013L74.9193 107.49L75.3963 107.331ZM68.7181 109.559L69.0361 109.082H68.4001L68.7181 109.559ZM72.0572 100.965L72.3752 100.488H71.7392L72.0572 100.965ZM73.3293 98.2595L73.6473 97.7821L73.0112 97.623L73.3293 98.2595ZM71.8982 108.445L71.4212 107.968L71.2622 108.763L71.8982 108.445ZM73.9653 106.217L73.3293 105.739L73.0112 106.694L73.9653 106.217ZM68.4001 110.832L68.7181 110.355H68.082L68.4001 110.832ZM101.314 94.9175L101.95 95.554L102.268 94.5992L101.314 94.9175ZM74.2833 119.108L73.6473 117.675L72.5342 118.949L74.2833 119.108ZM78.0995 108.445L77.3044 107.968L77.1454 109.082L78.0995 108.445ZM80.1666 108.763L78.8945 107.968L78.7355 109.559L80.1666 108.763ZM80.6436 110.991L79.2125 110.514L79.5305 112.264L80.6436 110.991ZM106.721 99.851L107.198 99.2144L106.403 99.0553L106.721 99.851ZM107.675 100.169L108.629 99.851L107.357 99.3736L107.675 100.169ZM99.5654 96.3498L100.678 96.6681L100.519 95.3949L99.5654 96.3498Z" fill="#AF2500"/>
<path d="M101.155 94.1218L102.109 94.44L101.95 93.326L101.155 94.1218ZM85.5727 94.2809L86.8448 94.7583L86.6858 93.1669L85.5727 94.2809ZM106.721 98.2596L107.675 99.5327L108.47 98.1004L106.721 98.2596Z" fill="#AF2500"/>
<path d="M108.311 97.4639L107.357 98.7371L108.947 99.0554L108.311 97.4639ZM103.7 100.01L102.746 99.692L102.905 100.647L103.7 100.01ZM104.972 100.647L106.88 100.329L106.244 99.0554L104.972 100.647ZM100.838 100.965H102.746L101.156 99.0554L100.838 100.965ZM76.192 100.965L75.874 100.329L75.238 100.965H76.192ZM78.2591 108.604L78.7361 108.286L78.2591 107.808V108.604ZM76.828 98.4188L77.3051 97.9414L76.51 97.7822L76.828 98.4188ZM76.351 99.5328L76.828 99.8511L76.9871 99.2145L76.351 99.5328ZM79.5312 105.262L77.9411 104.944L78.5771 106.854L79.5312 105.262ZM76.033 110.514L75.238 110.673L75.715 111.31L76.033 110.514ZM80.8032 110.514L80.9622 108.922L79.2131 109.559L80.8032 110.514ZM76.192 106.217L75.715 105.103L74.761 106.058L76.192 106.217ZM77.7821 112.105L78.8951 111.628L77.9411 110.514L77.7821 112.105ZM74.2839 110.037L75.397 109.241L74.1249 108.445L74.2839 110.037ZM76.9871 110.832L77.9411 110.037L76.669 109.4L76.9871 110.832ZM75.556 115.607L76.669 114.811L75.397 114.015L75.556 115.607ZM81.2802 106.058L79.0541 107.013L81.1212 108.763L81.2802 106.058ZM79.8492 100.647L79.0541 98.7371L77.4641 100.488L79.8492 100.647ZM74.761 105.103L75.556 104.307L74.4429 103.83L74.761 105.103ZM77.7821 102.079L76.669 102.397L77.6231 103.512L77.7821 102.079ZM74.761 100.488L74.2839 99.8511L73.9659 100.488H74.761ZM75.556 98.2597L76.033 97.7822L75.397 97.6231L75.556 98.2597ZM69.1957 115.607L69.6727 114.652H68.5597L69.1957 115.607ZM72.8529 118.79L73.1709 117.994H72.2169L72.8529 118.79ZM75.715 117.676L76.51 116.243H74.602L75.715 117.676ZM70.3088 116.084L70.6268 115.288H69.8318L70.3088 116.084ZM72.6939 116.402L73.0119 115.766H72.2169L72.6939 116.402ZM73.3299 113.379L72.6939 113.06L72.8529 113.856L73.3299 113.379ZM78.1001 107.013L76.9871 106.217L76.669 107.649L78.1001 107.013ZM75.079 111.946L74.602 111.628V112.265L75.079 111.946ZM107.834 95.8725L107.516 95.395L107.198 95.8725H107.834ZM110.06 95.8725L109.742 95.395L109.424 95.8725H110.06ZM110.537 97.1456L110.06 96.5091L109.424 97.3048L110.537 97.1456ZM75.715 113.538L75.079 113.379V114.015L75.715 113.538ZM72.2169 117.676L72.5349 116.88H71.7398L72.2169 117.676ZM73.3299 117.039L73.4889 118.153L74.602 117.516L73.3299 117.039Z" fill="#AF2500"/>
<path d="M75.3957 117.357L75.7137 118.79L77.1448 117.835L75.3957 117.357ZM71.7386 117.994H72.3746L72.2156 117.357L71.7386 117.994ZM71.7386 116.084L72.0566 115.607H71.2615L71.7386 116.084ZM74.1236 115.448H74.7597L74.4417 114.811L74.1236 115.448ZM75.2367 96.5091L75.0777 97.3048L75.8727 97.1457L75.2367 96.5091ZM77.4628 94.5993L77.3038 95.2359L77.9398 95.0768L77.4628 94.5993ZM76.5087 96.3499L76.3497 96.9865L76.9858 96.8274L76.5087 96.3499ZM76.0317 94.1219L75.3957 93.9627L75.5547 94.5993L76.0317 94.1219ZM76.5087 95.2359L76.1907 95.8725H76.9858L76.5087 95.2359ZM78.5758 100.965L78.2578 101.443L79.0528 101.602L78.5758 100.965ZM78.7348 98.2597L77.7808 97.9414L77.9398 99.2146L78.7348 98.2597ZM78.5758 98.1006L78.0988 96.5091L76.6677 97.6231L78.5758 98.1006Z" fill="#AF2500"/>
<path d="M78.099 96.5091V95.395L77.145 95.8725L78.099 96.5091ZM76.986 112.265L75.7139 112.105L76.0319 113.538L76.986 112.265Z" fill="#AF2500"/>
<path d="M78.8953 115.925L78.7363 114.333L77.1462 115.129L78.8953 115.925ZM76.3512 113.856V113.219L75.7151 113.537L76.3512 113.856ZM77.7822 114.015V112.742L76.5102 113.378L77.7822 114.015ZM71.581 114.651L72.853 114.333L71.899 113.378L71.581 114.651ZM76.1922 111.946L77.3052 111.628L76.3512 110.673L76.1922 111.946ZM102.587 97.3045L103.859 97.7819L103.7 96.3496L102.587 97.3045ZM105.131 98.5777L104.177 98.1002V99.2142L105.131 98.5777ZM105.926 99.0551L106.403 97.6228L104.654 97.9411L105.926 99.0551ZM111.174 99.0551L109.743 97.9411V99.5325L111.174 99.0551ZM104.654 96.827L105.29 97.1453L105.131 96.1905L104.654 96.827ZM106.403 93.1667L107.039 93.3258V92.6892L106.403 93.1667ZM73.648 113.378L74.2841 113.219L73.8071 112.742L73.648 113.378ZM75.7151 118.789L74.7611 117.675L74.1251 119.108L75.7151 118.789ZM78.7363 116.243L76.8282 115.606L76.9872 117.675L78.7363 116.243ZM70.1499 113.06L69.3549 112.901L69.6729 113.697L70.1499 113.06ZM103.859 93.485L103.382 93.0075L103.064 93.6441L103.859 93.485ZM113.4 97.7819V96.0313L111.651 96.9862L113.4 97.7819ZM111.015 95.8722L112.446 96.3496V94.9173L111.015 95.8722Z" fill="#AF2500"/>
<path d="M111.172 94.2809L110.218 94.7583L111.172 95.5541V94.2809ZM112.763 96.5089L114.035 96.9864L113.876 95.3949L112.763 96.5089ZM113.876 90.6205L114.353 91.098L114.512 90.3022L113.876 90.6205ZM112.922 94.2809L113.717 93.9626L113.081 93.326L112.922 94.2809ZM118.805 89.3474L119.123 89.8248L119.6 89.1882L118.805 89.3474ZM115.148 94.44L114.989 93.4852L114.194 93.9626L115.148 94.44ZM118.328 92.3711L118.805 91.2571H117.533L118.328 92.3711ZM114.512 96.6681L115.943 95.2358L113.717 94.44L114.512 96.6681ZM117.533 93.4852L115.625 93.1669L116.102 95.2358L117.533 93.4852ZM117.056 92.5303L117.692 93.0077L117.851 92.0528L117.056 92.5303ZM113.876 93.0077L114.989 93.1669L114.512 91.8937L113.876 93.0077ZM116.102 91.4163L117.056 91.5754L116.579 90.4614L116.102 91.4163ZM119.282 90.4614L118.646 89.9839L118.487 90.7797L119.282 90.4614ZM109.423 96.8272L109.264 95.8724L108.31 96.6681L109.423 96.8272ZM107.833 98.1004L108.469 97.3047L107.356 96.9864L107.833 98.1004ZM109.423 98.737L109.105 97.7821L108.31 98.4187L109.423 98.737ZM110.854 97.7821L110.695 96.8272L109.741 97.623L110.854 97.7821ZM111.331 93.1669L111.967 93.4852V92.6894L111.331 93.1669ZM108.469 94.1217L108.946 94.2809V93.4852L108.469 94.1217ZM69.1946 112.901L68.3996 112.742L68.5586 113.538L69.1946 112.901ZM70.3077 114.97V114.333L69.6716 114.652L70.3077 114.97ZM73.4878 114.333L74.1238 114.652L74.2828 113.856L73.4878 114.333ZM71.1027 111.31L70.6257 110.673L70.1487 111.469L71.1027 111.31ZM75.3959 113.538L75.7139 112.742L74.7599 112.583L75.3959 113.538ZM74.4418 113.538L73.8058 113.219L73.9648 114.015L74.4418 113.538ZM76.1909 109.4L76.5089 108.445L75.3959 108.604L76.1909 109.4ZM73.8058 110.036L73.0108 109.877L73.1698 110.832L73.8058 110.036ZM71.5797 113.219L70.7847 113.06L71.1027 113.856L71.5797 113.219ZM72.3748 108.922L71.5797 108.763L71.7387 109.559L72.3748 108.922ZM73.4878 112.424L73.3288 111.946L72.6928 112.264L73.4878 112.424ZM79.0531 95.7132L80.4841 96.3498L80.3251 95.2358L79.0531 95.7132ZM107.992 95.3949L108.469 95.5541V94.9175L107.992 95.3949ZM71.2617 111.31L71.7387 111.15L71.2617 110.514V111.31Z" fill="#AF2500"/>
<path d="M110.378 126.269C107.516 126.269 105.131 122.291 105.131 117.835C105.131 113.379 107.516 109.4 110.378 109.4C110.855 109.4 111.491 109.559 111.968 109.718V107.968C111.491 107.808 111.014 107.649 110.537 107.649C106.721 107.649 103.7 112.265 103.7 117.835C103.7 123.405 106.721 128.02 110.537 128.02H111.173L111.332 126.429C110.855 126.11 110.537 126.269 110.378 126.269Z" fill="white"/>
<path d="M117.216 117.675C117.216 112.901 114.99 108.763 111.809 107.808V109.559C113.876 110.673 115.467 113.856 115.467 117.675C115.467 121.813 113.558 125.314 111.014 125.951L110.855 127.542C114.512 127.224 117.216 122.927 117.216 117.675Z" fill="#CCCCCC"/>
<path d="M119.601 323.77C131.049 327.749 145.519 324.725 167.78 319.314C189.882 313.903 234.722 300.216 234.722 300.216C234.722 300.216 244.898 300.216 255.552 294.01C266.205 287.803 266.682 286.052 268.113 284.938C269.544 283.824 267.159 282.392 267.159 282.392C267.159 282.392 270.498 280.641 270.18 278.572C269.862 276.504 267.954 276.504 267.954 276.504C267.954 276.504 268.431 273.957 267.795 272.843C267.159 271.729 262.071 272.366 258.891 273.639C255.711 274.912 246.965 275.549 245.375 275.708C243.785 276.026 248.396 273.321 250.622 271.888C252.848 270.297 254.597 266.318 249.986 268.069C245.375 269.979 239.81 271.57 238.697 272.207C237.425 272.843 234.722 274.753 232.655 276.185L230.746 277.618C230.746 277.618 229.315 278.891 224.227 279.05C219.139 279.209 167.144 279.368 159.352 278.891C149.335 278.095 109.742 320.269 119.601 323.77Z" fill="#EA9D7D"/>
<path d="M233.449 300.535C233.449 300.854 233.29 301.013 232.972 301.172C232.336 301.331 170.323 319.315 149.811 324.089C131.685 328.386 120.713 325.362 114.353 322.338C110.219 320.269 107.834 318.678 107.675 318.36C107.357 318.041 107.516 317.723 107.834 317.405C108.152 317.086 108.47 317.246 108.788 317.564C108.788 317.564 111.968 319.951 118.169 322.497C128.664 326.476 141.066 325.044 149.493 322.975C170.005 318.041 232.018 300.217 232.654 299.899C232.972 299.739 233.449 300.058 233.449 300.376C233.608 300.376 233.608 300.376 233.449 300.535Z" fill="#CC7A5E"/>
<path d="M113.002 200.67C113.002 200.67 138.681 241.332 148.699 255.178C157.603 267.432 161.737 272.048 169.052 273.162C174.935 273.957 195.288 274.117 202.92 274.117C205.305 274.117 205.464 273.957 205.623 275.549L209.598 316.29C209.757 317.882 209.28 317.882 207.213 318.359C197.832 320.906 166.507 328.704 143.77 326.635C117.851 324.407 107.834 318.678 98.6116 301.012C85.732 277.14 113.002 200.67 113.002 200.67Z" fill="#FCAA02"/>
<path d="M180.5 273.798L190.358 322.338C190.358 322.338 154.422 329.181 137.727 325.998C125.96 323.77 103.54 321.065 103.699 304.514C104.017 270.934 109.63 194.273 109.63 194.273C109.63 194.273 149.652 261.544 160.783 269.979C168.415 275.867 180.5 273.798 180.5 273.798Z" fill="url(#paint3_linear_1608_3461)"/>
<path d="M10.2037 334.592L35.3268 191.36C39.779 174.013 39.2542 159.976 60.5611 160.295C88.451 160.963 116.42 192.474 127.074 232.897C135.024 263.135 142.974 334.433 142.974 334.433L10.2037 334.592Z" fill="#FCAA02"/>
<path d="M10.2037 334.592L35.3268 191.36C39.779 174.013 30.9541 158.385 62.9144 160.294C86.4475 160.772 115.943 191.36 126.597 231.783C134.547 262.021 142.974 334.433 142.974 334.433L10.2037 334.592Z" fill="url(#paint4_linear_1608_3461)"/>
<path d="M-9.35415 301.171C-10.9442 313.267 -10.3082 313.585 -0.76776 334.274C8.93166 354.963 31.3516 396.182 31.3516 396.182C31.3516 396.182 33.4187 406.208 41.528 415.439C49.7964 424.669 51.3865 424.828 52.8175 425.942C54.0896 427.057 55.2027 424.51 55.2027 424.51C55.2027 424.51 57.5878 427.375 59.6548 426.579C61.5629 425.783 60.7679 423.555 60.7679 423.555C60.7679 423.555 63.789 423.874 64.9021 422.919C66.0151 422.123 63.948 417.508 62.0399 414.643C60.1319 411.778 58.2238 403.184 57.5878 401.593C56.9517 400.002 60.4499 403.98 62.517 405.89C64.584 407.8 67.9232 407.322 65.2201 403.184C62.517 399.047 60.6089 395.227 59.8138 394.113C59.0188 392.999 56.6337 390.612 54.7256 389.02L52.9765 387.429C52.9765 387.429 51.3865 386.315 50.2734 381.222C49.9554 380.108 49.4784 377.244 47.5703 371.833C41.8461 356.077 38.5069 323.77 37.5529 317.723C35.9628 308.015 -7.92308 290.827 -9.35415 301.171Z" fill="#EA9D7D"/>
<path d="M31.0336 395.068C30.7156 395.068 30.3975 394.909 30.3975 394.75L-8.71807 317.723C-16.5094 300.854 -15.8734 289.395 -13.9653 282.711C-12.6932 278.096 -11.5802 275.549 -11.4212 275.231C-11.2622 274.913 -10.7852 274.913 -10.4672 275.231C-10.1491 275.39 -10.1491 275.868 -10.4672 276.186C-10.4672 276.186 -12.2162 279.846 -13.3293 286.371C-15.2374 297.352 -11.2622 309.288 -7.60503 317.246C1.29934 336.343 31.1926 393.636 31.5106 394.114C31.6696 394.432 31.5106 394.75 31.1926 394.909C31.1926 395.068 31.0336 395.068 31.0336 395.068Z" fill="#CC7A5E"/>
<path d="M38.1897 305.946C37.0766 308.333 36.7586 316.131 38.3487 323.611C39.4617 328.704 43.7549 352.894 46.7761 368.013C48.2071 375.175 50.1152 380.267 50.1152 380.267L52.6593 388.702C52.6593 388.702 52.9773 387.588 56.1574 390.135C59.3376 392.681 64.9028 402.071 66.1749 404.139C67.4469 406.208 66.8109 406.527 66.3339 407.004C65.8569 407.482 64.7438 407.163 63.7898 406.527C62.8357 405.89 56.9525 400.479 56.9525 400.479C56.9525 400.479 52.3413 402.23 49.3202 399.206C46.14 396.182 44.709 391.408 44.709 391.408C44.709 391.408 10.0455 336.025 14.1797 310.72C18.1548 287.007 39.1437 303.559 38.1897 305.946Z" fill="url(#paint5_linear_1608_3461)"/>
<path d="M72.6936 170.353C54.0899 151.414 18.1543 159.053 -3.62959 210.298C-25.4135 261.544 -23.6644 291.941 -15.8731 319.473C-8.08178 347.006 10.999 382.177 10.999 382.177L56.475 365.148C56.475 365.148 41.0513 314.062 42.9594 291.463C44.8675 268.705 65.6973 240.536 74.1247 226.213C82.5521 211.89 92.4105 190.405 72.6936 170.353Z" fill="#FCAA02"/>
<path d="M56.315 365.148L10.9981 382.177C10.9981 382.177 -4.90257 356.713 -0.132363 330.932C2.72976 315.654 14.4963 294.328 13.5422 281.914C12.5882 269.501 45.6616 277.299 45.6616 277.299C45.6616 277.299 38.3473 289.872 47.2516 329.499C49.9548 341.276 52.4989 353.53 56.315 365.148Z" fill="url(#paint6_linear_1608_3461)"/>
<path d="M75.2372 187.7L73.0111 188.655L74.9192 190.564L75.2372 187.7ZM69.99 190.246L73.0111 189.132L70.149 187.382L69.99 190.246ZM68.2409 181.175L68.5589 178.469L66.1738 179.265L68.2409 181.175ZM67.4458 177.514L67.7639 175.446L66.1738 176.082L67.4458 177.514ZM71.739 185.154H73.4881L72.6931 183.88L71.739 185.154ZM59.4955 184.517L60.4496 183.403L58.8595 182.925L59.4955 184.517ZM58.2234 190.883L56.3154 190.564L56.9514 192.156L58.2234 190.883ZM65.8558 184.835L64.7427 185.631L66.0148 186.427L65.8558 184.835ZM63.7887 199.318L64.7427 198.999L64.4247 199.477H65.3788L64.5837 200.75L65.3788 200.591L66.6508 202.023L67.6049 199.477L65.8558 199.954L65.3788 199.477L65.8558 199.318L65.2198 197.885L64.9017 198.522L64.2657 197.885L63.7887 199.318ZM66.1738 183.562L65.3788 181.811L64.5837 183.562H66.1738ZM62.0396 174.172L63.3117 173.217L61.7216 172.899L62.0396 174.172ZM62.3576 162.873L60.2905 165.101L63.4707 166.215L62.3576 162.873ZM70.467 177.037L70.308 180.857L74.2831 179.265L70.467 177.037ZM66.6508 170.512L64.7427 172.103L67.2868 173.377L66.6508 170.512ZM67.9229 167.647L66.0148 169.239L67.9229 170.194L67.1278 172.422L69.5129 171.785L67.1278 174.332L71.103 175.764L69.6719 171.785L70.467 171.467L71.262 173.854L71.739 173.536L72.8521 174.65L71.262 177.355L74.6012 177.037V177.674L73.9651 178.151L74.6012 178.628V179.424L77.3043 178.469L75.2372 181.175L74.1241 180.538L73.9651 183.403L76.9863 182.289L76.6683 182.13H78.2583L76.1912 182.925L78.0993 184.835L78.4173 182.13H78.5763L78.4173 184.835L80.3254 184.199L78.0993 186.268L76.5092 185.313L76.1912 188.177L77.9403 187.541L80.0074 187.859L79.5304 189.291L78.4173 188.336L78.2583 189.132L77.1453 187.859L76.1912 190.246L74.7602 191.201L73.0111 189.61L72.2161 192.474L74.9192 191.997L75.2372 192.156L74.9192 192.474L76.0322 192.793L75.0782 194.861H75.5552L73.8061 197.249L76.6683 197.726L76.0322 194.861L78.0993 194.702L76.6683 191.997L76.5092 190.564L78.0993 190.405L77.9403 191.042L78.4173 190.883L78.2583 191.36L78.0993 191.519H78.2583L77.9403 193.27L81.1204 192.474L83.9826 193.429L83.0285 188.018L82.2335 188.655L81.4385 187.7L83.1875 188.018L81.4385 182.766L81.1204 182.925L79.0534 181.652H80.8024L78.0993 176.878L77.3043 177.833L75.3962 176.719L77.6223 176.56L74.4421 171.944L73.4881 173.536L73.6471 171.944L73.3291 172.103L73.9651 171.626L71.58 171.149L73.4881 170.512L69.5129 166.692L68.5589 169.239L67.9229 167.647ZM80.4844 189.769L79.8484 189.132L81.5975 188.973L80.4844 189.769ZM69.831 192.793H71.262L70.626 191.36L69.831 192.793Z" fill="#FCAA02"/>
<path d="M62.835 191.679L61.5629 192.474L62.994 193.27L62.835 191.679ZM68.2412 181.175L69.8312 181.812L69.3542 180.22L68.2412 181.175ZM62.1989 168.443L63.312 171.149L65.5381 168.762H65.2201L69.0362 166.374L64.266 163.669L63.63 168.602L62.1989 168.443ZM67.6052 185.949L69.9903 186.268L69.1952 183.721L67.6052 185.949ZM70.3083 208.548V208.867L68.2412 210.935L67.7642 210.617L67.4462 212.209L66.3331 212.686L67.4462 213.641L67.6052 213.163L69.8312 212.049L68.2412 210.935L71.2623 212.209L70.9443 210.776L72.3754 209.981L70.3083 208.548ZM80.3257 204.251L78.4176 206.479L79.6896 206.798L77.4636 207.116V206.957V207.116H76.6685L76.9865 207.593L75.7145 209.185L76.6685 209.503L76.5095 210.458L77.7816 209.821L78.7356 210.14L78.4176 209.503L78.7356 209.344L80.9617 211.89L82.7108 206.638H81.2797L80.3257 204.251ZM79.2126 209.981L76.6685 211.413L78.4176 212.686H74.6014L78.5766 217.779L80.8027 212.686H79.2126V209.981Z" fill="#FCAA02"/>
<path d="M75.2376 209.184L72.6935 210.776H72.8525L72.5345 211.094L74.1246 212.208L73.9656 211.572L75.3966 212.686L75.2376 209.184ZM75.0786 199.795L76.6687 198.681L75.2376 197.885L75.0786 199.795ZM74.6016 208.07L73.0115 208.389L74.2836 209.503L74.6016 208.07ZM57.4288 203.296H59.3369L58.0649 201.864L57.4288 203.296ZM67.9233 205.365L68.8773 204.251L67.6053 203.933L67.9233 205.365ZM58.8599 212.527L57.4288 213.322L59.0189 213.959L58.8599 212.527ZM51.8636 190.405L51.7046 192.156L53.4537 191.519L51.8636 190.405ZM62.3581 190.723L62.9941 189.291L61.563 189.45L62.3581 190.723ZM56.6338 201.705L56.1568 200.431L55.0437 201.545L56.6338 201.705ZM68.8773 195.657L69.1954 193.906L69.6724 194.065L69.8314 192.156L69.3543 192.474V192.156L67.4463 192.792L66.9692 191.997L67.7643 191.042L65.8562 190.883L66.1742 191.837L65.6972 192.633L67.4463 192.792L66.4922 193.27L68.8773 195.657ZM70.9444 183.88L72.5345 183.721L71.2624 182.607L70.9444 183.88ZM79.0538 193.27L79.6898 194.702L79.8488 194.225L80.0078 194.702L81.2799 193.747L80.3258 193.429V193.27H79.0538ZM55.6798 174.65L54.0897 175.604L55.3617 176.718L55.6798 174.65ZM58.2239 165.26L57.5878 166.533H59.1779L58.2239 165.26ZM66.1742 176.878L64.7432 176.718L65.3792 178.31L66.1742 176.878ZM69.6724 200.431L70.1494 200.75L70.3084 199.795L70.6264 199.954L70.7854 198.522L69.5134 199.317L68.4003 199.476L69.3543 200.909L69.6724 200.431ZM78.2587 204.251L78.0997 205.683L79.5308 204.728L78.2587 204.251ZM82.5519 200.75L80.0078 200.59L80.4848 201.705L78.8948 202.023L79.2128 198.681L75.7146 200.113L78.7358 203.137V202.978L82.8699 206.161L83.824 200.75L82.2339 201.227L82.5519 200.75ZM74.9196 204.41L73.8065 204.251H72.8525V204.41H72.3755L73.1705 205.842L73.3295 205.524L73.8065 206.797L74.6016 205.524L78.2587 206.479L76.5097 202.341L74.9196 204.41ZM80.1668 195.02L80.4848 195.339L79.0538 195.975L79.5308 195.02L76.9867 194.861L77.9407 197.567L78.7358 196.453L81.2799 198.044L80.1668 199.954L83.506 200.272L82.3929 198.681L83.665 199.476L83.983 193.906L82.0749 194.702L80.1668 195.02ZM64.7432 208.548L64.1071 210.139H66.0152L64.7432 208.548ZM62.04 207.116L60.609 206.797L61.086 208.389L62.04 207.116ZM67.9233 195.657L66.6512 196.453L67.7643 197.248L67.9233 195.657ZM61.245 203.137L62.04 201.227L59.8139 201.864L61.245 203.137ZM64.9022 219.37L64.5841 221.598L62.9941 220.325L62.3581 223.03L64.5841 222.075L64.4251 222.234L66.9692 220.802L64.9022 219.37ZM71.5805 218.415L71.1034 221.28L73.6475 219.847L71.5805 218.415ZM62.3581 218.256L62.517 218.892L62.8351 218.574L64.5841 219.688L64.2661 216.346L63.1531 217.142L62.04 216.823L62.199 217.619L61.881 217.778L62.3581 218.256ZM73.8065 220.643L71.2624 222.075L72.2165 222.712L69.9904 222.553L69.8314 220.006L67.2873 221.439L69.9904 223.348L72.6935 227.486L71.5805 226.213L70.7854 228.123L72.6935 227.645L72.8525 227.964L75.5556 223.03L73.8065 222.871V220.643ZM72.3755 215.55L74.4426 216.983L74.2836 213.641L71.7395 215.073L72.2165 215.391L69.9904 216.983L72.5345 218.733V217.778L75.8736 222.871L78.4177 217.937L72.5345 217.619L72.3755 215.55ZM71.7395 206.956L73.0115 205.683L71.5805 205.206L71.7395 206.956L71.4214 206.638L70.9444 208.389L72.6935 207.593L71.7395 206.956ZM68.0823 217.778L68.5593 216.505H66.9692L68.0823 217.778ZM60.609 206.001L61.881 206.161L61.563 204.569L60.609 206.001ZM54.5667 208.707L53.7717 206.956L52.8176 208.23L54.5667 208.707ZM62.6761 212.527L63.9481 211.412L62.6761 210.935V212.527ZM52.1816 219.052L52.3406 217.619L50.7505 218.097L52.1816 219.052ZM58.8599 214.914L58.0649 216.346L59.8139 216.664L58.8599 214.914ZM55.3617 213.959L56.4748 212.845L55.2027 212.367L55.3617 213.959ZM49.9555 247.061L49.4785 249.767L52.0226 248.335L49.9555 247.061ZM54.4077 251.677L52.3406 250.244L51.8636 252.95L52.1816 252.791L51.7046 253.905L52.4996 253.586L52.1816 255.178L50.7505 255.019L50.5915 251.677L48.0474 253.109L50.5915 254.86L49.6375 254.7L50.9096 256.451L50.5915 258.52L51.8636 257.883L52.9766 259.475L49.6375 259.157L49.1605 256.451L48.6835 256.769V255.496L47.0934 256.292L48.2064 257.088L46.9344 258.202L47.4114 258.52L45.0263 259.793L47.2524 261.225L47.7294 258.679L48.6835 259.157H48.0474L51.2276 264.09L49.3195 263.135L49.1605 265.363H46.4574L46.9344 265.045L45.1853 264.09L45.0263 266.318L46.1394 265.522L46.6164 266.318L43.7543 266.636L45.1853 269.501L44.3903 269.342L44.7083 271.252H43.4362L44.8673 273.002L43.4362 274.435L43.2772 273.957L42.0052 275.23L40.4151 274.594L40.5741 277.299L42.6412 275.389L43.7543 275.708H43.1182L42.0052 275.867L43.2772 276.981V277.458L43.4362 277.299L45.3761 279.145L46.6482 275.915L43.7543 275.549L43.2772 274.275L45.5033 275.071L44.7083 272.684L46.7754 275.517L48.27 271.22L44.5493 270.615L45.8213 269.342L47.5704 270.456L47.2524 267.75L45.3443 269.024L45.5033 269.183L45.0263 269.024L46.2984 266L48.7789 269.66L50.5279 265.682L49.0015 265.045L50.5915 263.931L51.1322 265.252L53.0403 260.955L53.1992 260.732L55.5843 256.276L55.7116 256.149L57.4606 252.807L52.6586 252.011L54.4077 251.693V251.677ZM52.9766 255.496L54.7257 254.541L55.6798 255.814L52.9766 255.496ZM54.7257 254.382L53.4537 253.586L53.7717 253.427L52.9766 252.631L53.2947 252.472L54.7257 254.382ZM52.1816 242.924L49.7965 244.515L52.4996 246.266L52.1816 242.924Z" fill="#FCAA02"/>
<path d="M56.3158 244.674L53.7717 246.107L55.0437 247.061H54.5667L55.2027 248.016L54.5667 247.539L53.9307 250.244L55.9978 249.449L57.7468 252.632L60.768 247.221L56.3158 247.061V244.674ZM61.881 226.691L64.4252 228.6L64.2661 225.099L61.881 226.691ZM62.04 232.102L58.8599 233.216L61.086 235.125L62.04 232.102ZM65.2202 229.237L62.04 230.351L64.2661 232.261L65.2202 229.237ZM57.4288 238.149L56.9518 240.696V239.9L54.2487 241.65H53.9307L54.0897 241.81L53.7717 241.969L54.0897 242.287L54.4077 243.083L54.7257 242.605L57.2698 244.515L56.9518 240.855L59.4959 239.582L57.4288 238.149ZM46.1393 256.928L48.5245 255.337L46.2983 254.223L46.1393 256.928ZM62.04 227.645L61.245 229.396L63.1531 228.919L62.04 227.645ZM57.4288 236.876L55.8388 236.558L56.6338 237.99L57.4288 236.876ZM51.5456 224.94L52.8176 225.417V223.826L51.5456 224.94ZM60.609 223.349V226.85L63.4711 224.622L60.609 223.349ZM55.8388 221.439V224.94L58.5419 222.871L55.8388 221.439ZM56.7928 225.417V229.078L59.4959 226.85L56.7928 225.417ZM66.4922 209.025L69.3544 206.956L66.4922 205.683V209.025ZM73.9656 201.545L71.2624 200.113V203.614L73.9656 201.545ZM70.4674 197.726L73.1705 195.498L70.4674 194.225V197.726ZM44.5493 238.945V242.446L47.2524 240.218L44.5493 238.945ZM52.1816 222.394L53.6127 221.28L51.7046 220.802L52.1816 222.394ZM61.563 217.142L61.404 215.391L60.1319 216.187L61.563 217.142ZM59.4959 228.441L58.8599 229.874L60.45 229.396L59.4959 228.441ZM54.0897 212.049L55.8388 211.253L54.0897 210.458V212.049ZM64.2661 208.548L64.5841 206.956L63.3121 207.434L64.2661 208.548ZM60.768 220.166L61.245 219.052L59.6549 219.211L59.973 219.688L59.3369 220.643L60.927 220.484L60.768 220.166ZM42.4822 256.133L42.1642 257.883L41.0511 258.202L42.1642 259.316L42.3232 258.838L44.5493 257.565L42.4822 256.133ZM32.1467 248.971H33.8958L33.4188 248.175L34.6908 247.221L32.7827 246.743L32.9418 247.698L32.7827 247.38L32.1467 248.971Z" fill="#FCAA02"/>
<path d="M43.5956 249.767L42.1645 249.449L42.4825 251.041L43.5956 249.767ZM33.7372 259.635L33.5781 258.202L32.1471 258.839L33.7372 259.635ZM26.5818 236.081L26.4228 237.672L28.1719 237.195L26.5818 236.081ZM37.0763 236.399L37.5533 234.808L36.2812 234.967L37.0763 236.399ZM30.875 246.107L29.762 247.221L31.3521 247.38L30.875 246.107ZM35.3272 252.314L35.8042 253.905L36.7583 252.791L35.3272 252.314ZM35.8042 248.813L36.7583 246.903L34.3732 247.38L35.8042 248.813ZM41.2105 236.877L40.8925 237.354L39.4614 237.195L40.0974 238.627L40.4154 238.309L42.1645 238.468L41.2105 236.877ZM46.2987 250.882L46.4577 252.473L45.9807 252.155L45.5036 254.064L47.4117 253.269L46.4577 252.632L47.7298 251.359L46.2987 250.882ZM37.0763 263.772L37.2353 264.568L37.5533 264.25L39.3024 265.364L38.9844 262.022L37.8713 262.658L36.7583 262.499L36.9173 263.295L36.5993 263.454L37.0763 263.772ZM41.6875 262.022L42.8005 263.454L43.2776 262.022H41.6875ZM35.1682 251.518L36.5993 251.677L36.1223 250.245L35.1682 251.518ZM29.285 254.224L28.4899 252.473L27.5359 253.905L29.285 254.224ZM37.3943 257.725L36.7583 258.043L38.0303 258.839L37.8713 257.566L38.6663 257.088L37.2353 256.452L37.3943 257.725ZM27.0589 263.295L25.4688 263.613L26.8999 264.727L27.0589 263.295ZM33.5781 260.43L32.6241 261.863L34.5322 262.181L33.5781 260.43ZM29.921 259.475L31.193 258.521L29.921 257.884V259.475ZM26.8999 268.069L28.3309 266.796L26.4228 266.319L26.8999 268.069ZM36.1223 261.067L34.8502 261.863L36.1223 262.658V261.067ZM35.1682 275.072L34.0552 273.958L33.5781 275.549L35.1682 275.072ZM28.8079 257.725L30.557 256.77L28.8079 255.974V257.725ZM38.9844 254.224L39.3024 252.632L38.0303 253.11L38.9844 254.224ZM34.0552 266.319L35.6452 266.16L34.8502 265.046L34.0552 266.319ZM40.2564 229.238L39.1434 227.646L38.3483 229.238H40.2564ZM48.8428 231.306L49.9558 230.033L48.5248 229.715L48.8428 231.306ZM39.9384 239.9V238.468L38.5074 239.264L39.9384 239.9ZM32.9421 216.347L32.6241 217.938L34.5322 217.461L32.9421 216.347ZM43.4366 216.665L43.9136 215.073L42.4825 215.233L43.4366 216.665ZM45.1856 236.081L47.0937 235.922L45.8217 234.489L45.1856 236.081ZM47.4117 238.627L48.5248 239.582L48.6838 239.105L50.7509 237.831L48.8428 236.558L48.5248 238.15L47.4117 238.627ZM41.6875 232.739L42.0055 234.171L42.9596 232.898L41.6875 232.739ZM42.1645 229.078L42.9596 227.169L40.7334 227.646L42.1645 229.078ZM48.5248 218.734L47.5707 217.142L46.7757 218.575L48.5248 218.734ZM52.818 232.898L52.341 232.58L51.8639 234.33L53.772 233.535L52.818 232.898L54.09 231.625L52.659 231.147L52.818 232.898ZM45.3447 242.128L44.0726 242.924L42.9596 242.765L43.1185 243.561L42.8005 243.72L43.2776 244.197L43.5956 244.834L43.9136 244.516L45.6627 245.63L45.3447 242.128ZM49.6378 242.288H48.0478L49.0018 243.561L49.6378 242.288ZM42.4825 230.511L41.5285 231.784L42.9596 231.943L42.4825 230.511ZM35.6452 234.489L34.6912 232.739L33.7372 234.171L35.6452 234.489ZM43.5956 238.309L45.0266 237.354L43.5956 236.717V238.309ZM33.4191 243.561L31.8291 243.879L33.1011 244.993L33.4191 243.561ZM38.9844 242.128L40.8925 242.447L39.9384 240.855L38.9844 242.128ZM36.2812 238.15V239.741L37.5533 238.786L36.2812 238.15ZM41.2105 242.128L42.4825 242.924V241.333L41.2105 242.128ZM40.2564 255.656L40.5745 256.452L41.8465 255.338L41.3695 255.178L40.4154 254.383L40.0974 255.019L39.4614 254.224L38.8254 255.656H39.9384V255.815L40.2564 255.656ZM55.0441 238.15V236.081L54.8851 236.24L55.2031 233.535L52.5 235.126L54.567 236.399L53.454 236.877L55.0441 238.15ZM35.1682 237.991L36.9173 237.036L35.0092 236.24L35.1682 237.991ZM45.6627 232.898L44.2316 233.216L45.3447 234.489L45.6627 232.898ZM41.2105 245.311L40.2564 246.585L42.0055 246.425L41.2105 245.311ZM66.1745 234.012L67.2876 234.171L66.3336 232.739L65.6975 234.012H66.0155L65.6975 235.922L63.6304 235.444L64.9025 234.808L62.9944 233.375L62.5174 235.126H61.7223L63.6304 238.945L61.7223 239.741L61.4043 239.582L62.8354 237.672L59.0192 237.036L59.9733 241.174L60.9273 240.06L60.4503 241.333L58.0652 241.014L59.3372 243.561L56.9521 244.675L59.3372 246.744L59.4963 243.879L60.9273 246.744L64.1074 242.128L61.2453 241.651L62.8354 241.014L63.9485 241.969L64.1074 239.9L64.5845 240.696L67.6056 236.24L66.8106 236.081L68.0826 235.285L66.1745 234.012ZM43.2776 250.563L44.2316 251.677L44.8676 250.245L43.2776 250.563ZM70.4677 227.487L69.5137 227.964L69.1957 227.487L68.7187 228.442L68.5596 228.601L68.4007 226.055L69.5137 226.85L69.3547 223.508L66.8106 224.941L67.2876 225.259L65.0615 226.691L65.6975 227.169L64.7435 227.646L67.2876 229.556V228.283L68.0826 228.76L67.9236 228.919L69.3547 229.874L65.3795 229.397L68.5596 234.967L71.4218 230.192L70.4677 230.033V227.487ZM54.408 231.306L55.0441 230.829L55.2031 231.147L56.3161 230.192L54.8851 229.874V230.192L54.09 230.033L54.408 231.306ZM56.6341 233.375L57.1112 235.603L59.3372 234.012L56.6341 233.375ZM51.2279 239.741L51.7049 241.174L53.136 240.06L51.2279 239.741ZM55.2031 227.169L56.3161 226.214L54.8851 225.895L55.2031 227.169ZM43.9136 263.295L41.3695 264.886L43.5956 266.16L43.9136 263.295ZM42.9596 271.571L43.4366 268.547L40.7334 270.138L42.9596 271.571ZM48.2068 249.131L47.0937 249.927L48.3658 250.563L48.2068 249.131ZM47.8888 260.908L47.5707 262.34L48.2068 262.022L47.8888 263.136L49.3198 262.977L48.5248 262.022L48.8428 261.863L47.8888 260.908ZM47.7298 232.739L47.5707 231.306L46.6167 232.102L47.7298 232.739ZM47.2527 243.242L46.9347 244.675L48.3658 243.879L47.2527 243.242ZM30.08 219.53L29.762 221.121L31.511 220.484L30.08 219.53ZM40.4154 219.848L41.0515 218.256L39.6204 218.416L40.4154 219.848ZM33.1011 230.511L34.6912 230.829L34.2142 229.556L33.1011 230.511ZM39.3024 232.261L40.0974 230.192L37.8713 230.829L39.3024 232.261ZM44.3906 220.803L42.8005 220.644L43.4366 222.076L43.9136 221.598L45.6627 221.917L44.7086 220.325L44.3906 220.803ZM49.7968 236.081L51.0689 234.808L49.6378 234.171L49.7968 236.081ZM42.4825 211.095L41.8465 212.686H43.7546L42.4825 211.095ZM52.0229 213.164L52.341 214.755L53.454 213.482L52.0229 213.164ZM43.4366 223.349L43.2776 221.917L41.8465 222.553L43.4366 223.349ZM36.4403 199.795L36.1223 201.387L37.8713 200.75L36.4403 199.795ZM47.4117 198.522L45.9807 198.681L46.7757 199.955L47.4117 198.522ZM40.5745 209.822L39.4614 210.936L41.0515 211.095L40.5745 209.822ZM50.4329 219.37L49.1608 217.938L48.5248 219.37H50.4329ZM45.5036 217.62L46.4577 216.347L45.0266 216.028L45.5036 217.62ZM46.4577 210.458L44.2316 211.095L45.5036 212.527L46.4577 210.458ZM50.9099 200.591L50.1149 202.023L52.0229 202.183L50.9099 200.591ZM56.1571 216.188L55.6801 215.869L55.2031 217.779L57.1112 216.983L56.1571 216.347L57.4292 215.073L55.9981 214.437L56.1571 216.188ZM52.5 227.169L53.136 225.736H51.3869L52.5 227.169ZM44.8676 215.233L46.2987 215.392L45.9807 213.959L44.8676 215.233ZM38.9844 217.938L38.1893 216.188L37.2353 217.461L38.9844 217.938ZM47.0937 220.166V221.758L48.3658 220.803L47.0937 220.166ZM36.7583 227.487L37.5533 227.646L37.2353 226.373L36.4403 227.009L35.3272 227.328L36.5993 228.442L36.7583 227.487ZM39.7794 223.19L40.8925 222.235L39.6204 221.598L39.7794 223.19ZM38.5074 221.439L40.2564 220.484L38.5074 219.689V221.439ZM49.0018 216.347L47.7298 216.665L48.6838 217.779L49.0018 216.347ZM43.7546 230.033L45.3447 229.874L44.5496 228.601L43.7546 230.033ZM50.9099 214.755L49.9558 215.551L51.2279 216.188L50.9099 214.755ZM50.5919 227.328H50.2739L50.4329 227.487L50.2739 227.964L50.7509 227.805L51.5459 228.442L51.8639 227.009L51.3869 227.169L50.7509 226.532L50.5919 227.328ZM30.239 264.727L31.511 263.454L29.762 263.295L30.239 264.727ZM37.5533 269.183L37.2353 270.616L38.5074 269.979L37.5533 269.183ZM27.5359 293.374L28.6489 292.101L26.8999 291.941L27.5359 293.374ZM35.0092 285.894L34.0552 286.69L35.3272 287.485L35.0092 285.894ZM34.3732 299.262L35.8042 298.626L34.6912 297.83L34.3732 299.262ZM33.1011 256.929L34.2142 255.656L32.4651 255.497L33.1011 256.929ZM40.5745 249.449L39.6204 250.404L40.8925 251.041L40.5745 249.449ZM40.4154 261.544L40.0974 262.818L41.3695 262.181L40.4154 261.544ZM31.511 288.122L32.6241 286.69L31.193 286.53L31.511 288.122ZM22.7657 296.557L22.6067 295.124L21.1756 295.92L22.7657 296.557ZM15.4514 274.754L17.2004 274.117L15.6104 273.003L15.4514 274.754ZM26.1048 273.321L26.5818 271.889L25.1508 272.048L26.1048 273.321ZM20.3806 284.302L19.9036 283.029L18.7905 284.143L20.3806 284.302ZM25.6278 289.713L24.3557 289.395L24.6738 290.987L25.6278 289.713ZM24.8328 285.735L25.6278 283.825L23.4017 284.461L24.8328 285.735ZM30.239 273.958L29.444 275.231L31.193 275.39L30.239 273.958ZM35.3272 287.804L35.4862 289.554L35.0092 289.236L34.5322 291.146L35.6452 290.509L33.8961 292.737L36.4403 293.374L35.8042 290.509L36.4403 290.191L35.4862 289.554L36.7583 288.44L35.3272 287.804ZM31.8291 300.376L32.3061 299.103H30.716L31.8291 300.376ZM24.1967 288.599L25.6278 288.758L25.1508 287.167L24.1967 288.599ZM18.3135 291.305L17.5185 289.554L16.4054 290.827L18.3135 291.305ZM26.2638 293.533L26.4228 294.965L27.6949 294.01L26.2638 293.533ZM16.0874 300.217L14.4973 300.694L15.9284 301.649L16.0874 300.217ZM19.1085 296.557L20.2216 295.443L18.9495 294.965L19.1085 296.557ZM17.8365 293.055V294.647L19.5855 293.692L17.8365 293.055ZM27.0589 290.032L28.0129 291.146L28.3309 289.554L27.0589 290.032ZM22.7657 271.093L24.6738 271.571L23.7197 269.82L22.7657 271.093ZM33.8961 274.276L32.6241 273.799V275.39L33.8961 274.276ZM22.1296 281.915L22.4477 280.483L20.8576 280.96L22.1296 281.915ZM27.6949 262.34L25.6278 261.863L26.1048 263.454L27.6949 262.34ZM35.4862 258.202V256.452L34.2142 257.247L35.4862 258.202ZM34.3732 270.457L33.4191 269.502L32.7831 270.934L34.3732 270.457ZM14.9743 268.388L14.6563 270.138L16.5644 269.502L14.9743 268.388ZM25.9458 267.274L24.5148 267.433L25.3098 268.706L25.9458 267.274ZM19.1085 278.573L17.9955 279.528L19.5855 279.846L19.1085 278.573ZM24.1967 281.279L24.9918 279.21L22.7657 279.846L24.1967 281.279ZM29.603 269.343L28.8079 270.775L30.557 270.934L29.603 269.343ZM34.5322 283.188L34.6912 285.098L36.1223 283.825L34.5322 283.188ZM23.0837 265.205L22.1296 266.637L24.0377 266.955L23.0837 265.205ZM31.9881 270.775L33.2601 269.82L31.9881 269.183V270.775Z" fill="#FCAA02"/>
<path d="M21.652 275.867L20.2209 276.345L21.493 277.299L21.652 275.867ZM28.8073 302.763L26.8992 302.285L27.2172 304.036L28.8073 302.763ZM35.3265 297.67L36.5986 298.625V297.034L35.3265 297.67ZM33.8955 311.357L35.6446 310.879L34.5315 309.924L33.8955 311.357ZM15.7687 310.561L17.6768 310.084L16.0867 308.97L15.7687 310.561ZM27.0582 307.696L25.6271 307.856L26.5812 309.288L27.0582 307.696ZM19.1079 320.11L20.6979 320.269L20.2209 318.996L19.1079 320.11ZM26.1042 319.632L23.8781 320.269L25.3091 321.701L26.1042 319.632ZM30.7153 309.765L29.9203 311.198L31.6694 311.357L30.7153 309.765ZM35.9626 325.521L37.2346 324.248L35.8036 323.77L35.9626 325.521ZM24.1961 305.787L23.242 307.06L25.1501 307.537L24.1961 305.787ZM33.1004 311.198L34.3725 310.243L33.1004 309.606V311.198ZM22.606 317.882L22.765 316.45L21.334 316.927L22.606 317.882ZM24.1961 296.238L24.8321 297.829L26.2632 296.556L24.1961 296.238ZM33.7365 291.782L33.5775 290.19L32.3054 290.986L33.7365 291.782ZM32.6234 303.24L32.1464 304.832L33.5775 304.195L32.6234 303.24ZM14.0197 305.468L15.7687 304.832L14.0197 303.718V305.468ZM24.5141 303.24V303.081H24.6731L24.5141 302.922L24.8321 301.649L23.56 301.967L23.7191 302.126L23.083 303.24L24.3551 303.081L24.5141 303.24ZM19.1079 313.426L18.1538 314.54L19.7439 314.699L19.1079 313.426ZM24.9911 313.744L22.765 314.54L24.3551 315.813L24.9911 313.744ZM28.8073 303.399L28.0122 304.832L29.9203 304.991L28.8073 303.399ZM35.1675 318.678L36.4396 317.245L34.8495 316.927L35.1675 318.678ZM21.97 299.898L21.016 301.331L22.924 301.49L21.97 299.898ZM31.0334 303.081L31.1924 304.673L32.4644 303.559L31.0334 303.081ZM21.493 310.72L19.9029 311.198L21.334 312.153L21.493 310.72ZM29.2843 314.221L29.7613 315.813L31.1924 314.54L29.2843 314.221ZM37.5526 321.224L37.0756 322.815L38.5067 322.179L40.4148 323.929L40.7328 320.428L38.0297 321.542L37.5526 321.224ZM18.9489 323.452L20.6979 322.815L19.1079 321.701L18.9489 323.452ZM29.9203 319.632L28.4893 319.951L29.4433 321.224L29.9203 319.632ZM24.0371 331.409L23.083 332.523L24.6731 332.682L24.0371 331.409ZM29.9203 331.728L27.8532 332.523L29.2843 333.797L29.9203 331.728ZM33.7365 321.542L32.9414 322.815L34.8495 322.975L33.7365 321.542ZM39.7787 334.911L40.0967 336.661L41.3688 335.229L39.7787 334.911ZM26.8992 317.882L26.1042 319.314L28.0122 319.473L26.8992 317.882ZM36.1216 321.065L36.2806 322.656L37.3936 321.542L36.1216 321.065ZM26.4222 328.704L24.8321 329.181L26.4222 330.136V328.704ZM31.0334 337.616L31.9874 335.547L29.7613 336.184L31.0334 337.616ZM36.5986 325.68L35.6446 327.112L37.5526 327.271L36.5986 325.68ZM41.5278 339.685L41.6868 341.436L42.9589 340.162L41.5278 339.685ZM37.8706 332.046L35.6446 332.523L37.0756 333.956L37.8706 332.046ZM48.6831 336.343L48.2061 334.115L45.503 336.661L47.57 337.616L47.7291 337.775V337.616L48.6831 338.093L47.57 339.048L48.6831 339.526L45.503 341.754L49.7961 343.027L46.298 345.414L47.411 345.892L46.139 347.006L45.98 345.892L44.8669 346.847L45.821 347.324L45.344 347.801L48.3651 349.234L47.57 345.892L51.0682 347.165L50.2732 342.709V342.868L49.4781 338.889L49.3191 339.048L49.0011 337.775L48.6831 336.661L49.0011 336.502L48.6831 336.343ZM35.6446 331.728L37.0756 330.454L35.1675 330.136L35.6446 331.728ZM24.8321 339.367L26.5812 338.571L24.8321 337.616V339.367ZM35.8036 335.547L34.3725 335.865L35.3265 337.139L35.8036 335.547ZM28.8073 348.438L30.3973 348.597L29.9203 347.324L28.8073 348.438ZM32.7824 333.797L31.8284 335.229L33.7365 335.388L32.7824 333.797ZM43.2769 337.457L41.8458 336.979L42.0048 338.571L43.2769 337.457ZM32.1464 344.459L30.7153 345.096L32.1464 345.892V344.459ZM34.8495 337.934L35.4855 339.526L36.7576 338.412L34.8495 337.934ZM43.1179 344.937L42.6408 346.528L44.2309 345.892L43.1179 344.937ZM24.5141 347.165L26.2632 346.369L24.6731 345.414L24.5141 347.165ZM34.0545 343.664L35.1675 344.937L35.4855 343.345L34.0545 343.664ZM28.6483 356.395H30.2383L29.6023 355.122L28.6483 356.395ZM33.4185 356.236L34.8495 357.509L35.4855 355.44L33.4185 356.236ZM39.3017 345.096L38.5067 346.528H40.4148L39.3017 345.096ZM33.5775 343.186L32.4644 341.595L31.6694 343.027L33.5775 343.186ZM41.8458 346.369L42.9589 345.255L41.6868 344.778L41.8458 346.369ZM31.8284 353.849L31.9874 352.417L30.5564 352.894L31.8284 353.849ZM21.97 284.62L21.811 284.461L21.1749 285.893H22.924L22.447 285.098L23.7191 284.143L21.811 283.665L21.97 284.62ZM30.2383 279.05L31.5104 280.005V278.413L30.2383 279.05ZM29.4433 291.304L28.9663 292.737L30.3973 292.259L29.4433 291.304ZM21.493 292.418L22.129 293.851L23.242 292.737L21.493 292.418ZM29.9203 288.121L29.6023 286.53L28.6483 287.326L29.9203 288.121ZM29.4433 298.466L29.1253 299.898L30.3973 299.262L29.4433 298.466ZM39.6197 272.843L37.3936 272.048L37.5526 274.753L39.6197 272.843ZM39.1427 276.663L37.0756 278.732L40.0967 279.846L39.1427 280.005L40.7328 281.437L40.8918 283.506L42.0048 282.551L43.9129 284.302L45.1849 279.209L42.1638 279.527L43.7539 278.095L41.5278 277.299L41.6868 279.687L40.0967 279.846L39.1427 276.663ZM37.0756 283.984L37.5526 284.143L35.4855 285.893L38.0297 286.848L37.8706 284.143L40.2557 284.779L38.8247 281.756L37.0756 283.984ZM35.9626 282.71L37.8706 280.482L35.4855 280.005L35.9626 282.71ZM33.1004 276.345L31.6694 277.14L32.9414 277.936L33.1004 276.345ZM40.8918 294.01L39.4607 295.76L42.0048 296.397L40.8918 294.01ZM30.5564 285.098L31.1924 283.506L29.4433 283.824L30.5564 285.098ZM35.3265 275.549L34.5315 276.663L35.9626 276.981L35.3265 275.549ZM38.8247 287.007L38.9837 288.44L39.4607 287.962V288.917L40.8918 288.44L39.6197 287.803L40.0967 287.485L38.8247 287.007ZM38.3477 301.331L35.6446 302.604L38.1887 304.991L38.3477 301.331ZM33.4185 297.034L33.5775 293.532L30.8744 294.646L33.4185 297.034ZM45.821 341.913L42.9589 343.027L45.503 345.414L45.821 341.913ZM34.6905 315.972L35.0085 312.471L32.3054 313.744L34.6905 315.972ZM36.2806 300.853L39.6197 300.376L37.0756 297.988L36.2806 300.853ZM38.1887 315.972L37.3936 318.837L38.9837 318.518L38.5067 319.155L39.7787 319.632L39.4607 318.518L40.7328 318.359L38.1887 315.972ZM43.1179 340.003L44.8669 339.844L46.139 340.64L45.98 339.685L46.616 339.526L44.0719 336.979L43.9129 337.457L43.4359 337.139L42.9589 338.73L43.7539 338.412L43.1179 340.003Z" fill="#FCAA02"/>
<path d="M44.0721 327.908L43.2771 330.931L46.6162 330.454L44.0721 327.908ZM38.3479 285.416L42.9591 289.076L40.892 288.758L41.528 290.826L38.8249 291.622L39.1429 291.145L37.2348 290.826L37.8708 293.055L38.6659 291.941L39.3019 292.577L36.7578 293.691L39.1429 296.078L39.4609 292.577L42.482 294.646L42.9591 290.349L41.846 290.667L42.9591 289.076L43.1181 289.235L43.7541 284.142L38.3479 285.416ZM40.4149 299.739L39.6199 301.648L39.3019 301.171L38.6659 302.922H40.574L40.2559 303.081H40.0969L39.1429 303.717L40.733 304.354L41.051 304.831L41.21 304.513L43.1181 305.309L42.641 301.648L40.733 302.763L39.7789 301.808L42.164 301.648L40.574 299.739L42.8001 301.012L42.641 296.556L39.6199 297.988L40.4149 296.237L38.5069 296.397L39.4609 298.147L38.3479 298.625L40.4149 299.739ZM29.4435 309.924L27.6944 310.083L28.6484 311.356L29.4435 309.924ZM34.5317 302.763L33.7367 303.717L35.0087 304.195L34.5317 302.763ZM36.4398 315.972L37.7118 315.017L36.5988 314.539L36.4398 315.972ZM32.4646 325.68L33.2596 326.953L34.2137 325.521L32.4646 325.68ZM41.369 329.977L41.21 331.409L42.482 330.613L41.369 329.977ZM33.5776 350.507L31.3516 351.143L32.7826 352.575L33.5776 350.507ZM38.1889 340.639L37.3938 342.072L39.1429 342.231L38.1889 340.639ZM43.2771 356.395L44.7081 355.122L43.1181 354.485L43.2771 356.395ZM38.6659 345.414L36.7578 345.096L37.2348 346.687L38.6659 345.414ZM45.0261 352.098L44.5491 353.53L46.1392 353.053L45.0261 352.098ZM36.7578 364.511L37.3938 362.443L35.3267 363.238L36.7578 364.511ZM40.4149 353.689H42.323L41.21 352.257L40.4149 353.689ZM47.5703 367.535L48.8423 366.103L47.2523 365.785L47.5703 367.535ZM34.3727 348.756L33.5776 350.188L35.4857 350.347L34.3727 348.756ZM43.7541 353.53L44.8671 352.416L43.5951 351.939L43.7541 353.53ZM33.7367 360.851L33.8957 359.419L32.3056 360.055L33.7367 360.851ZM40.733 357.827L41.687 356.395L39.9379 356.554L40.733 357.827ZM45.9802 350.029L47.2523 350.507L46.7752 349.074L45.9802 350.029ZM41.051 342.39L39.4609 343.027L40.574 343.982L41.051 342.39ZM44.2311 334.114L43.5951 335.388H45.0261L44.2311 334.114ZM42.9591 320.746L42.641 322.338L42.482 322.019L41.687 323.452L43.4361 323.611L42.9591 322.815L45.0261 322.338L42.9591 320.746ZM43.4361 311.516L41.846 309.447L40.892 311.516H43.4361ZM45.0261 327.908L46.9342 328.863L46.6162 326.794L45.0261 327.908ZM34.6907 309.606H37.3938L36.1218 306.9L34.6907 309.606ZM42.641 325.998L40.0969 327.749L42.9591 329.499L42.641 325.998ZM41.051 330.931L38.6659 332.682L41.528 334.433L41.051 330.931ZM40.0969 323.929L37.5528 325.68L40.4149 327.43L40.0969 323.929ZM43.2771 305.468L39.4609 307.537L39.7789 307.059H37.8708L38.3479 308.333L37.3938 308.969L38.3479 309.606L37.7118 310.083L40.574 311.834L40.2559 308.492L43.7541 309.924L43.2771 305.468ZM38.6659 309.288V309.128L39.3019 308.014L40.0969 308.333L38.6659 309.288ZM42.8001 318.2L42.005 317.404L44.5491 316.767L42.482 315.176L44.7081 315.972L43.9131 311.675L41.528 313.266L41.687 311.675L39.9379 312.311L41.051 313.584L40.0969 314.062L39.9379 312.948L37.5528 314.699L40.4149 316.608L40.0969 314.38L42.323 315.176L42.005 317.404L41.21 316.608L40.733 318.518L42.8001 318.2L41.369 319.155L43.1181 319.632L43.2771 320.109L43.4361 319.791L45.5032 320.428L44.7081 316.767L42.8001 318.2ZM44.2311 332.682L44.0721 331.886L42.9591 332.682L44.2311 333.478V332.841L48.0473 333.955L47.2523 330.295L44.2311 332.682ZM42.482 325.361L46.6162 326.475L45.8212 322.974L42.482 325.361ZM38.0298 354.326L39.3019 353.053L37.2348 352.894L38.0298 354.326ZM49.3193 357.827L46.7752 359.26L46.9342 359.1L45.5032 358.623L45.8212 360.374L46.1392 360.055L45.9802 360.533L47.4112 359.896L48.8423 360.851L48.6833 362.283L49.9554 361.329L49.3193 361.169V357.827ZM46.2982 353.53L45.8212 356.554L49.1603 355.918L46.2982 353.53ZM51.5454 357.986L51.3864 360.215L53.7715 359.26L51.5454 357.986ZM48.5243 349.074L51.2274 348.756L49.3193 346.846L48.5243 349.074ZM51.7044 348.756L49.3193 350.666L49.4783 349.074L47.7293 349.87L48.8423 350.984L48.0473 351.621L47.8883 350.507L45.5032 352.416L48.5243 354.008L48.2063 351.939L50.4324 352.416L50.2734 354.644L49.4783 354.008L49.1603 356.077L51.0684 355.44L50.7504 355.758V355.918L49.9554 356.554L51.5454 356.872L51.8634 357.191V356.872L54.0896 357.35L52.9765 353.849L51.2274 355.44L50.2734 354.644L52.8175 353.849L50.5914 352.416L52.8175 353.053L51.7044 348.756ZM51.5454 362.443L55.8386 363.238L54.5666 359.737L51.5454 362.443Z" fill="#FCAA02"/>
<path d="M66.4917 403.98C65.5376 402.229 62.0395 396.659 59.4954 392.68C57.1103 389.02 54.2482 387.588 53.2941 387.11L50.273 379.949C50.273 379.63 49.7959 379.471 49.4779 379.63C49.1599 379.63 49.0009 380.108 49.1599 380.426L52.3401 387.747C52.3401 387.906 52.4991 388.065 52.6581 388.065C52.4991 388.065 55.9972 389.497 58.3823 393.317L65.3786 404.616C66.0147 405.889 65.8556 406.208 65.6966 406.526C65.0606 406.526 62.1985 405.094 57.5873 399.842C57.4283 399.683 57.1103 399.524 56.7923 399.683C56.4742 399.842 56.4743 400.16 56.4743 400.479C56.4743 400.797 59.3364 410.982 61.5625 415.757L62.0395 416.711C63.9476 421.008 64.1066 421.327 63.7886 422.441C63.6295 422.918 63.4706 423.077 63.1525 423.237C62.6755 423.555 61.8805 423.236 61.4035 423.077L55.0432 410.982C54.8842 410.664 54.4072 410.505 54.0891 410.664C53.7711 410.823 53.6121 411.3 53.7711 411.619L60.1314 423.396V423.714C60.2904 424.032 60.4494 424.669 60.2904 425.305C60.1314 425.624 59.8134 425.783 59.4954 425.942C58.0643 426.26 56.4742 424.669 55.8382 424.032L49.7959 414.483C49.4779 414.165 49.1599 414.006 48.8419 414.324C48.7066 414.439 48.6164 414.598 48.5873 414.773C48.5581 414.947 48.592 415.127 48.6829 415.279L54.8842 424.987C55.0432 424.987 57.1103 427.533 59.4954 427.374C59.6544 427.374 59.9724 427.374 60.1314 427.215C60.7674 426.897 61.2444 426.419 61.4035 425.942C61.5625 425.465 61.5625 424.987 61.5625 424.51C61.8805 424.669 62.3575 424.669 62.8345 424.669C63.1525 424.669 63.6296 424.669 63.9476 424.351C64.4246 424.032 64.7426 423.714 65.0606 422.759C65.5376 421.168 64.9016 420.213 62.9935 415.916L62.5165 414.961C60.9264 411.778 59.1774 405.889 58.2233 402.547C61.4035 405.73 64.1066 407.64 65.3786 407.64C65.8556 407.64 66.1737 407.481 66.3327 407.322C66.9687 406.844 67.4457 405.89 66.4917 403.98ZM270.02 276.344C269.702 276.026 269.225 276.026 268.907 275.867C269.341 275.211 269.512 274.415 269.384 273.639C269.384 273.161 269.066 272.525 268.112 272.047C266.681 271.41 265.886 271.57 261.275 272.684L260.321 272.843C256.823 273.639 250.781 274.434 247.283 274.753C250.94 272.365 253.325 269.978 253.643 268.705C253.802 268.228 253.643 267.909 253.484 267.75C253.007 267.114 252.212 266.477 250.145 267.114L237.742 271.888C233.767 273.479 231.7 276.185 231.064 276.981L223.59 278.572C223.272 278.572 223.113 279.05 223.113 279.368C223.113 279.686 223.59 279.845 223.908 279.845L231.7 278.095C231.859 278.095 231.859 277.936 232.018 277.776C232.018 277.776 233.926 274.753 238.219 273.002C240.604 271.888 248.396 268.864 250.463 268.228C251.894 267.909 252.212 268.228 252.371 268.387C252.212 269.023 250.304 271.57 244.261 275.071C244.261 275.071 244.102 275.071 244.102 275.23C243.784 275.23 243.466 275.548 243.466 275.867C243.466 275.867 243.466 279.209 241.399 281.914C239.332 284.62 234.403 285.256 234.403 285.256C233.926 285.415 233.767 285.734 233.767 286.052C233.926 286.529 234.244 286.689 234.562 286.689C234.721 286.689 239.968 285.893 242.353 282.869C244.261 280.482 244.579 277.936 244.738 276.662C244.738 276.503 244.738 276.503 244.897 276.344C246.487 276.185 255.869 275.389 260.48 274.116L261.434 273.957C265.886 272.843 266.363 272.843 267.317 273.32C267.635 273.639 267.794 273.798 267.953 274.116C268.112 274.753 267.794 275.548 267.317 275.867L254.597 279.845C254.12 279.209 253.643 278.572 252.848 278.095C252.53 277.936 252.053 277.936 251.894 278.254C251.735 278.572 251.735 279.05 252.053 279.209C257.3 283.665 255.869 290.19 255.869 290.508C255.71 290.826 256.028 291.145 256.346 291.304C256.664 291.463 256.982 291.145 257.141 290.826C257.141 290.667 257.3 290.19 257.3 289.394V286.689L267.794 282.551C267.953 282.551 270.816 281.278 270.975 278.89C271.134 277.617 270.497 276.662 270.02 276.344ZM267.158 281.437L256.982 285.415C256.664 283.983 256.187 282.551 255.233 280.959L267.476 277.14C268.112 277.14 268.748 277.14 269.225 277.299C269.371 277.373 269.494 277.488 269.578 277.628C269.662 277.769 269.705 277.931 269.702 278.095C269.861 279.686 267.953 280.959 267.158 281.437Z" fill="#CC7A5E"/>
</g>
<defs>
<linearGradient id="paint0_linear_1608_3461" x1="71.9625" y1="156.538" x2="82.8983" y2="142.463" gradientUnits="userSpaceOnUse">
<stop stop-color="#BC5A32" stop-opacity="0"/>
<stop offset="0.99" stop-color="#BC5A32"/>
</linearGradient>
<linearGradient id="paint1_linear_1608_3461" x1="90.9" y1="107.84" x2="85.0717" y2="94.3638" gradientUnits="userSpaceOnUse">
<stop stop-color="#BC5A32" stop-opacity="0"/>
<stop offset="0.99" stop-color="#BC5A32"/>
</linearGradient>
<linearGradient id="paint2_linear_1608_3461" x1="64.2499" y1="129.293" x2="64.7915" y2="120.81" gradientUnits="userSpaceOnUse">
<stop stop-color="#CC7A5E" stop-opacity="0"/>
<stop offset="0.92" stop-color="#AA5F4B"/>
</linearGradient>
<linearGradient id="paint3_linear_1608_3461" x1="182.376" y1="278.568" x2="110.898" y2="257.022" gradientUnits="userSpaceOnUse">
<stop offset="0.01" stop-color="#F5B421" stop-opacity="0"/>
<stop offset="0.985" stop-color="#DD6002"/>
</linearGradient>
<linearGradient id="paint4_linear_1608_3461" x1="133.057" y1="251.493" x2="32.5534" y2="247.274" gradientUnits="userSpaceOnUse">
<stop offset="0.01" stop-color="#F5B421" stop-opacity="0"/>
<stop offset="0.985" stop-color="#DD6002"/>
</linearGradient>
<linearGradient id="paint5_linear_1608_3461" x1="50.7385" y1="352.135" x2="69.2488" y2="350.402" gradientUnits="userSpaceOnUse">
<stop stop-color="#CC7A5E" stop-opacity="0"/>
<stop offset="0.924" stop-color="#AA5F4B"/>
</linearGradient>
<linearGradient id="paint6_linear_1608_3461" x1="16.6254" y1="315.62" x2="59.056" y2="366.708" gradientUnits="userSpaceOnUse">
<stop offset="0.01" stop-color="#F5B421" stop-opacity="0"/>
<stop offset="0.985" stop-color="#DD6002"/>
</linearGradient>
<clipPath id="clip0_1608_3461">
<rect width="152" height="304" rx="6" fill="white"/>
</clipPath>
</defs>
</svg>
