<svg width="33" height="33" viewBox="0 0 33 33" fill="none" xmlns="http://www.w3.org/2000/svg">
<path fill-rule="evenodd" clip-rule="evenodd" d="M21.1435 22.1773V17.904C21.1435 13.6307 19.6961 12.1833 15.4227 12.1833H11.1494L9.63309 12.1833C5.35977 12.1833 3.91235 13.6307 3.91235 17.904V23.6937C3.91235 27.967 5.35977 29.4144 9.63309 29.4144H15.4227C19.6961 29.4144 21.1435 27.967 21.1435 23.6937V22.1773ZM10.1156 10.1156V9.63309C10.1156 4.24319 12.5141 1.84462 17.904 1.84462H23.6937C29.0836 1.84462 31.4822 4.24319 31.4822 9.63309V15.4227C31.4822 20.8126 29.0836 23.2112 23.6937 23.2112H23.2112V23.6937C23.2112 29.0836 20.8126 31.4822 15.4227 31.4822H9.63309C4.24319 31.4822 1.84462 29.0836 1.84462 23.6937V17.904C1.84462 12.5141 4.24319 10.1156 9.63309 10.1156H10.1156ZM12.1833 10.1156H15.4227C20.8126 10.1156 23.2112 12.5141 23.2112 17.904V21.1435H23.6937C27.967 21.1435 29.4144 19.6961 29.4144 15.4227V9.63309C29.4144 5.35977 27.967 3.91235 23.6937 3.91235H17.904C13.6307 3.91235 12.1833 5.35977 12.1833 9.63309V10.1156Z" fill="white"/>
</svg>
