<svg width="152" height="304" viewBox="0 0 152 304" fill="none" xmlns="http://www.w3.org/2000/svg">
<g clip-path="url(#clip0_1608_3072)">
<rect width="152" height="304" rx="6" fill="#212130"/>
<path d="M71.8595 155.649L58.1913 200.299L54.1819 210.687C54.1819 210.687 60.0137 218.158 73.8642 221.074C83.3408 223.079 89.7193 223.261 93.9109 222.897C97.3735 222.532 101.565 221.803 99.3781 215.425C96.28 205.948 97.3735 199.934 97.3735 199.934L102.294 173.145L71.8595 155.649Z" fill="#EA9D7D"/>
<path d="M69.673 179.705C74.2291 186.63 82.2478 192.462 86.8039 194.649C93.1824 197.747 97.7384 198.476 97.7384 198.476L101.748 176.243L71.86 155.649L70.2198 158.747L68.9441 163.85C68.7618 164.032 65.4815 173.327 69.673 179.705Z" fill="url(#paint0_linear_1608_3072)"/>
<path d="M122.523 121.752C124.528 125.579 123.981 132.14 123.981 134.327C123.799 141.252 123.252 150.547 121.977 157.836C119.972 168.771 114.505 174.238 108.673 176.061C102.841 177.883 93 174.238 85.8925 170.593C79.8785 167.495 76.4159 164.215 75.5047 160.388C74.5935 156.379 72.7711 151.276 72.7711 151.276L76.0514 142.528C76.0514 142.528 81.5187 122.481 90.4486 116.103C101.019 108.631 112.135 116.832 112.135 116.832C112.135 116.832 118.878 115.009 122.523 121.752Z" fill="#EA9D7D"/>
<path d="M55.2759 211.051H55.0937C54.9263 210.966 54.7863 210.835 54.6896 210.674C54.5929 210.513 54.5435 210.328 54.547 210.14L63.1124 183.897C64.7525 178.43 69.6731 160.023 69.6731 160.023C69.7584 159.856 69.8892 159.716 70.0503 159.619C70.2114 159.523 70.3964 159.473 70.5843 159.477C70.7517 159.562 70.8917 159.693 70.9884 159.854C71.085 160.015 71.1345 160.2 71.131 160.388L64.5703 184.262C63.1124 189.182 56.0049 210.322 56.0049 210.322C56.0049 210.869 55.6404 211.051 55.2759 211.051Z" fill="#CF7653"/>
<path d="M103.388 177.154C101.383 177.154 99.7432 176.79 96.0984 175.879C90.2666 174.421 82.0657 169.865 77.8741 165.855C73.8648 161.846 74.2293 158.019 74.2293 157.836C74.2293 157.472 74.2293 156.925 74.5938 156.925C74.9583 156.925 75.1405 157.29 75.3227 157.654C75.505 158.383 75.505 161.481 78.7853 164.762C82.6124 168.589 90.8134 172.963 96.2806 174.421C101.93 175.696 103.024 176.061 107.215 175.696C111.225 175.332 113.229 173.874 113.229 173.874C113.958 173.327 114.14 173.327 113.776 173.874C113.411 174.238 111.407 176.243 107.397 176.972C105.757 177.154 104.664 177.154 103.388 177.154Z" fill="#B76349"/>
<path d="M76.9622 166.219L77.3267 167.131L78.0557 166.402L76.9622 166.219Z" fill="#A84D3B"/>
<path d="M76.9616 165.126L76.4149 166.766L78.4196 166.402L76.9616 165.126ZM86.6205 172.051V174.056L88.6252 173.145L86.6205 172.051ZM81.6999 168.953L81.5177 170.958L83.5224 170.229L81.6999 168.953ZM78.9663 166.949L78.6018 168.953L80.7887 168.407L78.9663 166.949Z" fill="#A84D3B"/>
<path d="M75.6863 163.304L74.9573 165.126H77.1443L75.6863 163.304ZM89.3545 176.425L88.4433 175.332L87.7143 176.607L89.3545 176.425ZM86.8031 174.42L85.7097 172.962L85.1629 174.603L86.8031 174.42ZM94.2751 178.248L92.9994 176.972L92.6349 178.43L94.2751 178.248ZM99.7423 180.252L98.4666 178.794L97.9199 180.434L99.7423 180.252ZM90.0835 173.691L88.99 173.145V174.785L90.0835 173.691ZM92.6349 179.341L91.7237 178.43L91.1769 179.705L92.6349 179.341ZM85.5274 172.051L84.434 171.322L84.2517 172.962L85.5274 172.051ZM95.1863 175.878L93.3638 175.149L93.5461 177.336L95.1863 175.878ZM98.6489 176.425L97.191 176.243L97.5554 177.883L98.6489 176.425ZM101.018 179.341H99.5601L100.107 180.617L101.018 179.341ZM95.9153 178.976L95.3685 177.701L94.4573 178.976H95.9153ZM100.289 183.168L100.471 181.892L99.0134 182.257L100.289 183.168ZM99.9246 185.537L100.107 184.262L98.6489 184.626L99.9246 185.537ZM96.8265 185.537L96.0975 186.084L97.0087 186.631L96.8265 185.537ZM97.3732 178.43L96.6442 179.159L97.7377 179.705L97.3732 178.43ZM101.565 177.154L100.471 176.972L100.836 178.065L101.565 177.154ZM98.1022 187.724L97.3732 188.271L98.4666 188.818L98.1022 187.724ZM80.0601 168.771L79.3312 169.318L80.2424 169.864L80.0601 168.771ZM73.8639 160.388L73.1349 160.934L74.0461 161.481L73.8639 160.388ZM92.2704 177.519L91.7237 176.972L91.5414 177.883L92.2704 177.519ZM87.1676 176.061L87.3499 175.332H86.4386L87.1676 176.061ZM89.719 177.701L90.0835 176.972H89.1723L89.719 177.701ZM93.5461 181.346L93.9106 182.257L94.8218 181.528L93.5461 181.346ZM98.8311 177.701L98.2844 178.248L99.0134 178.612L98.8311 177.701Z" fill="#A84D3B"/>
<path d="M99.1956 176.789L98.2844 177.518L99.3778 178.065L99.1956 176.789ZM97.0087 177.518L96.2797 178.065L97.0087 178.43V177.518ZM97.7377 190.458L97.0087 190.822L97.7377 191.369V190.458ZM95.733 188.453L96.0975 189.182L96.6442 188.453H95.733ZM95.5508 184.079L95.9152 184.808L96.462 184.079H95.5508ZM99.0134 185.719L98.4666 185.355L98.2844 186.084L99.0134 185.719ZM73.6816 177.154L74.0461 177.518L74.4106 176.972L73.6816 177.154ZM77.1442 174.967L76.7798 175.331H77.3265L77.1442 174.967ZM80.7891 181.345L80.2424 181.163L80.4246 181.892L80.7891 181.345ZM78.9667 178.247L78.6022 178.794H79.3311L78.9667 178.247ZM91.5414 184.079L91.3592 185.173L92.4526 184.626L91.5414 184.079ZM89.9012 175.878V176.789L90.8124 176.425L89.9012 175.878ZM89.9012 174.056V174.967L90.9947 174.42L89.9012 174.056ZM75.8685 168.406V169.5L76.7798 168.953L75.8685 168.406ZM97.7377 181.71L96.8265 181.892L97.5554 182.621L97.7377 181.71ZM95.004 189.364L94.6395 188.635L93.9106 189.364H95.004ZM95.5508 179.888L96.0975 180.616L96.6442 179.705L95.5508 179.888ZM98.4666 180.981L99.0134 181.892L99.5601 180.799L98.4666 180.981ZM100.289 177.518L99.7423 178.247L100.654 178.43L100.289 177.518ZM99.1956 183.35L98.4666 182.803V183.897L99.1956 183.35ZM78.6022 167.131L77.5087 167.859L78.7844 168.588L78.6022 167.131ZM74.9573 168.588L74.4106 168.042L74.2283 168.953L74.9573 168.588ZM71.3125 166.766L70.948 166.402L70.7657 167.131L71.3125 166.766ZM70.4013 172.416L70.5835 171.687H69.8545L70.4013 172.416ZM77.3265 168.406L77.691 169.135L78.4199 168.406H77.3265ZM75.1396 166.584L75.6863 167.677L76.5975 166.766L75.1396 166.584ZM74.7751 161.663L74.0461 162.757L75.5041 162.939L74.7751 161.663ZM80.2424 170.411L79.6956 170.775L80.4246 171.322L80.2424 170.411ZM81.7003 169.682L81.1536 170.046L81.8826 170.411L81.7003 169.682ZM83.1583 170.411L82.6115 170.775L83.1583 171.322V170.411ZM80.4246 175.331L80.0601 174.967L79.8779 175.696L80.4246 175.331ZM69.4901 169.135L69.8545 169.682L70.4013 168.953L69.4901 169.135ZM73.6816 164.944L73.1349 165.308L73.8639 165.673L73.6816 164.944ZM73.4994 171.687L72.9527 171.322L72.7704 172.051L73.4994 171.687ZM74.0461 164.215L74.4106 164.761L74.9573 164.032L74.0461 164.215ZM75.8685 165.126L76.233 165.855L76.7798 165.126H75.8685ZM71.677 163.303L71.1302 163.85L71.8592 164.032L71.677 163.303ZM72.2237 161.481L71.677 161.117L71.4947 161.845L72.2237 161.481ZM81.8826 171.504V172.233L82.7938 171.869L81.8826 171.504ZM85.3452 172.962L84.6162 173.145L85.1629 173.691L85.3452 172.962ZM83.8872 171.504L83.1583 171.687L83.705 172.233L83.8872 171.504ZM96.0975 176.972L95.3685 177.154L95.9152 177.701L96.0975 176.972ZM93.3638 175.878L92.8171 176.06L93.1816 176.607L93.3638 175.878ZM84.7984 177.154L84.6162 176.607L84.0695 177.154H84.7984ZM95.004 186.266L94.8218 185.719L94.275 186.266H95.004ZM83.8872 175.331L83.5227 174.785L82.976 175.331H83.8872ZM88.6255 174.238V175.149L89.3545 174.785L88.6255 174.238ZM91.5414 174.967V175.696L92.2704 175.331L91.5414 174.967ZM94.8218 176.607L94.0928 176.789L94.6395 177.336L94.8218 176.607ZM92.2704 180.252L91.9059 179.705L91.5414 180.252H92.2704ZM84.4339 180.07V180.799L85.1629 180.434L84.4339 180.07ZM87.8965 178.247L87.3498 178.43L87.7143 178.976L87.8965 178.247ZM94.0928 179.705L93.9106 179.159L93.3638 179.705H94.0928Z" fill="#A84D3B"/>
<path d="M93.5464 133.78C93.2771 133.571 93.092 133.272 93.0251 132.937C92.9582 132.602 93.0139 132.255 93.1819 131.958C93.3642 131.776 96.2801 127.402 102.841 127.949C103.57 127.949 104.117 128.678 104.117 129.407C104.117 130.136 103.388 130.682 102.659 130.682C97.738 130.318 95.7333 133.416 95.5511 133.598C94.8221 134.327 93.7287 133.963 93.5464 133.78ZM120.883 130.682C120.701 130.682 120.336 130.682 120.154 130.5C118.878 129.589 117.42 129.771 117.238 129.771C116.509 129.953 115.78 129.407 115.598 128.678C115.416 127.949 115.962 127.22 116.691 127.037C116.873 127.037 119.425 126.308 121.794 128.313C122.341 128.678 122.341 129.589 121.976 130.136C121.794 130.5 121.247 130.682 120.883 130.682Z" fill="#AF361A"/>
<path d="M104.117 165.855C97.1916 165.491 94.2757 160.57 93.5467 157.836C93.3645 157.107 93.729 156.378 94.4579 156.196C95.1869 156.014 95.9159 156.378 96.0981 157.107C96.0981 157.29 97.5561 162.757 104.117 163.121C104.846 163.121 105.392 163.85 105.392 164.397C105.392 165.308 104.846 165.855 104.117 165.855Z" fill="#CF7653"/>
<path d="M110.495 155.831H110.131C109.402 155.831 109.037 155.102 109.037 154.556C109.037 153.827 109.766 153.462 110.313 153.462C110.677 153.462 111.589 153.462 111.953 152.369C112.318 151.275 111.406 149.635 111.042 149.088C110.677 148.542 110.677 147.813 111.224 147.448C111.771 147.084 112.5 147.084 112.864 147.631C113.047 147.995 115.051 150.546 114.322 153.098C113.593 155.285 111.589 155.831 110.495 155.831Z" fill="#B4603F"/>
<path d="M100.471 145.991C101.88 145.991 103.023 144.848 103.023 143.439C103.023 142.03 101.88 140.888 100.471 140.888C99.0623 140.888 97.92 142.03 97.92 143.439C97.92 144.848 99.0623 145.991 100.471 145.991Z" fill="#4F2B23"/>
<path d="M99.9244 142.71C99.5599 142.71 98.2842 143.075 98.1019 142.71C97.9197 142.164 98.8309 141.252 99.5599 140.888C101.382 139.977 102.84 140.159 103.387 140.159C103.629 140.159 103.86 140.255 104.031 140.426C104.202 140.597 104.298 140.828 104.298 141.07C104.298 141.312 104.202 141.544 104.031 141.714C103.86 141.885 103.629 141.981 103.387 141.981C102.84 141.981 101.747 141.981 100.289 142.528C100.289 142.71 100.107 142.71 99.9244 142.71Z" fill="#4F2B23"/>
<path d="M119.424 144.533C120.834 144.533 121.976 143.39 121.976 141.981C121.976 140.572 120.834 139.43 119.424 139.43C118.015 139.43 116.873 140.572 116.873 141.981C116.873 143.39 118.015 144.533 119.424 144.533Z" fill="#4F2B23"/>
<path d="M118.877 141.252C118.513 141.252 117.237 141.617 117.055 141.252C116.873 140.706 117.784 139.794 118.513 139.43C120.335 138.519 121.793 138.701 122.34 138.701C122.582 138.701 122.813 138.797 122.984 138.968C123.155 139.139 123.251 139.37 123.251 139.612C123.251 139.854 123.155 140.086 122.984 140.256C122.813 140.427 122.582 140.523 122.34 140.523C121.793 140.523 120.7 140.523 119.242 141.07C119.242 141.252 119.06 141.252 118.877 141.252Z" fill="#4F2B23"/>
<path d="M105.757 151.275L106.85 150.729L105.575 149.817L105.757 151.275ZM91.9063 149.635L91.5418 148.542L90.6306 149.453L91.9063 149.635ZM109.584 150.182H111.224L110.313 148.542L109.584 150.182ZM106.668 144.715L107.761 145.626L108.126 144.168L106.668 144.715ZM107.397 143.074L109.037 142.163L107.579 141.07L107.397 143.074ZM110.313 157.654L111.771 156.925L110.495 155.831L110.313 157.654ZM114.504 156.014L115.233 154.374L113.593 154.738L114.504 156.014ZM105.392 149.817L104.117 150L104.846 151.458L105.392 149.817Z" fill="#F4B9A6"/>
<path d="M106.486 148.177L105.028 148.36L105.939 149.635L106.486 148.177ZM105.574 155.103L105.939 156.378L107.215 155.467L105.574 155.103ZM105.939 157.654L107.032 158.383L107.397 156.925L105.939 157.654ZM112.135 162.028L110.859 162.21L111.771 163.486L112.135 162.028ZM109.401 134.327L108.855 135.238H110.313L109.401 134.327ZM109.948 142.346L108.855 141.981L109.219 143.075L109.948 142.346ZM111.406 138.336L110.313 138.154L110.677 139.43L111.406 138.336ZM103.752 143.439L103.387 144.715L104.845 144.35L103.752 143.439ZM105.21 137.972L104.116 138.519L105.21 139.43V137.972ZM99.9248 139.247L99.1958 139.43L99.5603 140.159L99.9248 139.247ZM109.948 161.846L108.855 162.028L109.584 163.121L109.948 161.846ZM108.672 161.117L107.579 161.299L108.308 162.392L108.672 161.117ZM99.7425 153.28H98.6491L99.1958 154.374L99.7425 153.28ZM102.294 155.467L101.2 155.649L101.747 156.561L102.294 155.467ZM99.1958 149.453L98.8313 150.547L100.289 150.182L99.1958 149.453ZM105.028 148.724L104.845 147.813L103.752 148.542L105.028 148.724ZM115.962 159.112L116.509 158.383H115.415L115.962 159.112ZM111.953 155.832L112.5 156.561L112.864 155.285L111.953 155.832ZM119.425 148.724V149.635L120.154 149.271L119.425 148.724ZM115.78 152.187L116.509 152.369V151.458L115.78 152.187Z" fill="#F4B9A6"/>
<path d="M119.607 150L119.972 149.453L119.061 149.271L119.607 150ZM97.0093 141.799L96.4626 142.528H97.3738L97.0093 141.799ZM107.762 137.607L109.22 137.425L108.308 136.149L107.762 137.607ZM107.579 153.645L109.22 153.28L108.126 152.004L107.579 153.645ZM106.486 143.075L105.392 142.892L105.575 143.986L106.486 143.075ZM97.556 150.182V149.089L96.2803 149.453L97.556 150.182ZM104.846 139.794V141.07L106.304 140.523L104.846 139.794ZM103.206 142.346V143.621L104.846 142.892L103.206 142.346ZM104.663 141.252L104.481 142.528L105.939 141.981L104.663 141.252ZM115.416 141.799L116.509 142.346V141.07L115.416 141.799ZM106.304 146.902L105.757 145.99L105.028 146.902H106.304ZM110.495 160.57L109.584 160.934L110.313 161.663L110.495 160.57ZM106.121 153.28L105.757 154.009H107.033L106.121 153.28ZM106.85 158.93L106.486 158.018L105.939 158.93H106.85ZM108.491 159.841L109.22 159.294L108.126 158.747L108.491 159.841ZM109.037 157.836L109.949 157.29L108.855 156.561L109.037 157.836ZM108.673 156.561L109.584 156.014L108.491 155.285L108.673 156.561ZM108.673 151.822L109.584 151.275L108.491 150.547L108.673 151.822ZM106.486 151.822L107.215 152.551L107.579 151.64L106.486 151.822ZM115.416 160.205L114.322 160.57L115.051 161.299L115.416 160.205ZM111.042 150.911L110.677 151.64L111.771 151.822L111.042 150.911ZM112.682 160.752L112.135 160.205L111.589 160.934L112.682 160.752ZM106.85 163.668L107.033 164.579L108.126 164.032L106.85 163.668ZM104.663 158.201L103.57 158.565L104.299 159.294L104.663 158.201ZM95.5514 146.537L95.0046 145.808L94.4579 146.719L95.5514 146.537ZM105.028 160.57L105.757 160.934L105.939 160.023L105.028 160.57ZM102.294 158.565L103.206 158.93V158.018L102.294 158.565ZM100.29 165.673L99.7429 166.402L100.836 166.219L100.29 165.673ZM98.8317 164.397L97.9205 164.215L98.1027 165.126L98.8317 164.397ZM97.0093 164.032H96.0981L96.2803 164.944L97.0093 164.032ZM107.397 149.818L109.22 149.635L107.762 147.813L107.397 149.818ZM106.304 145.444L106.668 146.355L107.397 145.444H106.304Z" fill="#F4B9A6"/>
<path d="M106.304 147.084L107.215 148.542L108.491 147.084H106.304ZM111.224 145.079L109.766 146.173L111.771 146.901L111.224 145.079ZM99.014 146.901L99.1962 146.173L98.1028 146.537L99.014 146.901ZM109.949 146.719L109.402 147.266L110.313 147.813L109.949 146.719ZM106.85 140.887L107.944 140.705L107.215 139.794L106.85 140.887ZM113.776 143.803L115.051 143.621L114.14 142.71L113.776 143.803ZM106.121 143.439L107.215 143.074L106.486 142.163L106.121 143.439ZM114.505 138.701L115.598 138.518L114.869 137.607L114.505 138.701ZM110.86 135.967L109.949 136.331L111.042 136.878L110.86 135.967ZM101.748 138.336L101.93 137.425L100.836 137.972L101.748 138.336ZM101.748 152.551L101.565 153.827L103.023 153.462L101.748 152.551ZM100.107 151.822H99.014L99.5607 153.098L100.107 151.822ZM102.112 156.925L101.748 158.018L103.023 157.654L102.112 156.925ZM104.117 152.369V153.644L105.392 153.098L104.117 152.369ZM102.659 154.556V156.014L104.299 155.467L102.659 154.556ZM101.565 150.911L101.748 150L100.654 150.546L101.565 150.911ZM116.509 144.532L117.603 144.35L116.874 143.621L116.509 144.532ZM112.682 140.523L113.047 141.434L113.776 140.705L112.682 140.523ZM119.79 154.009L120.701 153.827L119.972 153.098L119.79 154.009ZM103.935 138.336V137.607L103.023 137.972L103.935 138.336ZM110.495 141.07L110.313 142.163L111.589 141.799L110.495 141.07ZM109.22 138.883L109.037 139.976L110.313 139.612L109.22 138.883ZM111.953 146.901L113.593 148.177L114.322 146.173L111.953 146.901ZM114.14 150L115.963 149.453L114.869 147.813L114.14 150ZM107.944 150.546L108.673 150.729L108.491 150L107.944 150.546ZM107.944 145.99L107.579 146.719H108.673L107.944 145.99ZM110.131 143.803H109.037L109.766 144.715L110.131 143.803ZM113.593 144.532H112.5L113.047 145.808L113.593 144.532Z" fill="#F4B9A6"/>
<path d="M110.313 145.079L112.135 144.168L110.313 142.892V145.079ZM113.411 136.878L114.14 135.967L112.682 135.785L113.411 136.878ZM107.943 155.103L108.672 154.009L107.215 153.827L107.943 155.103ZM108.49 147.084L110.13 146.173L108.672 145.079L108.49 147.084ZM110.859 139.612L111.406 140.159L111.771 139.248L110.859 139.612ZM113.046 141.617L111.771 143.075L114.14 143.439L113.046 141.617ZM114.869 139.248L114.322 140.159L115.415 140.341L114.869 139.248ZM115.415 146.355L115.962 147.084L116.509 146.173L115.415 146.355ZM113.046 138.154L112.5 138.883L113.593 139.065L113.046 138.154ZM98.1024 146.355L96.8267 146.72L97.7379 147.631L98.1024 146.355ZM103.205 144.715L102.476 145.626L103.752 145.808L103.205 144.715ZM102.294 146.355L102.112 145.444L101.201 146.173L102.294 146.355ZM101.018 147.266V146.355L100.107 146.902L101.018 147.266Z" fill="#F4B9A6"/>
<path d="M110.495 143.804L109.219 142.528C109.219 142.528 110.313 141.07 112.135 141.07C113.958 141.07 115.233 141.982 115.233 142.164L114.14 143.622C114.14 143.622 113.411 142.893 112.318 142.893C111.406 142.893 110.495 143.804 110.495 143.804Z" fill="white"/>
<path d="M121.612 152.551C118.331 152.369 115.78 147.813 115.962 142.71C116.144 137.608 119.06 133.234 122.341 133.234C122.887 133.234 123.616 133.416 124.163 133.598V131.594C123.616 131.411 123.07 131.229 122.523 131.229C118.149 131.047 114.504 136.332 114.322 142.528C114.14 148.907 117.42 154.374 121.794 154.374H122.523L122.705 152.551H121.612Z" fill="white"/>
<path d="M129.995 143.257C130.177 137.79 127.808 132.869 124.163 131.593V133.598C126.532 135.056 128.172 138.701 127.99 143.257C127.808 147.995 125.439 152.004 122.523 152.733L122.341 154.556C126.532 154.374 129.812 149.453 129.995 143.257Z" fill="#CCCCCC"/>
<path d="M84.252 140.341C84.252 140.341 91.5417 128.313 97.738 124.668C105.028 120.476 117.056 117.925 117.056 117.925L85.1632 107.902L84.252 140.341Z" fill="url(#paint1_linear_1608_3072)"/>
<path d="M66.7566 169.682C66.7566 169.682 48.3501 162.028 46.3454 143.075C44.3407 124.121 55.822 112.822 55.822 112.822L55.093 106.262C55.093 106.262 47.2566 104.075 44.8874 93.5045C42.7005 84.3924 49.9902 76.3737 58.3734 73.2756C68.579 69.4485 80.4248 74.7335 83.5229 83.8457C86.2565 91.4999 82.2472 96.7849 82.2472 96.7849L85.5276 100.794C85.5276 100.794 97.3733 93.869 109.948 100.976C122.341 108.084 129.63 121.205 131.271 122.846C132.364 123.757 123.616 125.215 114.14 123.757C104.663 122.299 95.1864 118.836 92.8173 117.561C90.8126 116.103 90.6304 117.014 90.8126 120.112C91.1771 124.85 91.3593 138.883 82.4294 142.346C78.6023 143.804 76.2332 142.71 76.2332 142.71L66.7566 169.682Z" fill="#C94112"/>
<path d="M55.6402 113.187L86.257 100.43L83.8879 94.7803L52.7244 106.991L55.6402 113.187Z" fill="url(#paint2_linear_1608_3072)"/>
<path d="M68.7617 159.659C74.0961 159.659 78.4206 155.008 78.4206 149.271C78.4206 143.534 74.0961 138.883 68.7617 138.883C63.4272 138.883 59.1028 143.534 59.1028 149.271C59.1028 155.008 63.4272 159.659 68.7617 159.659Z" fill="#EA9D7D"/>
<path d="M69.3079 153.827C71.7235 153.827 73.6817 151.787 73.6817 149.271C73.6817 146.754 71.7235 144.715 69.3079 144.715C66.8923 144.715 64.9341 146.754 64.9341 149.271C64.9341 151.787 66.8923 153.827 69.3079 153.827Z" fill="url(#paint3_linear_1608_3072)"/>
<path d="M75.1404 155.832C73.5002 157.654 71.131 158.748 68.7619 158.748C63.8413 158.748 59.832 154.374 59.832 149.089C59.832 143.804 63.8413 139.43 68.7619 139.43C72.2245 139.43 75.3226 141.617 76.7806 144.715C76.7806 144.715 77.1451 144.897 77.6918 144.533C78.2385 144.168 78.0563 143.439 78.0563 143.439C76.2338 140.159 72.7712 137.79 68.9441 137.79C63.1124 137.79 58.3741 142.71 58.3741 148.907C58.3741 154.921 63.1124 160.023 68.9441 160.023C71.4955 160.023 73.5002 159.294 75.3226 157.836L75.1404 155.832Z" fill="#B76349"/>
<path d="M73.3172 150.364V149.635L72.5883 149.818L73.3172 150.364ZM70.2191 144.897L69.4901 145.079L70.0369 145.808L70.2191 144.897Z" fill="#964C38"/>
<path d="M70.0365 145.079L69.1253 146.173L70.7655 146.537L70.0365 145.079ZM68.3963 144.897L67.3029 145.262L68.2141 146.173L68.3963 144.897ZM73.1346 147.631L72.5879 147.995L73.3169 148.36L73.1346 147.631ZM71.4944 146.72L70.9477 147.266L71.6767 147.449L71.4944 146.72Z" fill="#964C38"/>
<path d="M72.5886 147.995L72.2242 148.542L72.9531 148.906L72.5886 147.995ZM68.5793 146.537L68.0326 146.902L68.9438 147.266L68.5793 146.537Z" fill="#964C38"/>
<path d="M67.6677 145.991L66.9387 146.902L68.2145 147.266L67.6677 145.991ZM70.7659 149.271L71.1303 149.635L71.3126 149.089L70.7659 149.271ZM72.7705 147.084L72.5883 147.449H73.135L72.7705 147.084ZM73.135 148.724L72.9528 149.271H73.4995L73.135 148.724ZM66.5743 145.808L65.8453 146.537L66.9387 146.72L66.5743 145.808ZM68.0322 148.542H67.6677L67.85 149.089L68.0322 148.542ZM69.1257 150.182L68.9434 149.635L68.5789 150L69.1257 150.182ZM70.5836 145.626L70.9481 145.262L70.4014 144.897L70.5836 145.626ZM68.3967 145.626L67.85 146.173L68.7612 146.355L68.3967 145.626ZM67.4855 146.173L66.9387 145.808V146.537L67.4855 146.173Z" fill="#964C38"/>
<path d="M67.4857 146.173V145.626H66.9389L67.4857 146.173ZM71.8595 146.902L72.224 147.448L72.5885 146.902H71.8595ZM71.1305 145.262L70.9483 146.537L72.224 146.173L71.1305 145.262Z" fill="#964C38"/>
<path d="M70.5834 146.173L71.1302 146.537L71.3124 145.808L70.5834 146.173ZM66.2096 147.813L65.8451 148.36H66.3919L66.2096 147.813ZM69.49 144.897L68.9432 144.715L69.1255 145.444L69.49 144.897ZM68.3965 148.177L68.761 148.724L69.1255 147.995L68.3965 148.177ZM69.8545 150.546L69.6722 150.911L70.2189 151.093L69.8545 150.546ZM66.0274 146.537L65.6629 147.084L66.3919 147.266L66.0274 146.537Z" fill="#964C38"/>
<path d="M67.6676 150.546L67.1208 150.364L67.3031 150.911L67.6676 150.546ZM65.6629 147.631L66.2096 147.448L65.8451 146.902L65.6629 147.631Z" fill="#964C38"/>
<path d="M65.1163 149.635H65.4808L65.2986 149.088L65.1163 149.635ZM65.4808 147.813L65.8453 147.63L65.663 147.266L65.4808 147.813ZM66.7565 147.266V147.813L67.3032 147.448L66.7565 147.266ZM64.9341 148.906H65.663L65.2986 148.177L64.9341 148.906ZM66.0275 149.088V149.453L66.5743 149.088H66.0275ZM69.6724 146.719L69.1257 147.084L69.6724 147.448V146.719ZM72.2238 149.453L72.406 150.182L72.9528 149.817L72.2238 149.453ZM68.5789 145.444L68.7612 146.172L69.3079 145.626L68.5789 145.444ZM70.4014 147.448L70.0369 147.084L69.8546 147.63L70.4014 147.448Z" fill="#964C38"/>
<path d="M101.565 158.201C96.4623 158.201 92.4529 152.734 92.4529 146.173C92.4529 139.612 96.6445 134.145 101.565 134.145C106.486 134.145 110.677 139.612 110.677 146.173C110.677 152.734 106.486 158.201 101.565 158.201ZM101.565 135.967C97.5557 135.967 94.2753 140.523 94.2753 146.173C94.2753 151.822 97.5557 156.378 101.565 156.378C105.574 156.378 108.855 151.822 108.855 146.173C108.855 140.523 105.574 135.967 101.565 135.967Z" fill="white"/>
<path d="M77.5092 142.893L75.3223 140.523L93.911 143.621L93.7288 145.444L77.5092 142.893Z" fill="white"/>
<path d="M104.117 121.57L103.934 122.481L104.663 122.299L104.117 121.57ZM106.85 122.299L105.939 122.117L106.121 123.028L106.85 122.299ZM105.757 122.299L105.028 121.752L104.846 122.664L105.757 122.299ZM90.813 117.561V119.383L92.6354 118.29L90.813 117.561ZM100.107 120.477L99.7429 121.388L100.836 121.023L100.107 120.477ZM96.827 120.477L97.1915 121.388L97.9205 120.659L96.827 120.477ZM94.4579 122.481V123.028L95.0046 122.664L94.4579 122.481ZM90.9953 123.575V124.668L92.0887 124.304L90.9953 123.575Z" fill="#A84D3B"/>
<path d="M95.5515 118.836L94.8225 118.472L94.6403 119.201L95.5515 118.836ZM102.112 121.023L102.294 121.935L103.023 121.206L102.112 121.023ZM99.0141 120.659L99.1964 121.57L99.9253 120.841L99.0141 120.659ZM107.215 122.481V123.21L108.126 122.664L107.215 122.481ZM101.748 122.481L102.112 123.21L102.659 122.664L101.748 122.481ZM97.3739 121.752L97.5562 122.481L98.2852 121.935L97.3739 121.752ZM95.916 120.477L96.0982 121.023L96.8272 120.477H95.916ZM100.837 121.206L101.383 121.752L101.566 121.206H100.837ZM103.023 121.752L103.206 122.117L103.57 121.57L103.023 121.752ZM108.309 123.028L108.491 123.392L108.855 123.028H108.309ZM91.3599 127.22L90.9955 127.402L91.3599 127.766V127.22ZM93.1824 121.206L93.5468 121.935L94.2758 121.023L93.1824 121.206ZM91.3599 116.65L91.1777 117.561L92.2711 117.196L91.3599 116.65Z" fill="#A84D3B"/>
<path d="M92.0887 117.014L91.9065 118.29L93.3644 117.743L92.0887 117.014ZM91.542 125.579H90.813L91.1775 126.308L91.542 125.579ZM91.7242 125.215L91.542 124.668L90.9953 125.215H91.7242ZM93.9111 125.944L93.7289 125.579L93.3644 125.944H93.9111ZM97.0093 124.486L96.827 123.939L96.4626 124.304L97.0093 124.486ZM98.1027 121.752L99.0139 121.934L98.6495 121.023L98.1027 121.752ZM98.4672 120.841L99.9252 120.294L98.6495 119.93L98.4672 120.841ZM95.0046 120.477L95.1868 121.205L95.7336 120.659L95.0046 120.477ZM95.9158 122.117H96.6448L96.098 121.388L95.9158 122.117ZM91.3598 128.131V128.86L92.0887 128.495L91.3598 128.131ZM92.0887 126.491V126.855L92.4532 126.673L92.0887 126.491ZM94.8224 121.023L94.2756 121.388L95.0046 121.752L94.8224 121.023Z" fill="#A84D3B"/>
<path d="M90.9954 126.491L90.8132 127.038L91.7244 126.673L90.9954 126.491ZM90.8132 128.495L91.3599 128.313L90.8132 127.766V128.495ZM90.6309 130.318L91.1777 129.953L90.6309 129.771V130.318ZM90.6309 129.407L91.1777 129.224L90.8132 128.678L90.6309 129.407ZM90.0842 132.505L90.8132 132.14L90.2665 131.594L90.0842 132.505ZM90.4487 131.229L91.1777 131.047L90.4487 130.318V131.229ZM94.6403 118.472L93.3646 117.743L93.0001 119.201L94.6403 118.472ZM92.4534 122.846L93.0001 123.393L93.3646 122.481L92.4534 122.846Z" fill="#A84D3B"/>
<path d="M96.827 119.383L97.3738 121.023L98.4672 119.748L96.827 119.383ZM91.542 123.21L92.0887 123.757L92.4532 122.664L91.542 123.21ZM99.9252 121.935L100.654 122.299V121.388L99.9252 121.935ZM90.813 119.383V120.477L91.9065 119.748L90.813 119.383ZM92.9999 123.939H92.271L92.8177 124.668L92.9999 123.939ZM92.6354 121.752L91.9065 122.117L92.6354 122.664V121.752ZM94.4579 119.565L94.6401 120.294L95.1868 119.748L94.4579 119.565ZM92.271 118.472L92.4532 119.201L92.9999 118.654L92.271 118.472ZM92.271 121.388L90.9953 121.023V122.481L92.271 121.388ZM91.7242 120.294L91.1775 120.659L91.7242 121.206V120.294ZM94.2756 119.93L93.5467 120.112L94.2756 120.659V119.93ZM94.2756 118.836L93.5467 119.019L94.0934 119.565L94.2756 118.836Z" fill="#A84D3B"/>
<path d="M91.3596 116.832L90.6306 117.196L91.1773 117.743L91.3596 116.832ZM92.8175 120.295L92.0886 120.477L92.8175 121.024V120.295ZM91.9063 119.019L91.1773 119.201L91.9063 119.748V119.019ZM90.9951 122.481L90.8129 123.028L91.5418 122.846L90.9951 122.481ZM96.8269 119.201L95.5512 118.837L95.9157 120.295L96.8269 119.201Z" fill="#A84D3B"/>
<path d="M102.841 98.4252L103.206 100.43L105.028 99.1542L102.841 98.4252ZM115.234 115.192L114.322 114.827V115.738L115.234 115.192ZM126.897 117.743H126.168L126.533 118.654L126.897 117.743ZM122.341 116.285L122.523 115.374L121.43 115.556L122.341 116.285ZM107.762 101.159L106.85 102.252L108.308 102.799L107.762 101.159ZM118.332 112.64L117.785 113.551L119.061 113.734L118.332 112.64ZM121.248 110.818L120.883 112.64L122.888 112.276L121.248 110.818Z" fill="#FF593E"/>
<path d="M120.337 109.542L119.79 111.364L121.795 111.182L120.337 109.542ZM100.108 98.0606L98.6499 97.8784L99.1966 99.7008L100.108 98.0606ZM98.4676 97.8784L96.8274 98.0606L97.5564 99.7008L98.4676 97.8784ZM95.5517 100.977L93.5471 101.523L95.005 103.528L95.5517 100.977ZM94.4583 98.0606L92.8181 98.2429L93.5471 99.883L94.4583 98.0606ZM115.416 104.986L114.14 104.075L113.776 105.897L115.416 104.986ZM108.673 104.986L109.22 103.163L107.398 103.528L108.673 104.986ZM111.589 106.626L112.318 105.168H110.313L111.589 106.626ZM114.869 108.813L115.416 110.635L116.874 108.813H114.869ZM116.145 105.533L115.781 108.084L118.332 107.537L116.145 105.533ZM113.958 110.089L113.229 110.635L113.958 111V110.089ZM99.7433 104.804L99.0143 105.35L99.7433 105.897V104.804ZM96.463 102.799L95.734 103.346L96.6452 103.71L96.463 102.799ZM97.5564 101.523L96.8274 102.07L97.5564 102.434V101.523ZM93.7293 102.799L93.0003 103.346L93.9115 103.892L93.7293 102.799ZM93.0003 101.705L92.2714 102.252L93.3648 102.617L93.0003 101.705Z" fill="#FF593E"/>
<path d="M91.9067 101.523L91.1777 102.07L92.0889 102.434L91.9067 101.523ZM120.883 116.832L120.337 117.743H121.248L120.883 116.832ZM123.617 116.285L123.07 117.014L123.981 117.196L123.617 116.285ZM118.514 115.92L118.879 116.649L119.425 115.738L118.514 115.92ZM117.603 112.458L118.15 113.187L118.514 112.275L117.603 112.458ZM120.701 111.911L119.79 111.546L119.972 112.458L120.701 111.911ZM95.0048 105.897L95.3693 106.444L95.9161 105.532L95.0048 105.897ZM98.4674 103.163L98.103 103.71H99.0142L98.4674 103.163ZM100.837 110.089L100.472 109.724V110.635L100.837 110.089ZM100.654 106.808L100.472 107.355H101.201L100.654 106.808ZM105.028 114.28H104.481L104.664 114.827L105.028 114.28ZM107.58 114.462V113.916L107.033 114.098L107.58 114.462ZM113.229 113.004L113.411 114.098L114.323 113.551L113.229 113.004ZM112.682 102.981L112.5 104.986L114.323 104.075L112.682 102.981ZM99.3787 100.065L99.1964 101.341L100.472 100.794L99.3787 100.065ZM119.243 108.448L118.332 107.537L117.785 108.995L119.243 108.448Z" fill="#FF593E"/>
<path d="M120.336 109.542L119.425 108.631L118.878 110.089L120.336 109.542ZM124.528 114.28L123.617 113.187L123.07 115.009L124.528 114.28ZM118.149 117.378L117.421 116.649L117.238 117.743L118.149 117.378ZM117.056 108.266L117.603 109.177L118.332 108.084L117.056 108.266ZM116.874 110.635L117.603 111.546L118.149 110.453L116.874 110.635ZM117.603 109.36L118.149 110.271L118.696 108.995L117.603 109.36ZM108.673 109.542L107.944 110.453L108.855 110.635L108.673 109.542ZM119.972 110.089H119.061L119.425 111.182L119.972 110.089ZM93 100.43L92.271 100.976L93.3645 101.523L93 100.43ZM93 99.154L92.271 99.7007L93.1822 100.247L93 99.154ZM90.8131 100.247L91.7243 101.159L92.271 99.5185L90.8131 100.247ZM90.0841 99.883L89.1729 100.612L90.4486 101.341L90.0841 99.883Z" fill="#FF593E"/>
<path d="M100.472 99.3363L99.925 98.7896L99.7428 99.5186L100.472 99.3363ZM90.6307 100.248L90.8129 98.7896L88.9905 99.3363L90.6307 100.248Z" fill="#FF593E"/>
<path d="M92.2708 100.065L92.4531 98.4252L90.8129 98.7897L92.2708 100.065ZM97.1914 98.7897L98.1026 100.43L99.3783 98.9719L97.1914 98.7897ZM97.7381 100.612L98.1026 101.888L99.3783 100.794L97.7381 100.612ZM101.201 101.523L101.383 102.252L102.112 101.523H101.201Z" fill="#FF593E"/>
<path d="M102.294 98.9718L99.9249 100.065L101.93 101.888L102.294 98.9718ZM96.6445 97.8784H95.1866L95.9155 99.7008L96.6445 97.8784Z" fill="#FF593E"/>
<path d="M102.477 98.425L100.472 98.2428L101.201 99.5185L102.477 98.425ZM101.201 103.346L100.654 102.981V103.71L101.201 103.346ZM95.7336 101.523L96.0981 102.434L96.8271 101.523H95.7336ZM95.7336 99.7007L96.8271 100.976L97.1916 98.7895L95.7336 99.7007ZM89.7196 103.163L89.1729 103.528L89.9019 103.71L89.7196 103.163ZM95.0047 100.065L94.2757 99.5185L94.0935 100.976L95.0047 100.065Z" fill="#FF593E"/>
<path d="M95.5518 99.3362L95.005 98.2428L93.9116 99.7007L95.5518 99.3362ZM91.5424 104.075L92.0891 104.804L92.4536 104.075H91.5424ZM93.9116 107.173L93.1826 107.902L93.9116 108.084V107.173ZM87.8975 100.43L86.8041 101.705L88.4443 102.252L87.8975 100.43Z" fill="#FF593E"/>
<path d="M88.8086 99.3362L87.1684 99.883L88.6264 101.159L88.8086 99.3362ZM91.1777 106.808L90.4488 106.444V107.355L91.1777 106.808ZM89.1731 102.617H89.9021L89.5376 101.705L89.1731 102.617ZM93.9114 104.621H94.4581L94.2759 103.892L93.9114 104.621ZM85.346 100.976L86.4395 102.07L86.8039 100.247L85.346 100.976ZM83.5236 101.705L84.7993 102.799L85.1637 100.976L83.5236 101.705ZM81.5189 102.617L82.9768 103.71V101.888L81.5189 102.617ZM79.332 103.528L80.9722 104.804L81.3367 102.617L79.332 103.528ZM93.0002 105.532V106.261L93.5469 105.897L93.0002 105.532ZM95.0049 104.804L95.7338 104.986V104.075L95.0049 104.804ZM89.1731 104.439V104.986L89.9021 104.621L89.1731 104.439ZM98.6497 106.079L97.9207 106.261L98.2852 106.99L98.6497 106.079ZM96.0983 108.631L95.1871 108.813L95.7338 109.542L96.0983 108.631ZM103.57 100.612L103.206 101.523L104.299 101.159L103.57 100.612ZM108.673 100.612L107.033 99.883L106.851 101.888L108.673 100.612ZM106.851 99.883L105.028 99.154V101.705L106.851 99.883Z" fill="#FF593E"/>
<path d="M105.757 105.35L105.028 103.892L103.934 105.168L105.757 105.35ZM117.602 115.009L117.238 114.645L116.873 115.374L117.602 115.009ZM104.845 103.528L104.481 102.981L103.934 103.528H104.845ZM110.495 101.705L110.677 103.528L112.317 102.799L110.495 101.705ZM106.486 107.173V108.084L107.397 107.537L106.486 107.173ZM108.49 100.612L108.673 102.434L110.313 101.523L108.49 100.612ZM110.495 108.266L110.677 109.177L111.406 108.631L110.495 108.266ZM111.406 111V111.911L112.317 111.364L111.406 111ZM115.598 105.715L114.869 105.897L115.416 106.444L115.598 105.715ZM113.046 105.897L112.682 105.35L112.317 106.079L113.046 105.897ZM114.504 108.631L113.958 107.902L113.593 108.813L114.504 108.631ZM120.883 114.645L122.341 113.916L120.883 112.822V114.645ZM120.154 116.285L119.607 117.014H120.701L120.154 116.285ZM125.621 115.738L124.892 116.832H126.35L125.621 115.738ZM120.518 119.201L121.065 120.112L121.612 119.201H120.518ZM121.976 113.369L122.887 113.916L123.07 112.822L121.976 113.369ZM123.07 115.738L124.163 116.103V114.827L123.07 115.738ZM125.074 119.565L124.345 119.019L124.163 119.93L125.074 119.565ZM120.518 115.009L119.972 114.462L119.789 115.374L120.518 115.009ZM105.574 109.177V110.089L106.303 109.542L105.574 109.177ZM109.219 106.626L108.49 106.991L109.037 107.537L109.219 106.626ZM108.126 113.369L107.761 112.64L107.397 113.187L108.126 113.369ZM84.7987 109.542L84.252 109.177L84.4342 109.906L84.7987 109.542ZM89.3548 113.187L88.8081 113.005L89.1726 113.733L89.3548 113.187ZM82.7941 115.556H82.2473L82.6118 116.103L82.7941 115.556ZM91.9062 112.822V112.276L91.1772 112.64L91.9062 112.822ZM77.509 117.378V116.832L76.9623 117.014L77.509 117.378ZM86.4389 112.093L86.2567 111.364L85.7099 111.729L86.4389 112.093ZM89.1726 107.902L89.537 108.995L90.0838 108.266L89.1726 107.902ZM92.4529 111.729L91.9062 111.182L91.5417 111.729H92.4529ZM115.78 107.719L115.416 106.991L115.051 107.902L115.78 107.719ZM109.948 105.168L108.673 104.621V106.444L109.948 105.168Z" fill="#FF593E"/>
<path d="M111.042 104.257L110.131 104.075L110.313 104.986L111.042 104.257ZM102.477 105.533L102.659 104.621L101.93 104.804L102.477 105.533ZM102.841 102.07L101.201 103.346L103.024 104.439L102.841 102.07ZM102.112 101.523L101.748 101.888L102.295 102.252L102.112 101.523ZM103.752 105.533L103.388 106.079H104.117L103.752 105.533ZM105.757 102.435L105.21 101.706L104.846 102.617L105.757 102.435ZM106.668 100.977L105.939 100.065L105.393 101.341L106.668 100.977ZM105.028 100.248L104.299 99.3364L103.752 100.612L105.028 100.248ZM110.495 102.617L109.766 101.706L109.22 102.799L110.495 102.617ZM112.5 103.71L111.771 102.799L111.224 104.075L112.5 103.71ZM107.033 104.257L107.215 103.528L106.304 103.892L107.033 104.257ZM105.575 106.626L105.757 105.897L104.846 106.079L105.575 106.626Z" fill="#FF593E"/>
<path d="M106.304 104.075L106.669 105.168L107.58 104.257L106.304 104.075ZM111.954 107.902L112.683 108.631L113.047 107.355L111.954 107.902ZM99.0143 102.07L99.7433 102.617L100.108 101.523L99.0143 102.07ZM103.753 103.346L103.935 104.075L104.664 103.528L103.753 103.346ZM110.313 105.35L109.584 105.715L110.313 106.079V105.35ZM107.944 106.262L107.398 105.715L107.215 106.626L107.944 106.262ZM109.767 108.631L109.402 107.902L109.22 108.813L109.767 108.631ZM103.753 107.719L103.024 107.902L103.753 108.448V107.719ZM110.86 107.173L110.496 106.808L110.313 107.537L110.86 107.173ZM117.421 114.28L117.056 115.191H118.15L117.421 114.28ZM114.869 111.547L115.052 112.64L115.963 112.093L114.869 111.547ZM118.15 111.547L118.332 112.276L119.061 111.547H118.15ZM117.785 111.364H117.056L117.603 111.911L117.785 111.364ZM116.51 110.818L116.145 110.271L115.598 111L116.51 110.818ZM117.968 112.276L117.421 111.911V112.822L117.968 112.276ZM118.15 110.271L117.603 109.906V110.818L118.15 110.271ZM102.659 106.991L102.477 106.262L101.748 106.991H102.659ZM60.5611 111.364L62.0191 112.64L62.7481 110.453L60.5611 111.364ZM60.9256 122.117L60.1966 121.752L60.3789 122.846L60.9256 122.117ZM59.6499 123.392L59.2854 122.481L58.5565 123.21L59.6499 123.392ZM65.6639 111.911V113.551L67.6686 112.64L65.6639 111.911ZM82.248 103.892L82.977 104.621L83.5237 103.346L82.248 103.892ZM88.4443 102.617V103.71L89.3555 103.163L88.4443 102.617ZM55.0938 113.733L53.4537 116.285L56.0051 116.832L55.0938 113.733ZM52.7247 117.014L52.178 118.29L53.4537 117.925L52.7247 117.014ZM56.9163 118.836L56.734 119.748H57.8275L56.9163 118.836ZM54.5471 118.107L54.1826 119.019L55.4584 118.836L54.5471 118.107ZM72.7714 106.444L71.4957 106.991L73.1359 108.448L72.7714 106.444ZM68.9443 113.005L68.5798 112.276L67.8508 113.005H68.9443ZM72.9536 111.182L72.2247 110.089L71.3135 111.547L72.9536 111.182ZM77.692 107.902L78.6032 107.719L78.0564 106.808L77.692 107.902ZM77.3275 110.818V111.729L78.2387 111.182L77.3275 110.818Z" fill="#FF593E"/>
<path d="M59.2853 117.925L58.7386 118.472L59.4675 118.836L59.2853 117.925ZM55.0937 115.92V116.832H56.0049L55.0937 115.92ZM54.9115 120.841L54.7292 121.388H55.6404L54.9115 120.841ZM98.2852 107.355V108.266L99.1965 107.902L98.2852 107.355ZM85.1637 107.355L84.9815 108.084L85.7105 107.902L85.1637 107.355ZM82.6124 108.266L81.8834 108.084L82.2479 108.995L82.6124 108.266ZM83.7058 106.262L83.8881 106.808L84.4348 106.262H83.7058ZM87.8974 107.537L87.1684 107.902L88.0796 108.449L87.8974 107.537ZM89.1731 105.168L89.5376 106.079L90.0843 105.168H89.1731ZM85.346 104.439L86.2572 104.075L85.346 103.528V104.439ZM80.7899 105.35L81.7011 104.986L80.7899 104.439V105.35ZM83.5236 102.07L83.1591 102.981H84.0703L83.5236 102.07ZM56.3694 119.201L56.9161 119.383V118.654L56.3694 119.201ZM57.8273 116.467L57.6451 117.014H58.3741L57.8273 116.467ZM63.1124 122.481H62.5657L62.7479 123.21L63.1124 122.481ZM60.561 119.748L60.3788 120.294H61.1077L60.561 119.748ZM71.3133 125.579L70.9488 125.944L71.3133 126.308V125.579ZM56.0049 124.486L55.6404 124.121L55.276 124.85L56.0049 124.486ZM80.2432 112.822L81.1544 113.187L80.9722 111.911L80.2432 112.822ZM69.3086 107.902L70.9488 109.542L71.3133 106.991L69.3086 107.902ZM58.5563 113.734L58.7386 114.645L59.6498 113.916L58.5563 113.734ZM79.332 103.892L79.6965 104.621L80.4254 104.075L79.332 103.892ZM86.4395 105.168L85.7105 105.715L86.8039 106.262L86.4395 105.168ZM87.5329 102.252L86.4395 102.981L87.8974 103.892L87.5329 102.252ZM84.617 102.799L83.3413 103.71L85.1637 104.621L84.617 102.799ZM78.0563 106.808L77.6918 104.439L75.5049 105.35L78.0563 106.808Z" fill="#FF593E"/>
<path d="M80.7899 104.622L81.7011 103.893H80.4254L80.7899 104.622ZM79.1498 104.075L77.6918 104.439L79.332 105.897L79.1498 104.075ZM72.589 118.836V120.112L73.8647 119.565L72.589 118.836ZM81.8834 102.617L81.7011 103.346H82.6124L81.8834 102.617ZM55.2759 119.383L55.0937 120.112L56.0049 119.93L55.2759 119.383ZM58.9208 113.551L58.3741 113.187V114.098L58.9208 113.551ZM52.7246 121.023H51.9956L52.3601 121.935L52.7246 121.023ZM54.0003 120.477V119.748L53.2713 120.294L54.0003 120.477ZM55.6404 113.916L56.3694 114.463V113.551L55.6404 113.916ZM60.561 114.098L61.29 114.827L61.6544 113.916L60.561 114.098ZM60.0143 111.547L58.3741 112.276L60.0143 113.734V111.547ZM56.7339 115.374L56.3694 116.65L57.6451 116.467L56.7339 115.374Z" fill="#FF593E"/>
<path d="M61.2894 115.556L59.8315 114.827V116.65L61.2894 115.556ZM56.3689 113.551L57.6446 114.28L57.8268 112.822L56.3689 113.551ZM51.2661 119.201L50.5371 120.841H52.5418L51.2661 119.201ZM56.9156 117.561H55.6399L56.3689 118.836L56.9156 117.561ZM52.5418 119.565L53.2707 119.93V119.019L52.5418 119.565ZM56.0044 120.841L55.8221 121.752L56.7333 121.388L56.0044 120.841ZM53.6352 121.935L52.724 122.117L53.0885 122.846L53.6352 121.935ZM72.0417 111.729L71.3128 112.64L72.5885 112.822L72.0417 111.729Z" fill="#FF593E"/>
<path d="M69.491 109.724L68.5798 110.271L69.6733 111L69.491 109.724ZM72.0424 108.449L71.3135 109.178L72.2247 109.36L72.0424 108.449ZM68.5798 112.458L68.0331 113.005L68.7621 113.551L68.5798 112.458ZM71.3135 111.911L71.8602 112.458L72.0424 111.547L71.3135 111.911ZM57.6453 114.645V116.103L59.1032 115.556L57.6453 114.645ZM62.5658 114.098V114.827L63.2948 114.645L62.5658 114.098ZM75.6873 106.444L76.4163 106.626L76.5985 105.715L75.6873 106.444ZM73.8649 108.266L74.4116 108.449L74.7761 107.902L73.8649 108.266Z" fill="#FF593E"/>
<path d="M63.8415 112.822L64.0238 113.369L64.5705 113.005L63.8415 112.822ZM69.6733 111.547L68.9443 112.276L70.0378 112.64L69.6733 111.547ZM68.2154 111.547L68.5798 110.271L67.1219 110.453L68.2154 111.547ZM71.4957 110.453H70.7667V111.182L71.4957 110.453ZM69.3088 113.369L68.9443 113.733L69.6733 113.916L69.3088 113.369ZM66.3929 111.729L65.2995 110.635L64.5705 112.458L66.3929 111.729ZM53.0892 123.028L53.8182 122.663L53.2714 122.117L53.0892 123.028ZM49.4444 126.49L49.9911 125.944L49.4444 125.579V126.49ZM50.72 123.939L51.2668 123.757L50.5378 123.21L50.72 123.939ZM49.2621 127.584L49.8088 128.131L49.9911 127.584H49.2621ZM50.72 125.944L51.449 125.579L50.9023 125.033L50.72 125.944ZM49.9911 121.752L50.9023 122.846L51.6313 121.57L49.9911 121.752ZM49.2621 123.028L48.5331 124.668L50.72 124.486L49.2621 123.028ZM49.4444 126.673L49.0799 127.037L49.8088 127.219L49.4444 126.673ZM62.2013 112.822L62.3836 113.551L63.1126 113.005L62.2013 112.822ZM64.3883 109.724L62.7481 110.635L64.3883 111.911V109.724Z" fill="#FF593E"/>
<path d="M63.8411 111.911L63.2944 112.093L63.8411 112.822V111.911ZM67.486 116.467L66.3926 115.738L66.028 117.196L67.486 116.467ZM83.3411 105.715L82.7944 106.079L83.5234 106.444L83.3411 105.715ZM81.7009 106.444L82.4299 106.079L81.7009 105.351V106.444ZM75.3224 112.458L76.7804 113.551L77.1449 111.365L75.3224 112.458ZM79.3318 108.449L80.4252 108.995V107.537L79.3318 108.449ZM73.5 109.724L75.5047 109.907L74.5935 107.72L73.5 109.724ZM66.9393 114.827L68.0327 115.009L67.6682 113.734L66.9393 114.827ZM78.6028 106.991H79.6962L79.1495 105.715L78.6028 106.991ZM86.986 105.533L88.9906 105.351L87.7149 103.346L86.986 105.533ZM82.4299 105.715L84.6168 105.351L83.3411 103.346L82.4299 105.715ZM75.5047 108.084L77.3271 108.995V106.626L75.5047 108.084ZM82.4299 110.818L81.5187 111L82.2477 111.729L82.4299 110.818ZM80.972 105.351L79.3318 105.533L80.6075 106.991L80.972 105.351ZM86.4392 101.706L84.799 102.07L86.0747 103.346L86.4392 101.706ZM78.9673 109.907L78.2383 109.724L78.6028 110.453L78.9673 109.907ZM64.7523 114.827L64.3879 114.28L64.0234 115.192L64.7523 114.827ZM67.486 108.631L69.4907 110.271L69.1262 107.902L67.486 108.631ZM71.3131 114.645L72.771 115.556L72.9533 113.734L71.3131 114.645ZM64.7523 109.724L66.9393 111.365L66.757 108.813L64.7523 109.724ZM74.229 113.005L74.7757 113.369L74.958 112.458L74.229 113.005ZM56.3692 118.836L56.5514 119.748L57.2804 119.201L56.3692 118.836ZM72.9533 106.262L74.4112 107.537L74.229 105.715L72.9533 106.262ZM73.3178 109.542L72.771 109.36L72.9533 110.089L73.3178 109.542Z" fill="#FF593E"/>
<path d="M76.5983 109.724H75.8694L76.2339 110.453L76.5983 109.724ZM67.6685 119.748L68.2152 120.659L68.7619 119.748H67.6685ZM68.5797 117.378L68.2152 117.925L68.9442 118.107L68.5797 117.378ZM65.6638 115.191L65.4816 114.28L64.7526 114.827L65.6638 115.191Z" fill="#FF593E"/>
<path d="M64.0232 119.383L63.4765 120.112H64.3877L64.0232 119.383ZM65.1167 114.463H64.0232L64.57 115.556L65.1167 114.463Z" fill="#FF593E"/>
<path d="M64.57 114.098L64.7522 114.645L65.2989 114.28L64.57 114.098ZM63.112 114.645L61.8363 114.827L62.7475 116.103L63.112 114.645ZM61.4718 117.014L61.6541 117.925L62.383 117.378L61.4718 117.014ZM66.2101 117.561L66.7569 118.29L67.3036 117.561H66.2101ZM60.7429 119.019L61.1073 119.93L61.8363 119.383L60.7429 119.019ZM64.2055 115.556L63.4765 115.92L64.2055 116.649V115.556ZM74.0466 122.117L73.4998 121.752L73.3176 122.481L74.0466 122.117ZM76.2335 106.991L75.3223 107.173L75.869 107.902L76.2335 106.991ZM63.841 119.201L63.4765 118.654L63.112 119.383L63.841 119.201ZM69.4905 72.3644L69.6727 74.3691L71.4952 73.0934L69.4905 72.3644ZM77.1447 88.584L76.598 87.855L76.0512 88.7662L77.1447 88.584ZM75.869 87.3083L75.3223 86.7616L74.9578 87.6728L75.869 87.3083ZM81.5185 91.6821L82.2475 90.9532L81.3363 90.5887L81.5185 91.6821ZM74.4111 75.098L73.3176 76.1915L74.9578 76.7382L74.4111 75.098ZM78.6026 85.4859L77.6914 86.2148L78.6026 86.7616V85.4859ZM84.0699 86.7616L82.612 88.0373L84.4344 88.9485L84.0699 86.7616Z" fill="#FF593E"/>
<path d="M83.7056 85.1215L82.2477 86.2149L84.0701 87.1262L83.7056 85.1215ZM66.757 72.1822L65.2991 72L65.8458 73.8224L66.757 72.1822ZM65.1168 72H63.2944L64.0234 73.8224L65.1168 72ZM62.5654 75.2804L60.5608 76.3738L62.201 78.014L62.5654 75.2804ZM60.743 72.5467L59.1028 73.0935L60.1963 74.5514L60.743 72.5467ZM80.972 79.2897L79.8785 78.3785L79.1495 80.0187L80.972 79.2897ZM75.3224 78.9252L75.6869 77.1028L74.0467 77.285L75.3224 78.9252ZM77.6916 80.5654L78.2383 79.1075H76.4159L77.6916 80.5654ZM79.1495 81.6589L78.785 83.6635L80.972 82.7523L79.1495 81.6589ZM81.3364 79.8364L80.0608 82.0233L82.7944 82.3878L81.3364 79.8364ZM77.6916 83.1168L76.7804 83.4813L77.5093 84.2103L77.6916 83.1168ZM66.2103 78.743L65.4813 79.2897L66.3926 79.8364L66.2103 78.743ZM63.6589 76.9206L63.1122 77.6495L64.0234 78.014L63.6589 76.9206ZM64.2056 75.4626L63.4767 76.0093L64.2056 76.3738V75.4626ZM61.1075 77.4673L60.3785 78.1963L61.2898 78.5607L61.1075 77.4673ZM60.1963 76.5561L59.4673 77.1028L60.5608 77.4673L60.1963 76.5561Z" fill="#FF593E"/>
<path d="M58.9208 76.5562L58.3741 77.103L59.2853 77.4675L58.9208 76.5562ZM80.7899 91.6824L80.061 92.2291L80.7899 92.7758V91.6824ZM82.6123 92.4114L81.7011 92.7758L82.4301 93.5048L82.6123 92.4114ZM79.1497 89.86V90.5889L80.061 90.0422L79.1497 89.86ZM79.8787 86.3974L80.061 87.3086L80.7899 86.5796L79.8787 86.3974ZM82.6123 87.3086L82.0656 86.3974L81.7011 87.3086H82.6123ZM62.7479 80.3833L63.1124 80.7478L63.4769 79.8366L62.7479 80.3833ZM65.117 77.103L64.7525 77.4675L65.4815 77.6497L65.117 77.103ZM67.4862 84.0282L66.9395 83.6637L67.1217 84.5749L67.4862 84.0282ZM67.1217 80.7478V81.2946H67.8507L67.1217 80.7478ZM71.6778 88.2198L71.131 88.0375L71.3133 88.7665L71.6778 88.2198ZM74.2292 88.402V87.6731L73.5002 88.0375L74.2292 88.402ZM76.0516 85.8506L75.8694 86.7618L76.7806 86.5796L76.0516 85.8506ZM78.603 76.9207L78.0563 78.7432L80.061 78.3787L78.603 76.9207ZM65.846 74.0048V75.0983L66.9395 74.7338L65.846 74.0048ZM83.3413 83.4815L82.6123 82.388L81.7011 83.6637L83.3413 83.4815Z" fill="#FF593E"/>
<path d="M83.7055 84.9393L83.341 83.8459L82.0653 84.7571L83.7055 84.9393ZM84.0699 91.3178L84.2522 90.0421L82.4297 90.5888L84.0699 91.3178ZM78.0559 90.9533L77.8737 90.0421L77.1447 90.7711L78.0559 90.9533ZM81.154 82.5702L81.5185 83.6636L82.612 82.7524L81.154 82.5702Z" fill="#FF593E"/>
<path d="M80.2432 84.3923L80.4254 85.4858L81.3366 84.7568L80.2432 84.3923ZM81.5189 83.4811V84.5746L82.4301 83.8456L81.5189 83.4811ZM75.1404 83.4811L74.5937 84.3923L75.5049 84.5746L75.1404 83.4811ZM83.1591 85.4858L82.4301 84.7568L82.0656 85.8503L83.1591 85.4858ZM59.832 75.2802L59.2853 76.0092L60.3787 76.3736L59.832 75.2802ZM59.6497 74.0045L59.103 74.7335L60.0143 74.9157L59.6497 74.0045ZM57.6451 75.4624L58.7385 76.1914L58.9208 74.5512L57.6451 75.4624ZM56.9161 75.2802L56.0049 76.0092L57.4628 76.5559L56.9161 75.2802ZM67.1217 73.0933L66.575 72.7288L66.3927 73.4578L67.1217 73.0933ZM57.4628 75.2802L57.2806 73.64L55.6404 74.5512L57.4628 75.2802Z" fill="#FF593E"/>
<path d="M58.9206 74.5515V72.9113L57.2804 73.8225L58.9206 74.5515ZM63.8411 72.5468L64.5701 74.3692L65.8458 72.9113L63.8411 72.5468ZM64.2056 74.5515L64.7524 75.8272L65.8458 74.7337L64.2056 74.5515ZM67.6683 75.4627L68.0327 76.1917L68.7617 75.4627H67.6683Z" fill="#FF593E"/>
<path d="M68.7619 72.9112L66.575 74.0047L68.5797 75.8271L68.7619 72.9112ZM63.1124 72.1822L61.6544 72.5467L62.5657 74.0047L63.1124 72.1822ZM69.1264 72.3645L66.9395 72L67.6685 73.2757L69.1264 72.3645ZM67.8507 77.285L67.304 76.7383L67.1217 77.6495L67.8507 77.285ZM62.7479 76.0093L63.2946 76.7383L63.6591 75.6449L62.7479 76.0093ZM62.3834 74.1869L63.6591 75.0981V73.0935L62.3834 74.1869ZM57.0984 78.3785L56.5516 78.9252L57.2806 79.1075L57.0984 78.3785ZM61.8367 74.5514L60.9255 74.1869L61.1077 75.6449L61.8367 74.5514Z" fill="#FF593E"/>
<path d="M62.2013 73.8222L61.4723 72.7288L60.5611 74.5512L62.2013 73.8222ZM58.9209 79.1073L59.6499 79.654L60.0144 78.925L58.9209 79.1073ZM61.6546 81.8409L61.2901 82.5699H62.0191L61.6546 81.8409ZM54.9116 76.0092L54.0004 77.6493L55.6406 77.8316L54.9116 76.0092Z" fill="#FF593E"/>
<path d="M55.4577 74.5516L53.9997 75.4628L55.4577 76.5562V74.5516ZM58.9203 81.8413L58.3735 81.659V82.5703L58.9203 81.8413ZM56.3689 78.0142L57.0978 77.8319L56.7333 77.103L56.3689 78.0142ZM61.2894 79.2899L61.8361 79.1076L61.6539 78.3787L61.2894 79.2899ZM52.1773 76.7385L53.6352 77.4675V75.645L52.1773 76.7385ZM50.7193 77.8319L52.3595 78.5609L51.995 76.7385L50.7193 77.8319ZM49.2614 79.4721L51.2661 79.8366L50.3549 78.1964L49.2614 79.4721ZM47.8034 81.1123L49.6259 81.659L49.0792 79.6544L47.8034 81.1123ZM60.5604 80.3833L60.7427 81.1123L61.2894 80.5656L60.5604 80.3833ZM62.3829 79.2899L63.2941 79.4721L63.1118 78.3787L62.3829 79.2899ZM56.7333 79.8366V80.3833L57.4623 80.0189L56.7333 79.8366ZM65.1165 80.0189L64.5698 80.2011L64.9343 80.9301L65.1165 80.0189ZM64.2053 82.9347L63.4763 83.2992L64.0231 83.846L64.2053 82.9347ZM70.0371 74.5516L69.8548 75.4628L70.766 75.0983L70.0371 74.5516ZM75.3221 74.5516L73.4997 73.8226V75.8273L75.3221 74.5516ZM73.4997 73.6404L71.6772 73.0936V75.4628L73.4997 73.6404ZM72.4062 79.2899L71.6772 77.8319L70.4015 79.1076L72.4062 79.2899ZM78.7847 88.5843L78.6025 88.0375L77.8735 88.5843H78.7847ZM71.3128 77.4675L70.9483 76.9207L70.5838 77.4675H71.3128ZM76.78 75.4628V77.4675L78.4202 76.7385L76.78 75.4628Z" fill="#FF593E"/>
<path d="M72.9531 81.112L73.1354 82.0232L74.0466 81.4764L72.9531 81.112ZM75.14 74.5512V76.3736L76.7802 75.4624L75.14 74.5512ZM76.4157 82.2054V83.1166L77.3269 82.5699L76.4157 82.2054ZM76.2335 83.8456L76.0512 84.7568L76.9624 84.3923L76.2335 83.8456ZM80.9718 80.2007H80.0606L80.6073 80.9297L80.9718 80.2007ZM79.1494 79.8363L78.7849 79.2895L78.2382 80.0185L79.1494 79.8363ZM78.6026 82.0232L78.4204 81.2942L77.8737 82.0232H78.6026ZM81.154 89.4951L82.9765 89.8596L82.2475 88.0372L81.154 89.4951ZM80.4251 90.7708L79.5139 91.3176L80.4251 91.8643V90.7708ZM83.8877 92.5933L82.4297 92.9577L83.5232 93.8689L83.8877 92.5933ZM79.5139 93.5045L79.3316 94.7802L80.4251 94.0512L79.5139 93.5045ZM82.9765 89.1306L83.3409 90.0419L84.0699 89.3129L82.9765 89.1306ZM82.4297 91.682L82.9765 92.5933L83.8877 91.682H82.4297ZM81.7008 94.0512L81.5185 93.3222L80.6073 93.8689L81.7008 94.0512ZM81.3363 90.0419L80.9718 89.3129L80.4251 90.0419H81.3363ZM72.0419 83.1166L72.2241 84.0278L72.9531 83.4811L72.0419 83.1166ZM75.869 80.5652L75.14 80.9297L75.5045 81.2942L75.869 80.5652ZM74.7755 87.126L74.4111 86.5792L74.0466 87.126H74.7755ZM53.0887 85.4858L52.5419 85.3035L52.9064 86.0325L53.0887 85.4858ZM58.3737 88.4017H57.827L58.1915 88.9484L58.3737 88.4017ZM50.355 98.425H49.8083L50.1728 98.9717L50.355 98.425ZM52.1774 91.8643H51.6307L51.9952 92.411L52.1774 91.8643ZM60.7429 87.8549L60.5606 87.3082L60.0139 87.6727L60.7429 87.8549ZM51.6307 94.5979L51.4485 94.0512L50.9018 94.4157L51.6307 94.5979ZM55.2756 87.6727L55.0933 87.126L54.5466 87.6727H55.2756ZM57.2803 83.2989L57.6447 84.2101L58.1915 83.4811L57.2803 83.2989ZM60.9251 86.5792L60.3784 86.0325L60.1961 86.7615L60.9251 86.5792ZM80.2428 81.6587L80.0606 80.9297L79.5139 81.4764L80.2428 81.6587ZM76.598 78.925L75.14 78.3783L75.3223 80.383L76.598 78.925Z" fill="#FF593E"/>
<path d="M77.1452 78.1962L76.234 77.8317V78.9251L77.1452 78.1962ZM69.1266 79.4719L69.3088 78.5607L68.3976 78.7429L69.1266 79.4719ZM69.491 76.0093L67.6686 77.285L69.491 78.3784V76.0093ZM68.762 75.4625L68.2153 75.827L68.9443 76.1915L68.762 75.4625ZM70.4023 79.2896L70.0378 80.0186H70.5845L70.4023 79.2896ZM72.2247 76.1915L71.8602 75.6448L71.4957 76.556L72.2247 76.1915ZM73.3181 74.9158L72.5892 74.0046L72.0424 75.2803L73.3181 74.9158ZM71.6779 74.1868L70.949 73.2756L70.4023 74.5513L71.6779 74.1868ZM77.1452 76.3737L76.234 75.4625L75.6873 76.7382L77.1452 76.3737ZM78.6032 77.6494L77.8742 76.7382L77.3275 78.0139L78.6032 77.6494ZM73.6826 78.1962V77.4672L72.7714 77.6494L73.6826 78.1962ZM72.2247 80.5653V79.8364L71.4957 80.0186L72.2247 80.5653Z" fill="#FF593E"/>
<path d="M72.9535 78.0138L73.1357 79.1073L74.2292 78.1961L72.9535 78.0138ZM77.5095 80.9297L78.0563 81.8409L78.603 80.5652L77.5095 80.9297ZM65.6637 75.8269L66.3927 76.5559L66.7572 75.4624L65.6637 75.8269ZM70.2198 77.1026L70.5843 78.0138L71.131 77.4671L70.2198 77.1026ZM76.9628 79.2895L76.2338 79.654L76.7806 80.0185L76.9628 79.2895ZM74.5937 80.2007L74.0469 79.654L73.6824 80.5652L74.5937 80.2007ZM76.4161 82.5699L76.0516 81.8409L75.6871 82.7521L76.4161 82.5699ZM70.4021 81.6587L69.6731 81.8409L70.4021 82.3877V81.6587ZM77.5095 81.112L77.145 80.5652L76.7806 81.4764L77.5095 81.112ZM78.9675 87.8549L78.2385 88.4017L79.1497 88.9484L78.9675 87.8549ZM78.0563 84.3923L77.6918 85.3035L78.603 85.1213L78.0563 84.3923ZM80.7899 85.4858L80.6076 86.2148L81.5189 85.8503L80.7899 85.4858ZM80.7899 85.3035L79.8787 85.1213L80.2432 85.8503L80.7899 85.3035ZM79.6964 84.2101V83.6634L78.7852 84.2101H79.6964ZM80.4254 86.397L80.0609 85.668L79.6964 86.5792L80.4254 86.397ZM81.5189 84.5746L81.1544 84.0278L80.6076 84.7568L81.5189 84.5746ZM69.3086 80.9297L68.9441 80.2007L68.2152 80.9297H69.3086ZM47.075 99.3362L48.3507 97.8783L46.346 96.9671L47.075 99.3362ZM56.9161 78.3783L58.374 79.4718L59.103 77.6493L56.9161 78.3783ZM50.5376 80.2007L51.4488 80.5652V79.2895L50.5376 80.2007ZM55.6404 78.1961L55.8227 79.2895L56.7339 78.5606L55.6404 78.1961ZM45.0703 86.5792L44.7058 87.8549L46.8927 87.6727L45.0703 86.5792ZM47.075 93.8689L46.346 93.6867L46.5283 94.5979L47.075 93.8689ZM48.7152 89.6774L47.2573 89.4951L47.804 91.1353L48.7152 89.6774ZM47.9862 85.8503L48.7152 85.3035L47.804 84.5746L47.9862 85.8503ZM48.7152 88.5839L49.2619 89.4951L49.8086 88.5839H48.7152ZM64.9348 81.2942L64.7525 82.2054L65.6637 81.6587L64.9348 81.2942ZM53.2712 83.2989L53.089 84.0278L53.818 83.8456L53.2712 83.2989ZM52.5423 84.0278L51.8133 84.3923L52.5423 84.9391V84.0278ZM51.4488 82.3877L51.9955 83.1166L52.1778 82.3877H51.4488ZM55.8227 83.1166L55.2759 83.6634L56.1871 83.8456L55.8227 83.1166ZM56.9161 80.5652L57.4628 81.4764L57.8273 80.383L56.9161 80.5652Z" fill="#FF593E"/>
<path d="M52.9068 80.3833L53.818 80.0188L52.7245 79.472L52.9068 80.3833ZM49.8086 82.2057L50.3554 81.659L49.4442 81.4767L49.8086 82.2057ZM50.7199 78.3786L50.5376 79.2898H51.4488L50.7199 78.3786ZM52.36 89.3131H53.2712L52.5423 88.2197L52.36 89.3131ZM44.7058 90.0421L46.8927 89.3131L44.7058 87.8552V90.0421ZM47.804 81.4767L48.5329 82.0234L48.8974 81.2945L47.804 81.4767ZM54.1825 80.93L53.4535 81.659L54.7292 82.0234L54.1825 80.93ZM54.7292 78.0141L53.818 78.9253L55.2759 79.472L54.7292 78.0141Z" fill="#FF593E"/>
<path d="M51.9956 78.9253L50.9021 80.0188L52.7245 80.7477L51.9956 78.9253ZM48.3507 84.3926L46.7105 82.7524L45.6171 84.7571L48.3507 84.3926ZM49.4442 81.4767L49.9909 80.5655L48.8974 81.1122L49.4442 81.4767ZM47.804 81.4767L46.7105 82.5702L48.8974 82.9346L47.804 81.4767ZM47.6217 96.9673L47.9862 97.8785L49.0797 96.9673H47.6217ZM49.8087 79.2898V80.0188L50.7199 79.6543L49.8087 79.2898ZM48.3507 90.7711L48.533 91.8645L49.6264 91.1356L48.3507 90.7711ZM46.3461 90.7711L46.5283 91.6823L47.6217 90.9533L46.3461 90.7711Z" fill="#FF593E"/>
<path d="M46.1635 88.4019V89.4954L46.8924 88.9487L46.1635 88.4019ZM48.1681 92.7758V93.687L49.0793 93.3225L48.1681 92.7758ZM47.9859 91.5001L48.7148 91.3178L48.1681 90.5888L47.9859 91.5001ZM46.5279 85.486L47.2569 85.1216L46.7102 84.3926L46.5279 85.486ZM47.2569 86.944L47.8036 86.7617L47.4391 86.0328L47.2569 86.944ZM46.7102 97.1496H47.2569L47.0747 96.4206L46.7102 97.1496ZM46.7102 92.229L46.5279 93.3225L47.6214 92.7758L46.7102 92.229Z" fill="#FF593E"/>
<path d="M47.4393 92.7757L46.5281 91.8645L45.9814 93.1402L47.4393 92.7757ZM47.2571 90.2243L46.5281 90.771L47.0748 91.1355L47.2571 90.2243ZM49.0795 94.5981V95.1448L49.8085 94.7803L49.0795 94.5981ZM48.8973 99.3364L47.8038 100.248L49.444 100.977L48.8973 99.3364ZM54.3645 92.7757H55.0935L54.5468 91.8645L54.3645 92.7757ZM45.4347 94.9626L45.9814 96.785L47.4393 95.5093L45.4347 94.9626ZM47.4393 94.0514L47.6216 94.7803L48.3505 94.2336L47.4393 94.0514ZM51.2664 94.7803L49.9907 95.1448L50.7197 96.2383L51.2664 94.7803ZM51.0842 82.0233L50.5374 82.5701H51.4486L51.0842 82.0233Z" fill="#FF593E"/>
<path d="M51.0842 82.7521L51.6309 82.2054L50.5374 82.0232L51.0842 82.7521ZM48.8973 90.4063L50.7197 90.7708L49.9907 88.5839L48.8973 90.4063ZM49.6262 85.668H50.9019L50.3552 84.3923L49.6262 85.668ZM47.986 88.4017L49.444 86.9437L47.2571 86.2148L47.986 88.4017ZM47.986 96.4203L48.8973 95.8736L47.8038 95.1446L47.986 96.4203ZM48.3505 84.5746L49.444 84.2101L48.5328 83.2989L48.3505 84.5746ZM54.729 81.2942L56.7337 80.7475L55.0935 79.1073L54.729 81.2942ZM50.3552 82.0232L52.3599 81.4764L50.7197 79.8363L50.3552 82.0232Z" fill="#FF593E"/>
<path d="M48.1683 85.6684L50.1729 84.9394L48.3505 83.2992L48.1683 85.6684ZM51.0842 87.3086L50.1729 87.4908L50.9019 88.2198L51.0842 87.3086ZM49.9907 82.2058L48.5328 83.117L50.3552 83.8459L49.9907 82.2058ZM53.6356 77.6497L51.9954 78.1964L53.4533 79.2899L53.6356 77.6497ZM49.9907 87.1263L49.2617 87.3086L49.9907 87.8553V87.1263ZM62.9299 84.2104H62.201L62.5655 84.9394L62.9299 84.2104ZM44.7057 91.8646L46.8926 90.7712L44.5234 90.2244L44.7057 91.8646ZM49.6262 93.3226L51.2664 92.9581L50.1729 91.5001L49.6262 93.3226ZM45.4347 94.5983L47.2571 92.7758H44.7057L45.4347 94.5983ZM50.9019 90.9534H51.6309L51.2664 90.0422L50.9019 90.9534ZM45.2524 86.2151H46.8926L45.6169 84.9394L45.2524 86.2151ZM47.8038 88.2198L47.0748 88.5843L47.8038 88.9488V88.2198ZM51.9954 86.3974L51.2664 86.9441L51.9954 87.3086V86.3974ZM59.1029 84.2104V84.9394L59.8318 84.7572L59.1029 84.2104ZM55.6402 90.0422L54.9113 89.4955L54.729 90.4067L55.6402 90.0422ZM55.2757 81.4768L54.5468 82.388L55.8225 82.7525L55.2757 81.4768Z" fill="#FF593E"/>
<path d="M53.2712 82.2058L52.5423 82.9347L53.6358 83.2992L53.2712 82.2058ZM49.4442 97.1497L49.9909 97.5142V96.7852L49.4442 97.1497ZM51.6311 97.1497L52.5423 97.3319L52.36 96.4207L51.6311 97.1497ZM55.8227 85.3039V86.0329H56.7339L55.8227 85.3039ZM47.804 84.3927L47.4395 85.3039H48.3507L47.804 84.3927Z" fill="#FF593E"/>
<path d="M117.42 124.122L116.509 122.299L115.233 123.757L117.42 124.122ZM96.28 116.103V117.197L97.3735 116.65L96.28 116.103ZM102.658 117.197L103.57 117.561L103.387 116.468L102.658 117.197ZM97.5557 115.192L97.3735 116.285L98.6492 115.921L97.5557 115.192ZM110.859 121.388L111.406 120.295L110.13 120.113L110.859 121.388ZM122.341 124.304H125.439L124.345 121.935L122.341 124.304Z" fill="#AF2500"/>
<path d="M120.518 124.304H122.523L121.247 122.664L120.518 124.304ZM124.527 120.113L125.438 119.201L124.163 118.837L124.527 120.113Z" fill="#AF2500"/>
<path d="M118.878 124.304H120.7L119.971 122.299L118.878 124.304ZM102.294 121.024L103.569 121.388L103.205 120.112L102.294 121.024ZM109.036 119.019V120.112L109.948 119.748L109.036 119.019ZM105.756 119.019L105.938 120.112L107.032 119.566L105.756 119.019ZM101.018 117.925L100.107 117.196L99.5599 118.29L101.018 117.925ZM101.382 119.383L102.111 118.654L100.836 118.29L101.382 119.383ZM93.5458 115.921L94.0926 115.192L92.9991 114.827L93.5458 115.921ZM129.448 121.753L129.994 121.206L128.901 120.659L129.448 121.753ZM120.7 122.117L121.429 121.206L120.153 121.024L120.7 122.117ZM99.1954 118.108L98.4664 117.561L98.1019 118.654L99.1954 118.108ZM131.27 123.028L130.723 122.482L130.541 123.21L131.27 123.028ZM119.424 120.112L119.607 119.383H118.878L119.424 120.112ZM110.494 114.827H111.041L110.677 114.281L110.494 114.827ZM95.915 117.743L96.0972 117.014L95.186 117.196L95.915 117.743ZM104.48 112.094H105.027L104.663 111.365L104.48 112.094ZM105.938 114.281H106.485L106.121 113.552L105.938 114.281Z" fill="#AF2500"/>
<path d="M95.3688 113.734L95.7333 114.281L96.0978 113.734H95.3688ZM102.841 113.734L103.023 114.281L103.57 113.734H102.841ZM100.107 117.014L99.5604 115.739L98.6492 116.832L100.107 117.014ZM105.757 121.935L105.392 119.93L103.387 121.388L105.757 121.935ZM117.785 121.753L117.42 120.659L116.327 121.57L117.785 121.753ZM97.1912 118.837L98.1024 117.926L96.8268 117.197L97.1912 118.837ZM98.6492 119.93L98.4669 118.29L97.009 119.201L98.6492 119.93ZM103.023 118.472L103.387 117.561H102.294L103.023 118.472ZM125.986 119.93L126.715 119.019L125.621 118.837L125.986 119.93ZM120.336 119.93L121.247 120.295L121.065 119.383L120.336 119.93ZM119.243 122.117L120.154 122.482L119.972 121.57L119.243 122.117ZM123.252 119.748L123.981 120.295V119.383L123.252 119.748Z" fill="#AF2500"/>
<path d="M121.247 119.93V120.841L122.158 120.477L121.247 119.93ZM123.981 118.837L123.616 117.743L122.887 118.837H123.981ZM116.509 121.935L115.962 121.023L115.415 122.117L116.509 121.935ZM118.331 121.023L118.878 120.477L117.967 120.112L118.331 121.023ZM117.42 124.122H118.878L118.331 122.481L117.42 124.122ZM122.887 120.659L123.434 119.93L122.523 119.748L122.887 120.659ZM115.598 116.832L116.327 117.196V116.285L115.598 116.832ZM119.243 120.841L119.972 121.206V120.294L119.243 120.841ZM126.168 120.477L125.439 119.748L124.71 120.841L126.168 120.477ZM123.252 121.57L123.799 121.023L122.705 120.659L123.252 121.57ZM126.532 120.477L127.444 121.023V120.112L126.532 120.477ZM122.523 121.752L121.794 120.841L121.429 121.935L122.523 121.752ZM123.616 123.21L122.341 122.117L121.794 123.757L123.616 123.21ZM121.612 122.846L120.701 121.935L120.336 123.21L121.612 122.846ZM127.444 119.383L127.808 118.654L126.897 118.472L127.444 119.383ZM100.836 117.743L101.747 118.108V117.014L100.836 117.743ZM106.668 118.654L107.944 118.472L107.215 117.379L106.668 118.654ZM106.85 121.752L107.944 121.388L107.397 120.294L106.85 121.752ZM105.757 121.935L106.668 122.299V121.206L105.757 121.935ZM109.037 119.748H110.13L109.401 118.654L109.037 119.748ZM107.397 119.566L107.215 118.654L106.486 119.383L107.397 119.566ZM127.444 124.122L126.532 122.664L125.439 124.304L127.444 124.122ZM115.051 123.939L114.504 121.57L112.317 123.393L115.051 123.939ZM115.78 119.019V118.29L115.051 118.654L115.78 119.019Z" fill="#AF2500"/>
<path d="M99.56 120.112L99.3778 119.383L98.6488 119.93L99.56 120.112ZM102.294 121.023L101.929 120.294L101.382 120.659L102.294 121.023ZM114.504 121.023L114.322 120.112L113.41 120.659L114.504 121.023ZM112.681 122.117L111.953 120.841L111.041 122.481L112.681 122.117ZM107.396 120.112L108.308 119.93L107.761 119.019L107.396 120.112ZM107.579 121.752L108.49 121.57L107.761 120.659L107.579 121.752ZM109.401 120.841L108.672 121.57L109.401 121.752V120.841Z" fill="#AF2500"/>
<path d="M108.672 121.388L107.761 122.482L108.855 122.664L108.672 121.388ZM106.121 120.112L106.485 121.024L107.214 120.112H106.121ZM108.672 118.654L109.584 118.29L109.037 117.379L108.672 118.654ZM111.042 120.477L111.588 121.206L112.135 120.477H111.042ZM124.527 121.388L123.252 121.57L123.799 122.846L124.527 121.388ZM128.901 121.388L127.626 121.57L128.537 122.846L128.901 121.388ZM129.995 121.57L129.448 122.299L130.359 122.482L129.995 121.57ZM129.448 123.94L130.541 123.575L129.448 122.482V123.94ZM129.266 120.295H128.172L128.719 121.206L129.266 120.295ZM126.35 122.299L125.985 121.206L125.439 121.753L126.35 122.299ZM126.168 123.575L125.256 122.117L124.527 123.211L126.168 123.575ZM126.714 123.575L128.355 122.846L126.897 121.57L126.714 123.575Z" fill="#AF2500"/>
<path d="M127.808 124.122L129.084 123.94L128.173 122.846L127.808 124.122ZM116.327 120.841L115.962 119.748L115.051 120.477L116.327 120.841ZM119.061 123.211L118.696 121.935L117.603 122.664L119.061 123.211ZM111.953 123.028L111.589 121.935L110.677 122.664L111.953 123.028ZM112.5 121.935L113.593 121.388L112.318 120.659L112.5 121.935ZM114.687 121.935L115.416 121.388L114.687 121.024V121.935ZM112.135 123.393L113.593 122.664L112.318 121.935L112.135 123.393ZM115.233 123.211L115.962 122.664L115.051 122.299L115.233 123.211ZM111.224 116.832L111.771 117.379L111.953 116.468L111.224 116.832ZM97.3736 117.014L98.1026 117.379L98.2849 116.468L97.3736 117.014ZM97.5559 117.561L96.6447 116.832L96.4624 117.926L97.5559 117.561ZM104.299 118.837L103.934 117.561L102.841 118.654L104.299 118.837Z" fill="#AF2500"/>
<path d="M103.205 119.748L102.658 118.654L101.747 119.748H103.205ZM103.751 118.108L104.663 118.654L104.845 117.561L103.751 118.108ZM101.018 116.832L101.747 117.197L101.929 116.468L101.018 116.832ZM116.326 122.117L117.237 123.028L117.602 121.388L116.326 122.117ZM89.3543 134.51L87.5318 135.239L88.6253 136.332L89.3543 134.51ZM89.7187 133.234L90.2655 131.411L88.2608 131.776L89.7187 133.234Z" fill="#AF2500"/>
<path d="M87.7146 132.323L88.0791 131.594H87.1679L87.7146 132.323ZM89.3548 134.51L89.7193 133.234L87.8968 133.416L89.3548 134.51Z" fill="#AF2500"/>
<path d="M88.4434 136.696L86.0742 136.332L87.5322 138.154L88.4434 136.696ZM88.8079 132.687L87.35 132.869L88.0789 134.145L88.8079 132.687Z" fill="#AF2500"/>
<path d="M88.0786 136.514L87.7141 135.785L87.1673 136.514H88.0786ZM87.1673 135.238L88.2608 134.509L86.6206 133.963L87.1673 135.238ZM107.943 122.481L107.579 121.388L106.667 122.299L107.943 122.481ZM109.948 115.738L109.765 114.827L108.854 115.556L109.948 115.738ZM111.223 123.21L110.494 121.206L108.854 122.664L111.223 123.21ZM105.574 119.565L105.209 118.472L104.48 119.383L105.574 119.565Z" fill="#AF2500"/>
<path d="M106.303 118.837L105.938 117.926L105.027 118.655L106.303 118.837ZM99.7421 120.295L101.2 120.659V119.201L99.7421 120.295ZM103.569 119.748L104.116 120.477L104.48 119.566L103.569 119.748ZM90.4477 127.949L90.6299 126.673L89.3542 127.22L90.4477 127.949Z" fill="#AF2500"/>
<path d="M90.8122 124.304L88.9898 125.033L90.63 126.673L90.8122 124.304ZM90.63 128.86L90.0832 129.224L90.4477 129.771L90.63 128.86ZM88.9898 127.767L88.0786 128.131L88.9898 129.224V127.767ZM88.443 124.851L87.5318 125.397L88.443 125.944V124.851ZM90.2655 131.411L90.63 129.953L89.172 130.136L90.2655 131.411ZM89.172 126.673L89.7187 125.944H88.8075L89.172 126.673ZM90.8122 121.57V120.477L89.901 121.024L90.8122 121.57Z" fill="#AF2500"/>
<path d="M90.8122 121.57L90.2655 122.117L90.8122 122.482V121.57ZM89.3542 121.024L88.443 121.935L89.7187 122.482L89.3542 121.024ZM90.8122 119.384L90.0832 119.93L90.8122 120.295V119.384ZM90.8122 124.304V122.846L89.5365 123.211L90.8122 124.304ZM88.9898 120.659L89.5365 119.93H88.443L88.9898 120.659ZM99.5598 119.019L100.471 119.566L100.653 118.655L99.5598 119.019ZM92.0879 117.014V115.192L90.4477 116.103L92.0879 117.014ZM99.5598 115.01L99.1954 113.916L98.4664 114.645L99.5598 115.01ZM98.1019 113.187L98.6486 113.005L98.1019 112.458V113.187ZM97.0084 114.463L97.3729 114.281L97.0084 113.734V114.463ZM95.3683 115.192L94.8215 114.281L94.2748 115.192H95.3683ZM107.032 117.014L107.579 116.65L106.85 116.103L107.032 117.014ZM112.135 118.837L111.952 119.93L113.046 119.566L112.135 118.837ZM108.672 121.206L109.036 120.295L107.761 120.113L108.672 121.206Z" fill="#AF2500"/>
<path d="M112.135 118.837L113.411 118.472L112.5 117.379L112.135 118.837ZM113.593 119.383L113.411 118.654L112.682 119.383H113.593ZM115.598 119.019L116.327 118.654L115.78 117.926L115.598 119.019ZM118.514 119.566L118.332 118.472L117.42 119.201L118.514 119.566ZM111.771 116.103L111.406 115.192L110.495 116.103H111.771ZM102.294 116.468L101.93 115.739L101.019 116.468H102.294ZM105.21 116.468L104.846 115.556L103.934 116.285L105.21 116.468ZM117.967 120.659L117.603 119.748L116.691 120.477L117.967 120.659ZM113.958 117.561L114.687 117.197L113.775 116.65L113.958 117.561ZM110.495 119.019L111.042 119.566L111.589 118.654L110.495 119.019ZM98.6493 118.654L99.1961 119.019L99.5606 118.108L98.6493 118.654ZM95.0045 117.014L95.7334 116.468L94.4578 115.921L95.0045 117.014ZM92.9998 117.379L93.1821 116.468L92.0886 117.014L92.9998 117.379ZM95.5512 118.654L95.369 117.926L94.64 118.29L95.5512 118.654ZM97.0091 119.201L96.6447 117.926L95.5512 118.837L97.0091 119.201ZM93.1821 117.561L94.4578 118.29L94.8222 116.832L93.1821 117.561ZM93.1821 116.285L93.911 117.014L94.2755 116.285H93.1821ZM92.4531 115.739L92.8176 116.285L93.3643 115.556L92.4531 115.739ZM112.5 115.556L113.047 116.285L113.411 115.192L112.5 115.556ZM82.2475 139.066L82.4297 137.79L83.5232 138.337L82.2475 139.066ZM80.7895 139.248L80.9718 137.972L82.2475 138.519L80.7895 139.248ZM83.1587 140.524L83.3409 139.248L84.4344 139.977L83.1587 140.524ZM81.154 141.435L81.883 140.341L83.1587 141.617L81.154 141.435ZM78.9671 141.07L80.2428 139.795L80.7895 141.435L78.9671 141.07ZM90.4484 116.103L89.7194 115.739L90.6306 115.01L90.4484 116.103ZM85.8923 130.683L84.9811 130.136L85.7101 129.225L85.8923 130.683ZM86.8036 135.968L85.3456 135.239L86.6213 133.781L86.8036 135.968ZM88.2615 132.505L86.9858 133.598L86.2568 131.776L88.2615 132.505ZM89.7194 115.556L88.9905 115.192L89.7194 114.645V115.556ZM90.6306 119.383L89.9017 119.019L90.6306 118.472V119.383ZM71.1307 138.337L69.855 138.154L70.7662 137.061L71.1307 138.337ZM69.4905 137.972H68.2148L68.9438 136.879L69.4905 137.972Z" fill="#AF2500"/>
<path d="M90.4482 128.131L89.537 128.678L89.3548 127.584L90.4482 128.131ZM80.2426 133.963L80.9716 134.692L80.0604 135.056L80.2426 133.963ZM86.6211 127.22L87.5323 127.949L86.4389 128.313L86.6211 127.22ZM87.3501 125.033L86.9856 123.939L88.4436 124.122L87.3501 125.033ZM84.252 124.486H83.3408L83.7053 123.575L84.252 124.486ZM73.1352 139.066L71.6772 138.519L73.1352 137.061V139.066ZM90.995 114.827L91.9062 114.098L92.2707 115.192L90.995 114.827ZM96.6445 112.276L97.1912 112.458V111.729L96.6445 112.276ZM100.472 113.734L101.018 114.098V113.369L100.472 113.734ZM90.6305 118.108V118.472L90.0838 118.29L90.6305 118.108ZM70.0371 131.229L69.4903 131.776L69.3081 131.047L70.0371 131.229ZM69.4903 135.785L68.9436 135.238L69.6726 134.874L69.4903 135.785ZM68.3969 137.972L67.3034 137.425L68.2146 136.514L68.3969 137.972ZM66.3922 137.243L65.2987 136.696L66.21 135.785L66.3922 137.243ZM74.9576 138.519L74.4109 137.972L75.1398 137.608L74.9576 138.519ZM71.3128 125.944L70.766 126.309V125.58L71.3128 125.944ZM89.9015 114.098L89.3548 114.28V113.734L89.9015 114.098ZM88.4436 112.64L88.808 113.187H88.0791L88.4436 112.64Z" fill="#AF2500"/>
<path d="M90.4484 113.734L89.9017 114.098V113.369L90.4484 113.734ZM86.9858 112.823L87.3503 113.369H86.6213L86.9858 112.823ZM88.8082 119.383V118.654L89.5372 119.019L88.8082 119.383ZM86.2568 129.407L85.5279 128.678L86.8036 128.313L86.2568 129.407ZM88.9905 127.767L88.0792 127.038L89.3549 126.491L88.9905 127.767ZM87.7148 129.771L86.9858 129.042L88.2615 128.678L87.7148 129.771ZM89.9017 123.575L88.8082 123.757L89.1727 122.482L89.9017 123.575ZM92.9998 113.552L92.2708 114.281L92.0886 113.187L92.9998 113.552Z" fill="#AF2500"/>
<path d="M88.8079 124.851L88.9901 123.393L90.0836 124.122L88.8079 124.851Z" fill="#AF2500"/>
<path d="M88.4437 124.668L88.626 123.575L89.7194 124.304L88.4437 124.668ZM84.6167 134.145L83.7054 133.598L84.6167 132.687V134.145ZM76.9624 138.701L76.7802 137.608L78.4204 138.154L76.9624 138.701ZM76.4157 138.337L75.14 137.608L76.4157 136.696V138.337ZM74.9578 139.977L73.6821 139.248L74.9578 138.337V139.977Z" fill="#AF2500"/>
<path d="M75.3216 140.524L74.7748 139.977L76.5973 139.066L75.3216 140.524ZM78.2375 139.612L76.7795 139.43L78.2375 137.972V139.612Z" fill="#AF2500"/>
<path d="M77.6911 139.43L77.8733 140.888L75.6864 140.524L77.6911 139.43ZM62.2005 139.248L61.4715 139.066L62.0182 138.337L62.2005 139.248ZM85.163 130.865L84.2518 131.412L84.0696 130.136L85.163 130.865ZM87.1677 131.776L85.7098 132.505V130.865L87.1677 131.776ZM86.0742 133.416L85.163 133.781V132.687L86.0742 133.416ZM74.593 138.337L73.6817 139.066L73.4995 137.972L74.593 138.337ZM76.0509 138.701L75.1397 139.43L74.9574 138.337L76.0509 138.701ZM80.4247 139.248L78.7845 140.706L78.9668 138.701L80.4247 139.248ZM83.3406 128.86L82.9761 128.313H83.8873L83.3406 128.86ZM79.3313 126.491L78.9668 125.762H79.878L79.3313 126.491ZM79.5135 135.785L79.149 135.056L79.878 134.874L79.5135 135.785ZM87.1677 123.211L86.8032 122.664L87.35 122.482L87.1677 123.211ZM88.6256 126.491L88.0789 125.762L88.9901 125.58L88.6256 126.491ZM82.9761 132.687L82.6116 131.958L83.5228 131.776L82.9761 132.687ZM83.3406 141.799L82.2472 140.159L84.7985 141.07L83.3406 141.799ZM82.9761 137.79L84.6163 137.608L83.8873 139.066L82.9761 137.79Z" fill="#AF2500"/>
<path d="M81.7002 139.248L83.1582 139.066L82.4292 140.524L81.7002 139.248ZM84.7984 128.678V129.407H83.8871L84.7984 128.678ZM84.2516 129.954L84.4339 130.683L83.7049 130.318L84.2516 129.954ZM79.6955 138.519L79.3311 137.608L80.4245 137.425L79.6955 138.519ZM84.7984 141.07L84.0694 138.883L86.074 139.795L84.7984 141.07ZM84.9806 132.323H84.2516L84.6161 131.411L84.9806 132.323ZM84.9806 136.15H84.2516L84.6161 135.239L84.9806 136.15ZM84.4339 137.243H83.7049L84.0694 136.332L84.4339 137.243ZM85.3451 135.239L84.6161 135.056L84.7984 134.145L85.3451 135.239ZM76.7797 133.781V134.692L75.8685 134.145L76.7797 133.781ZM90.6301 114.827L89.9012 115.374L89.7189 114.463L90.6301 114.827ZM88.0787 114.645L88.8077 114.098V115.01L88.0787 114.645ZM87.8965 123.028L87.3498 121.935H88.8077L87.8965 123.028ZM87.532 127.402L86.803 126.309L88.261 126.126L87.532 127.402ZM88.4432 113.916L87.8965 114.645L87.1675 113.734L88.4432 113.916ZM85.1628 122.482V123.393L84.4339 123.028L85.1628 122.482Z" fill="#AF2500"/>
<path d="M80.6069 133.416L80.2425 132.505H81.3359L80.6069 133.416ZM82.2472 136.15L81.8827 135.239H82.9761L82.2472 136.15ZM76.7799 132.14L76.2331 131.229H77.3266L76.7799 132.14ZM83.7051 135.967L83.3406 134.874L84.6163 135.056L83.7051 135.967ZM81.7004 137.243L81.1537 136.332L82.4294 136.514L81.7004 137.243ZM80.9715 140.888L80.6069 139.977H81.8827L80.9715 140.888ZM84.7985 139.066L84.4341 137.972L85.7098 138.154L84.7985 139.066ZM87.35 121.388L86.8032 120.659L87.8967 120.477L87.35 121.388ZM88.8079 123.757L88.0789 123.939L88.2612 123.028L88.8079 123.757ZM88.4434 126.491V127.402L87.5322 126.855L88.4434 126.491ZM85.5275 125.397L85.7098 126.309L84.7985 125.762L85.5275 125.397ZM74.593 130.865L74.2285 129.771H75.3219L74.593 130.865ZM86.0742 139.977L85.7098 137.79L87.5322 138.154L86.0742 139.977Z" fill="#AF2500"/>
<path d="M86.2567 137.972L84.7987 136.514L86.4389 135.603L86.2567 137.972ZM88.9903 131.411L87.5324 130.136L89.1726 129.042L88.9903 131.411ZM80.0604 131.229L79.3314 131.411L79.5137 130.5L80.0604 131.229ZM73.1352 133.78L72.0417 133.234L72.9529 132.505L73.1352 133.78ZM78.6025 137.243H77.509V136.15L78.6025 137.243ZM75.8688 133.78L75.3221 132.869H76.4156L75.8688 133.78ZM70.2193 136.15L69.8548 135.238H70.9483L70.2193 136.15ZM70.2193 137.425L69.8548 136.514H70.9483L70.2193 137.425Z" fill="#AF2500"/>
<path d="M67.6679 136.879L67.3034 135.967H68.3969L67.6679 136.879ZM69.3081 137.972L69.4903 136.879L70.4016 137.425L69.3081 137.972ZM71.495 138.154L71.1305 137.243H72.224L71.495 138.154ZM65.6632 138.519L64.3875 139.066L64.5698 137.608L65.6632 138.519Z" fill="#AF2500"/>
<path d="M64.0231 139.248L62.9296 139.795V138.337L64.0231 139.248ZM67.8501 137.972L66.0277 138.337L66.5744 136.514L67.8501 137.972ZM63.8408 139.066L63.4763 138.154H64.5698L63.8408 139.066ZM65.8455 138.154L64.9343 137.608L65.8455 137.061V138.154ZM62.7474 139.977L61.6539 140.706L61.4716 139.43L62.7474 139.977ZM61.4716 141.07L60.5604 141.982L60.196 140.524L61.4716 141.07ZM62.0184 137.061V137.972L61.4716 137.608L62.0184 137.061ZM59.6492 139.612H58.9203L59.1025 138.701L59.6492 139.612Z" fill="#AF2500"/>
<path d="M60.5604 141.617L59.467 142.164L59.2847 140.888L60.5604 141.617ZM58.738 142.71L57.6446 143.257L57.4623 141.981L58.738 142.71ZM57.2801 147.266L56.7333 147.631L56.5511 146.72L57.2801 147.266ZM60.5604 139.248L59.6492 138.883L60.3782 138.154L60.5604 139.248ZM61.4716 139.977L60.5604 139.612L61.2894 138.883L61.4716 139.977ZM59.2847 141.617L58.3735 141.252L59.1025 140.523L59.2847 141.617ZM61.1072 141.07L60.5604 140.341L61.6539 139.977L61.1072 141.07ZM62.7474 139.612L61.8361 139.248L62.5651 138.519L62.7474 139.612ZM59.1025 144.168L58.738 145.444L57.8268 144.351L59.1025 144.168ZM57.4623 145.444L57.0978 146.72L56.1866 145.626L57.4623 145.444Z" fill="#AF2500"/>
<path d="M58.5556 145.808L58.1911 147.084L57.2799 145.991L58.5556 145.808ZM60.1958 142.346L59.2846 143.804L58.1911 141.981L60.1958 142.346ZM58.3734 145.808L57.4621 145.626L58.1911 144.715L58.3734 145.808ZM64.0229 138.337L63.1117 138.154L63.6584 137.243L64.0229 138.337ZM58.9201 143.804L58.0089 143.986L58.1911 142.893L58.9201 143.804ZM57.2799 149.453L56.5509 150L56.3687 149.089L57.2799 149.453ZM58.1911 149.453V150.729L56.9154 150L58.1911 149.453ZM58.1911 147.266L58.0089 149.089L56.3687 147.813L58.1911 147.266ZM58.1911 151.094L58.3734 152.369L57.0977 151.822L58.1911 151.094ZM56.0042 151.64L55.6397 152.187L55.093 151.64H56.0042Z" fill="#AF2500"/>
<path d="M58.1913 152.187L58.009 153.28L56.9156 152.734L58.1913 152.187ZM58.009 154.192L57.8268 155.467L56.5511 154.738L58.009 154.192ZM60.9249 158.019V158.748L60.0137 158.383L60.9249 158.019ZM56.1866 150.729L55.4576 151.276L55.2754 150.365L56.1866 150.729ZM57.4623 150.365L56.5511 150.911L56.3689 150L57.4623 150.365ZM57.4623 153.098L56.7333 153.645L56.5511 152.551L57.4623 153.098Z" fill="#AF2500"/>
<path d="M58.0089 151.276H57.0977L57.4621 150.364L58.0089 151.276ZM57.8266 149.089L57.0977 149.635L56.9154 148.542L57.8266 149.089ZM59.4668 154.738L60.1958 155.832H58.7378L59.4668 154.738ZM60.378 156.196L61.2892 157.107L59.8313 157.472L60.378 156.196Z" fill="#AF2500"/>
<path d="M58.5559 152.734L59.2849 154.374L57.2802 154.192L58.5559 152.734ZM60.3784 156.379L59.6494 156.925L59.2849 155.832L60.3784 156.379ZM59.1027 154.738L58.7382 155.65L58.0092 154.738H59.1027ZM61.4718 157.472L62.383 158.201L61.1073 158.748L61.4718 157.472Z" fill="#AF2500"/>
<path d="M62.2001 158.201L62.7468 159.294L61.4711 159.477L62.2001 158.201ZM63.2935 160.023L63.8403 161.117L62.5646 161.299L63.2935 160.023ZM67.6674 160.57L68.7608 161.846L66.9384 162.21L67.6674 160.57ZM62.2001 159.477L61.8356 160.388L61.1066 159.659L62.2001 159.477Z" fill="#AF2500"/>
<path d="M64.7515 159.659L66.0272 160.024L64.9337 160.935L64.7515 159.659ZM66.3917 160.206L67.6674 160.388L66.7562 161.481L66.3917 160.206ZM68.0319 160.388H69.4898L68.9431 162.21L68.0319 160.388ZM67.4851 162.21L68.9431 162.393L68.3963 164.215L67.4851 162.21Z" fill="#AF2500"/>
<path d="M66.9386 164.215H68.3965L67.8498 166.038L66.9386 164.215ZM66.9386 167.131L67.8498 166.402L67.3031 168.224L65.4806 167.495L66.9386 167.131ZM62.747 158.566L64.2049 159.295L62.5647 160.57L62.747 158.566ZM66.5741 160.388L66.2096 161.299L65.4806 160.57L66.5741 160.388ZM64.3872 159.659L64.5694 160.752L63.476 160.57L64.3872 159.659ZM73.6816 137.972L72.7703 137.608L73.6816 136.879V137.972ZM79.3311 133.052L78.6021 133.234L78.7843 132.323L79.3311 133.052ZM64.2049 137.425L63.8404 136.332H65.1161L64.2049 137.425ZM61.2891 134.145L61.1068 135.056L60.3778 134.51L61.2891 134.145ZM65.8451 134.145L65.6629 135.239L64.7517 134.51L65.8451 134.145ZM70.4012 131.411L70.0367 130.5H70.9479L70.4012 131.411ZM63.6582 136.879L62.5647 136.696L63.2937 135.603L63.6582 136.879Z" fill="#AF2500"/>
<path d="M63.6584 134.145L63.8406 133.598L64.5696 134.327L63.6584 134.145ZM67.4855 134.51L67.6677 133.598L68.3967 134.327L67.4855 134.51ZM64.7518 135.238L64.3874 135.785L63.8406 135.056L64.7518 135.238ZM63.4762 135.603L63.1117 136.332L62.7472 135.421L63.4762 135.603ZM60.0136 137.79L60.5603 136.696L61.4715 137.79H60.0136ZM73.864 135.056L74.4107 134.327L74.9574 135.238L73.864 135.056ZM70.4014 132.869L69.6724 133.416L69.4902 132.323L70.4014 132.869ZM66.7565 135.967L66.2098 135.421L66.9388 135.056L66.7565 135.967ZM61.6537 133.234L61.107 132.687L62.0182 132.323L61.6537 133.234ZM55.6397 143.439L54.7285 143.257L55.2752 142.528L55.6397 143.439ZM58.0089 140.159L57.0977 139.977L57.6444 139.248L58.0089 140.159ZM55.2752 147.995L54.1818 147.813L54.9108 146.902L55.2752 147.995ZM55.2752 145.809L56.0042 146.173L55.2752 146.72V145.809ZM54.7285 149.453L55.4575 149.818L54.9108 150.547L54.7285 149.453ZM56.5509 143.804L57.0977 143.439L57.4621 144.168L56.5509 143.804ZM75.1397 125.215V125.944L74.2285 125.58L75.1397 125.215ZM85.892 122.299V123.21L85.163 122.846L85.892 122.299ZM73.135 133.963L72.9528 134.692L72.2238 134.327L73.135 133.963ZM64.3874 160.935L63.8406 161.481L63.6584 160.752L64.3874 160.935ZM63.8406 165.491L63.2939 164.944L64.0229 164.58L63.8406 165.491ZM65.6631 164.944L64.7518 163.851L66.0275 163.304L65.6631 164.944ZM66.9388 162.939L66.2098 162.21L67.121 161.664L66.9388 162.939Z" fill="#AF2500"/>
<path d="M67.6681 163.486L66.5746 162.939L67.4858 162.21L67.6681 163.486ZM67.3036 167.313L65.4812 166.402L66.9391 165.126L67.3036 167.313ZM65.2989 162.028L64.9344 161.117L66.0279 160.935L65.2989 162.028ZM61.8363 164.033L62.2008 163.304L62.9297 163.851L61.8363 164.033Z" fill="#AF2500"/>
<path d="M64.7517 162.575L64.0227 163.122V162.028L64.7517 162.575ZM66.5741 162.21L66.3919 163.486L65.2984 162.393L66.5741 162.21ZM66.0274 166.584L65.2984 167.131V166.038L66.0274 166.584ZM66.2096 165.855L64.7517 164.944L66.5741 164.033L66.2096 165.855Z" fill="#AF2500"/>
<path d="M67.6679 163.669L67.4857 164.398L66.7567 164.033L67.6679 163.669ZM67.6679 165.491L67.4857 166.22L66.7567 165.855L67.6679 165.491ZM65.2988 166.402L65.1165 167.131L64.3875 166.767L65.2988 166.402ZM75.3221 136.332L75.1399 137.061L74.4109 136.697L75.3221 136.332ZM72.4062 135.239L73.1352 135.603L72.7707 136.15L72.4062 135.239ZM72.224 136.697L72.9529 136.879L72.4062 137.608L72.224 136.697Z" fill="#AF2500"/>
<path d="M115.963 208.318C115.963 208.318 138.743 237.841 150.771 247.864C162.617 257.888 173.551 258.799 181.023 254.607C188.86 250.233 202.164 239.481 206.902 235.472C207.813 234.561 209.453 234.743 210.364 235.654L232.598 258.434C233.509 259.163 233.509 260.621 232.963 261.35C228.589 267.911 211.13 294.518 189.443 311.285C165.205 329.873 158.972 323.86 138.743 311.103C111.589 295.247 115.963 208.318 115.963 208.318Z" fill="url(#paint4_linear_1608_3072)"/>
<path d="M191.776 248.046L220.023 278.663C220.023 278.663 202.528 303.63 185.397 314.2C173.551 321.49 162.07 329.873 145.85 314.747C116.874 287.957 133.276 229.458 133.276 229.458C133.276 229.458 143.117 243.308 155.327 251.509C160.794 255.154 166.99 257.158 172.458 257.341C179.747 257.341 191.776 248.046 191.776 248.046Z" fill="url(#paint5_linear_1608_3072)"/>
<path d="M142.205 266.088C140.747 258.434 137.831 250.598 134.551 242.579C121.065 210.322 101.565 191.004 74.4109 192.098C67.8501 192.28 46.71 194.467 35.0464 242.579C33.4063 248.593 6.79883 390.742 6.79883 390.742H151.317L142.205 266.088Z" fill="#FFFDF3"/>
<path d="M131.635 240.757C143.117 283.037 141.841 354.476 143.481 391.471C143.663 397.121 148.402 401.677 154.233 401.677H163.163C163.163 401.677 152.776 294.883 139.472 242.215C131.089 208.864 103.023 199.023 99.1962 197.565C116.509 209.593 126.168 220.345 131.635 240.757Z" fill="url(#paint6_linear_1608_3072)"/>
<path d="M117.603 288.504C119.425 239.117 113.958 191.369 70.7663 191.369C64.2056 191.369 40.5141 198.112 28.8505 245.131C27.5748 250.598 8.25709 371.607 4.06551 396.939C3.70102 399.49 5.70571 401.677 8.07487 401.677H80.972C90.9953 401.677 104.299 395.116 106.668 385.457C113.593 359.761 116.509 317.845 117.603 288.504Z" fill="url(#paint7_linear_1608_3072)"/>
<path d="M100.836 297.616C101.018 307.093 113.046 375.252 96.0976 395.116C88.8079 403.864 56.7331 401.677 27.3921 401.13C15.5463 396.21 38.6911 307.275 41.0603 287.229C45.4341 251.327 90.8125 229.093 90.8125 229.093C90.8125 229.093 100.289 275.383 100.836 297.616Z" fill="url(#paint8_linear_1608_3072)"/>
<path d="M89.7197 199.752C103.023 211.78 102.659 244.766 80.4254 273.014C70.9487 285.224 51.0843 309.28 48.8974 314.929C45.0703 323.859 38.3273 396.574 37.2339 399.49C36.8694 400.401 35.9581 400.401 35.0469 400.584L-5.77544 407.144C-6.86889 407.327 -9.05582 406.78 -9.60254 405.322C-9.60254 405.322 -29.6492 330.785 -22.3595 299.257C-13.6119 260.621 17.5516 215.06 36.3226 201.21C51.2665 190.822 77.145 188.089 89.7197 199.752Z" fill="url(#paint9_linear_1608_3072)"/>
<path d="M53.6349 305.818L51.9947 304.178L51.0835 306.729L53.6349 305.818ZM56.3686 304.178L54.1816 302.902L53.6349 305.453L56.3686 304.178Z" fill="#084C4F"/>
<path d="M60.0134 298.892L57.6442 298.346L58.3732 301.079L60.0134 298.892ZM57.6442 302.537L55.2751 301.991L56.004 304.542L57.6442 302.537ZM67.8498 289.051L65.2984 288.687L66.2096 291.238L67.8498 289.051ZM51.8125 310.556L53.9994 307.276L49.6255 306.547L51.8125 310.556ZM49.4433 306.364L47.2564 307.822L49.8078 309.827L49.4433 306.364ZM42.8826 300.897L43.6116 302.173L44.5228 300.897H42.8826ZM48.5321 304.177L49.2611 305.453L49.9901 303.995L48.5321 304.177ZM59.1022 295.43L60.0134 296.523L60.5601 295.248L59.1022 295.43ZM54.5461 295.248L55.4573 296.341L56.004 294.701L54.5461 295.248ZM65.6629 283.22L66.5741 284.313L67.3031 282.673L65.6629 283.22ZM55.0928 300.35L55.8218 301.262L56.5508 299.804L55.0928 300.35ZM45.434 328.416L43.6116 328.233L44.1583 329.691L45.434 328.416ZM45.2517 324.589L43.7938 326.411L46.3452 326.958L45.2517 324.589ZM45.2517 319.668L43.6116 321.126L46.1629 322.219L45.2517 319.668Z" fill="#084C4F"/>
<path d="M43.6119 325.682L42.8829 327.322L44.8876 327.869L43.6119 325.682ZM38.1447 318.028L40.8783 318.575L40.3316 315.659L38.1447 318.028ZM39.6026 323.131L42.154 323.86L41.6073 320.944L39.6026 323.131ZM43.2474 309.827L45.0699 311.649L45.9811 308.734L43.2474 309.827ZM39.0559 304.906L39.2381 306.364L40.696 305.453L39.0559 304.906ZM47.9857 300.168L46.8923 300.897L47.9857 301.808V300.168ZM46.7101 312.743L45.6166 311.832L45.2521 313.29L46.7101 312.743ZM26.8456 310.738L27.0278 312.196L28.4858 310.92L26.8456 310.738ZM35.411 305.453L34.1353 306.182L35.411 307.093V305.453ZM34.682 318.21L33.9531 317.117L33.4063 318.575L34.682 318.21ZM29.7615 345.729L30.4904 347.187L31.5839 345.729H29.7615ZM37.9624 339.715L36.8689 340.444L38.1447 341.173L37.9624 339.715ZM38.6914 352.29L37.5979 351.561L37.4157 353.019L38.6914 352.29ZM31.5839 303.266L32.1306 304.906L33.4063 303.813L31.5839 303.266ZM40.696 298.71L39.6026 299.257L40.5138 300.35L40.696 298.71ZM39.4203 311.285L38.5091 310.374L37.9624 311.649L39.4203 311.285ZM58.3736 281.397L59.467 282.673L60.0138 281.215L58.3736 281.397ZM55.0932 285.771L55.4577 287.229L56.7334 286.135L55.0932 285.771ZM63.2941 280.304L62.2007 281.033L63.4764 281.944L63.2941 280.304ZM63.4764 293.061L62.7474 291.967L62.2007 293.425L63.4764 293.061ZM62.0184 276.294L61.6539 277.57L63.2941 277.935L62.0184 276.294ZM72.0418 278.299L70.5838 278.117L71.1306 279.392L72.0418 278.299ZM63.2941 287.411L63.1119 286.318L62.0184 286.682L63.2941 287.411ZM43.7942 294.883L44.1586 296.341L45.6166 294.883H43.7942ZM51.2661 288.505L50.5371 289.234L51.6306 289.963L51.2661 288.505ZM52.9063 300.897L51.8129 300.35L51.6306 301.626L52.9063 300.897ZM47.6213 286.135L47.9857 287.411L49.2614 286.318L47.6213 286.135ZM55.8222 280.486L54.7287 281.215L56.0044 281.944L55.8222 280.486ZM56.0044 293.061L55.2755 292.332L54.7287 293.607L56.0044 293.061ZM44.8876 321.308H42.8829L43.6119 323.313L44.8876 321.308Z" fill="#084C4F"/>
</g>
<defs>
<linearGradient id="paint0_linear_1608_3072" x1="77.5168" y1="186.439" x2="90.0405" y2="170.314" gradientUnits="userSpaceOnUse">
<stop stop-color="#BC5A32" stop-opacity="0"/>
<stop offset="0.99" stop-color="#BC5A32"/>
</linearGradient>
<linearGradient id="paint1_linear_1608_3072" x1="98.6164" y1="126.31" x2="88.1975" y2="111.871" gradientUnits="userSpaceOnUse">
<stop stop-color="#BC5A32" stop-opacity="0"/>
<stop offset="0.99" stop-color="#BC5A32"/>
</linearGradient>
<linearGradient id="paint2_linear_1608_3072" x1="42.5771" y1="127.342" x2="71.7159" y2="101.757" gradientUnits="userSpaceOnUse">
<stop offset="0.007" stop-color="#FF7A00"/>
<stop offset="0.983" stop-color="#FFB600"/>
</linearGradient>
<linearGradient id="paint3_linear_1608_3072" x1="68.9234" y1="155.345" x2="69.5375" y2="145.635" gradientUnits="userSpaceOnUse">
<stop stop-color="#CC7A5E" stop-opacity="0"/>
<stop offset="0.924" stop-color="#AA5F4B"/>
</linearGradient>
<linearGradient id="paint4_linear_1608_3072" x1="84.0121" y1="265.961" x2="273.629" y2="273.92" gradientUnits="userSpaceOnUse">
<stop stop-color="#46AA6E"/>
<stop offset="1" stop-color="#33E870"/>
</linearGradient>
<linearGradient id="paint5_linear_1608_3072" x1="186.95" y1="258.363" x2="104.135" y2="300.113" gradientUnits="userSpaceOnUse">
<stop stop-color="#00394A" stop-opacity="0"/>
<stop offset="0.998" stop-color="#00394A"/>
</linearGradient>
<linearGradient id="paint6_linear_1608_3072" x1="81.9631" y1="300.105" x2="185.239" y2="301.43" gradientUnits="userSpaceOnUse">
<stop stop-color="#46AA6E"/>
<stop offset="1" stop-color="#33E870"/>
</linearGradient>
<linearGradient id="paint7_linear_1608_3072" x1="-26.657" y1="297.021" x2="157.141" y2="301.096" gradientUnits="userSpaceOnUse">
<stop stop-color="#46AA6E"/>
<stop offset="1" stop-color="#33E870"/>
</linearGradient>
<linearGradient id="paint8_linear_1608_3072" x1="82.3127" y1="318.13" x2="37.3443" y2="312.281" gradientUnits="userSpaceOnUse">
<stop stop-color="#00394A" stop-opacity="0"/>
<stop offset="0.998" stop-color="#00394A"/>
</linearGradient>
<linearGradient id="paint9_linear_1608_3072" x1="-56.9856" y1="300.168" x2="140.884" y2="304.786" gradientUnits="userSpaceOnUse">
<stop stop-color="#46AA6E"/>
<stop offset="1" stop-color="#33E870"/>
</linearGradient>
<clipPath id="clip0_1608_3072">
<rect width="152" height="304" rx="6" fill="white"/>
</clipPath>
</defs>
</svg>
