<svg width="32" height="33" viewBox="0 0 32 33" fill="none" xmlns="http://www.w3.org/2000/svg">
<path fill-rule="evenodd" clip-rule="evenodd" d="M16 30.7682C8.12927 30.7682 1.73181 24.3707 1.73181 16.5C1.73181 8.62927 8.12927 2.23181 16 2.23181C23.8707 2.23181 30.2682 8.62927 30.2682 16.5C30.2682 24.3707 23.8707 30.7682 16 30.7682ZM16 4.22272C9.2309 4.22272 3.72272 9.7309 3.72272 16.5C3.72272 23.2691 9.2309 28.7773 16 28.7773C22.7691 28.7773 28.2773 23.2691 28.2773 16.5C28.2773 9.7309 22.7691 4.22272 16 4.22272ZM14.6727 16.5C14.6727 17.23 15.2567 17.8273 16 17.8273C16.7433 17.8273 17.3273 17.23 17.3273 16.5C17.3273 15.77 16.73 15.1727 16 15.1727C15.27 15.1727 14.6727 15.77 14.6727 16.5ZM21.3091 17.8273C20.5658 17.8273 19.9818 17.23 19.9818 16.5C19.9818 15.77 20.5791 15.1727 21.3091 15.1727C22.0391 15.1727 22.6364 15.77 22.6364 16.5C22.6364 17.23 22.0524 17.8273 21.3091 17.8273ZM9.36363 16.5C9.36363 17.23 9.94763 17.8273 10.6909 17.8273C11.4342 17.8273 12.0182 17.23 12.0182 16.5C12.0182 15.77 11.4209 15.1727 10.6909 15.1727C9.9609 15.1727 9.36363 15.77 9.36363 16.5Z" fill="white"/>
</svg>
